P3
# CREATOR: GIMP PNM Filter Version 1.1
64 64
255
102
51
0
204
102
51
255
174
76
255
204
102
255
204
51
255
204
102
255
204
102
255
174
76
255
192
84
255
192
84
255
153
51
255
204
102
255
204
102
255
204
102
255
174
76
255
204
102
255
204
153
255
204
51
255
204
102
255
204
102
255
204
102
255
204
102
255
174
76
255
192
84
255
174
76
255
204
102
255
204
102
255
204
102
255
174
76
255
204
102
255
204
102
255
204
102
255
204
102
255
204
102
255
174
76
255
204
102
255
204
102
255
192
84
255
204
153
255
204
102
255
204
102
255
174
76
255
204
102
255
204
102
255
204
102
255
204
51
255
192
84
255
192
84
255
204
102
255
204
102
255
204
102
255
174
76
255
192
84
255
192
84
255
192
84
255
174
76
255
204
153
255
204
102
255
192
84
255
204
102
255
255
102
255
255
153
255
153
51
119
119
119
102
51
0
204
102
51
255
174
76
255
204
102
255
204
51
255
204
102
255
204
102
255
174
76
255
192
84
255
192
84
255
153
51
255
204
102
255
204
102
255
204
102
255
174
76
255
204
102
255
204
153
255
204
51
255
204
102
255
204
102
255
204
102
255
174
76
255
192
84
255
192
84
255
174
76
255
204
102
255
204
102
255
204
102
255
174
76
255
204
102
255
204
102
255
204
102
255
204
102
255
204
102
255
174
76
255
204
102
255
204
102
255
192
84
255
204
153
255
204
102
255
204
102
255
204
102
255
174
76
255
204
102
255
204
102
255
204
51
255
192
84
255
192
84
255
204
153
255
204
102
255
204
102
255
174
76
255
192
84
255
192
84
255
192
84
255
174
76
255
204
153
255
204
102
255
192
84
255
204
102
255
255
102
255
255
153
255
153
51
119
119
119
102
51
0
204
102
51
255
174
76
255
204
102
255
204
51
255
204
102
255
204
102
255
174
76
255
192
84
255
192
84
255
153
51
255
204
102
255
204
102
255
204
102
255
174
76
255
204
102
255
204
153
255
204
51
255
204
102
255
204
102
255
204
102
255
174
76
255
192
84
255
192
84
255
174
76
255
204
102
255
204
102
255
204
102
255
174
76
255
204
102
255
204
102
255
204
102
255
204
102
255
204
102
255
174
76
255
204
102
255
204
102
255
192
84
255
192
84
255
204
102
255
204
102
255
204
102
255
174
76
255
204
102
255
204
102
255
204
51
255
192
84
255
192
84
255
204
153
255
204
102
255
204
102
255
174
76
255
192
84
255
192
84
255
192
84
255
174
76
255
204
153
255
204
102
255
192
84
255
204
102
255
255
102
255
255
153
255
153
51
119
119
119
102
51
0
204
102
51
255
174
76
255
204
102
255
204
51
255
204
102
255
204
102
255
174
76
255
192
84
255
192
84
255
153
51
255
204
102
255
204
102
255
204
102
255
174
76
255
204
102
255
204
153
255
204
51
255
204
102
255
204
102
255
204
102
255
174
76
255
192
84
255
192
84
255
174
76
255
204
102
255
204
102
255
204
102
255
174
76
255
204
102
255
204
102
255
204
102
255
204
102
255
174
76
255
204
102
255
204
102
255
204
102
255
204
102
255
192
84
255
192
84
255
204
102
255
204
102
255
174
76
255
204
102
255
204
102
255
204
51
255
192
84
255
192
84
255
204
153
255
204
102
255
204
102
255
174
76
255
192
84
255
192
84
255
192
84
255
174
76
255
204
153
255
204
102
255
192
84
255
204
102
255
255
102
255
255
153
255
153
51
119
119
119
102
51
0
204
102
51
255
174
76
255
204
102
255
204
51
255
204
102
255
204
102
255
174
76
255
192
84
255
192
84
255
153
51
255
204
102
255
204
102
255
174
76
255
204
102
255
204
102
255
204
153
255
204
51
255
204
102
255
204
102
255
204
102
255
174
76
255
192
84
255
192
84
255
174
76
255
204
102
255
204
102
255
204
102
255
174
76
255
204
102
255
204
102
255
204
102
255
174
76
255
204
102
255
204
102
255
174
76
255
204
102
255
204
102
255
192
84
255
192
84
255
204
102
255
204
102
255
174
76
255
204
102
255
204
102
255
204
51
255
192
84
255
192
84
255
204
153
255
204
102
255
204
102
255
174
76
255
192
84
255
192
84
255
192
84
255
174
76
255
204
153
255
204
102
255
192
84
255
204
102
255
255
102
255
255
153
255
153
51
119
119
119
102
51
0
204
102
51
255
174
76
255
204
102
255
204
51
255
204
102
255
204
102
255
174
76
255
192
84
255
192
84
255
153
51
255
204
102
255
204
102
255
174
76
255
204
102
255
204
102
255
204
153
255
204
51
255
204
102
255
204
102
255
204
102
255
174
76
255
192
84
255
192
84
255
174
76
255
204
102
255
204
102
255
204
102
255
174
76
255
204
102
255
204
102
255
204
102
255
174
76
255
204
102
255
204
102
255
174
76
255
174
76
255
204
102
255
192
84
255
192
84
255
204
102
255
204
102
255
174
76
255
204
102
255
204
102
255
204
51
255
192
84
255
192
84
255
204
153
255
204
102
255
204
102
255
174
76
255
192
84
255
192
84
255
192
84
255
174
76
255
204
153
255
204
102
255
192
84
255
204
102
255
255
102
255
255
153
255
153
51
119
119
119
102
51
0
204
102
51
255
174
76
255
204
102
255
204
51
255
204
102
255
204
102
255
174
76
255
192
84
255
192
84
255
153
51
255
204
102
255
204
102
255
174
76
255
204
102
255
204
102
255
204
153
255
204
51
255
204
102
255
204
102
255
204
102
255
174
76
255
192
84
255
192
84
255
174
76
255
204
102
255
204
102
255
204
102
255
174
76
255
204
102
255
204
102
255
204
102
255
174
76
255
204
102
255
204
102
255
174
76
255
174
76
255
204
102
255
192
84
255
192
84
255
204
102
255
204
102
255
174
76
255
204
102
255
204
102
255
204
51
255
192
84
255
192
84
255
204
153
255
204
102
255
204
102
255
174
76
255
192
84
255
192
84
255
192
84
255
174
76
255
204
153
255
204
102
255
192
84
255
204
102
255
255
102
255
255
153
255
153
51
119
119
119
102
51
0
204
102
51
255
174
76
255
204
102
255
204
51
255
204
102
255
204
102
255
174
76
255
192
84
255
192
84
255
153
51
255
204
102
255
204
102
255
174
76
255
204
102
255
204
102
255
204
153
255
204
51
255
204
102
255
204
102
255
204
102
255
204
102
255
174
76
255
192
84
255
174
76
255
204
102
255
204
102
255
204
102
255
174
76
255
204
102
255
204
102
255
174
76
255
204
102
255
204
102
255
174
76
255
204
102
255
174
76
255
204
102
255
192
84
255
192
84
255
204
102
255
204
102
255
174
76
255
204
102
255
204
102
255
204
51
255
192
84
255
192
84
255
204
153
255
204
102
255
204
102
255
174
76
255
192
84
255
192
84
255
192
84
255
174
76
255
204
153
255
204
102
255
192
84
255
204
102
255
255
102
255
255
153
255
153
51
119
119
119
102
51
0
204
102
51
255
174
76
255
204
102
255
204
51
255
204
102
255
204
102
255
174
76
255
192
84
255
192
84
255
153
51
255
204
102
255
204
102
255
174
76
255
204
102
255
204
102
255
204
153
255
204
51
255
204
102
255
204
102
255
204
102
255
204
102
255
174
76
255
192
84
255
174
76
255
204
102
255
204
102
255
204
102
255
174
76
255
204
102
255
204
102
255
174
76
255
204
102
255
204
102
255
174
76
255
204
102
255
174
76
255
204
102
255
204
153
255
192
84
255
204
102
255
204
102
255
174
76
255
204
102
255
204
102
255
204
51
255
192
84
255
192
84
255
204
153
255
204
102
255
204
102
255
174
76
255
192
84
255
192
84
255
192
84
255
174
76
255
204
153
255
204
102
255
192
84
255
204
102
255
255
102
255
255
153
255
153
51
119
119
119
102
51
0
204
102
51
255
174
76
255
204
102
255
204
51
255
204
102
255
204
102
255
174
76
255
192
84
255
192
84
255
153
51
255
204
102
255
204
102
255
174
76
255
204
102
255
204
102
255
204
153
255
204
51
255
204
102
255
204
102
255
204
102
255
204
102
255
174
76
255
192
84
255
174
76
255
204
102
255
204
102
255
204
102
255
174
76
255
204
102
255
174
76
255
204
102
255
204
102
255
204
102
255
174
76
255
204
51
255
174
76
255
204
102
255
204
102
255
192
84
255
204
102
255
204
102
255
174
76
255
204
102
255
204
102
255
204
51
255
192
84
255
192
84
255
204
153
255
204
102
255
204
102
255
174
76
255
192
84
255
192
84
255
192
84
255
174
76
255
204
153
255
204
102
255
192
84
255
204
102
255
255
102
255
255
153
255
153
51
119
119
119
102
51
0
204
102
51
255
174
76
255
204
102
255
204
51
255
204
102
255
204
102
255
174
76
255
192
84
255
192
84
255
153
51
255
204
102
255
204
102
255
174
76
255
204
102
255
204
102
255
204
153
255
204
51
255
204
102
255
204
102
255
204
102
255
204
102
255
174
76
255
192
84
255
174
76
255
204
102
255
204
102
255
204
102
255
174
76
255
204
102
255
174
76
255
204
102
255
204
102
255
204
102
255
174
76
255
204
51
255
204
102
255
174
76
255
204
102
255
192
84
255
204
153
255
204
102
255
174
76
255
204
102
255
204
102
255
204
51
255
192
84
255
192
84
255
204
153
255
204
102
255
204
102
255
174
76
255
192
84
255
192
84
255
192
84
255
174
76
255
204
153
255
204
102
255
192
84
255
204
102
255
255
102
255
255
153
255
153
51
119
119
119
102
51
0
204
102
51
255
174
76
255
204
102
255
204
51
255
204
102
255
204
102
255
174
76
255
192
84
255
192
84
255
153
51
255
204
102
255
204
102
255
174
76
255
204
102
255
204
102
255
204
153
255
204
51
255
204
102
255
204
102
255
204
102
255
204
102
255
174
76
255
192
84
255
174
76
255
204
102
255
204
102
255
204
102
255
174
76
255
204
102
255
174
76
255
204
102
255
204
102
255
153
51
255
204
102
255
204
51
255
204
102
255
174
76
255
204
102
255
192
84
255
192
84
255
204
102
255
174
76
255
204
102
255
204
102
255
204
51
255
192
84
255
192
84
255
204
153
255
204
102
255
204
102
255
174
76
255
192
84
255
192
84
255
192
84
255
174
76
255
204
153
255
204
102
255
192
84
255
204
102
255
255
102
255
255
153
255
153
51
119
119
119
102
51
0
204
102
51
255
174
76
255
204
102
255
204
51
255
204
102
255
204
102
255
174
76
255
192
84
255
192
84
255
153
51
255
204
102
255
204
102
255
174
76
255
204
102
255
204
102
255
204
153
255
204
51
255
204
102
255
204
102
255
204
102
255
204
102
255
174
76
255
192
84
255
174
76
255
204
102
255
204
102
255
204
102
255
174
76
255
204
102
255
174
76
255
204
102
255
204
102
255
153
51
255
204
102
255
204
51
255
204
102
255
174
76
255
204
102
255
192
84
255
192
84
255
204
102
255
174
76
255
204
102
255
204
102
255
204
51
255
192
84
255
192
84
255
204
153
255
204
102
255
204
102
255
174
76
255
192
84
255
192
84
255
192
84
255
174
76
255
204
153
255
204
102
255
192
84
255
204
102
255
255
102
255
255
153
255
153
51
119
119
119
102
51
0
204
102
51
255
174
76
255
204
102
255
204
51
255
204
102
255
204
102
255
174
76
255
192
84
255
192
84
255
153
51
255
204
102
255
204
102
255
174
76
255
204
102
255
204
102
255
204
153
255
204
51
255
204
102
255
204
102
255
204
102
255
204
102
255
174
76
255
192
84
255
174
76
255
204
102
255
204
102
255
204
102
255
174
76
255
204
102
255
174
76
255
204
102
255
204
102
255
153
51
255
204
102
255
204
51
255
204
102
255
174
76
255
204
102
255
204
102
255
192
84
255
204
102
255
174
76
255
204
102
255
204
102
255
204
51
255
192
84
255
192
84
255
204
153
255
204
102
255
204
102
255
174
76
255
192
84
255
192
84
255
192
84
255
174
76
255
204
153
255
204
102
255
192
84
255
204
102
255
255
102
255
255
153
255
153
51
119
119
119
102
51
0
204
102
51
255
174
76
255
204
102
255
204
51
255
204
102
255
204
102
255
174
76
255
192
84
255
192
84
255
153
51
255
204
102
255
204
102
255
174
76
255
204
102
255
204
102
255
204
153
255
204
51
255
204
102
255
204
102
255
204
102
255
204
102
255
174
76
255
192
84
255
174
76
255
204
102
255
204
102
255
204
102
255
174
76
255
204
102
255
174
76
255
204
102
255
204
102
255
153
51
255
204
102
255
204
102
255
204
102
255
204
102
255
153
51
255
204
102
255
192
84
255
204
102
255
174
76
255
204
102
255
204
102
255
204
51
255
192
84
255
192
84
255
204
153
255
204
102
255
204
102
255
174
76
255
192
84
255
192
84
255
192
84
255
174
76
255
204
153
255
204
102
255
192
84
255
204
102
255
255
102
255
255
153
255
153
51
119
119
119
102
51
0
204
102
51
255
174
76
255
204
102
255
204
51
255
204
102
255
204
102
255
174
76
255
192
84
255
192
84
255
153
51
255
204
102
255
204
102
255
174
76
255
204
102
255
204
102
255
204
153
255
204
51
255
204
102
255
204
102
255
204
102
255
204
102
255
174
76
255
192
84
255
174
76
255
204
102
255
204
102
255
204
102
255
174
76
255
204
102
255
174
76
255
204
102
255
204
102
255
153
51
255
204
102
255
153
51
255
204
51
255
204
102
255
153
51
255
204
102
255
192
84
255
204
102
255
174
76
255
204
102
255
204
102
255
204
51
255
192
84
255
192
84
255
204
153
255
204
102
255
204
102
255
174
76
255
192
84
255
192
84
255
192
84
255
174
76
255
204
153
255
204
102
255
192
84
255
204
102
255
255
102
255
255
153
255
153
51
119
119
119
102
51
0
204
102
51
255
174
76
255
204
102
255
204
51
255
204
102
255
204
102
255
174
76
255
192
84
255
192
84
255
153
51
255
204
102
255
204
102
255
174
76
255
204
102
255
204
102
255
204
153
255
204
51
255
204
102
255
204
102
255
204
102
255
204
102
255
174
76
255
192
84
255
174
76
255
204
102
255
204
102
255
204
102
255
174
76
255
204
102
255
174
76
255
204
102
255
153
51
255
204
51
255
204
102
255
153
51
255
153
51
255
204
102
255
153
51
255
204
102
255
192
84
255
204
102
255
174
76
255
204
102
255
204
102
255
204
51
255
192
84
255
192
84
255
204
153
255
204
102
255
204
102
255
174
76
255
192
84
255
192
84
255
192
84
255
174
76
255
204
153
255
204
102
255
192
84
255
204
102
255
255
102
255
255
153
255
153
51
119
119
119
102
51
0
204
102
51
255
174
76
255
204
102
255
204
51
255
204
102
255
204
102
255
174
76
255
192
84
255
192
84
255
153
51
255
204
102
255
204
102
255
174
76
255
204
102
255
204
102
255
204
153
255
204
51
255
204
102
255
204
102
255
204
102
255
204
102
255
174
76
255
192
84
255
174
76
255
204
102
255
204
102
255
204
102
255
174
76
255
204
102
255
174
76
255
204
102
255
153
51
255
204
102
255
153
51
255
153
51
255
102
0
255
153
51
255
204
102
255
153
51
255
204
102
255
204
153
255
174
76
255
204
102
255
204
102
255
204
51
255
192
84
255
192
84
255
204
153
255
204
102
255
204
102
255
174
76
255
192
84
255
192
84
255
192
84
255
174
76
255
204
153
255
204
102
255
192
84
255
204
102
255
255
102
255
255
153
255
153
51
119
119
119
102
51
0
204
102
51
255
174
76
255
204
102
255
204
51
255
204
102
255
204
102
255
174
76
255
192
84
255
192
84
255
153
51
255
204
102
255
204
102
255
174
76
255
204
102
255
204
102
255
204
153
255
204
51
255
204
102
255
204
102
255
204
102
255
204
102
255
174
76
255
192
84
255
174
76
255
204
102
255
204
102
255
204
102
255
174
76
255
204
102
255
174
76
255
204
102
255
153
51
255
204
102
255
153
0
255
102
0
255
153
51
255
153
51
255
204
102
255
153
51
255
204
102
255
204
153
255
204
102
255
174
76
255
204
102
255
204
51
255
192
84
255
192
84
255
204
153
255
204
102
255
204
102
255
204
102
255
174
76
255
192
84
255
192
84
255
174
76
255
204
153
255
204
102
255
192
84
255
204
102
255
255
102
255
255
153
255
153
51
119
119
119
102
51
0
204
102
51
255
174
76
255
204
102
255
204
51
255
204
102
255
204
102
255
174
76
255
192
84
255
192
84
255
153
51
255
204
102
255
204
102
255
174
76
255
204
102
255
204
102
255
204
153
255
204
51
255
204
102
255
204
102
255
204
102
255
204
102
255
174
76
255
192
84
255
174
76
255
204
102
255
204
102
255
174
76
255
204
102
255
204
102
255
174
76
255
204
102
255
153
51
255
204
102
255
153
51
255
174
76
255
153
51
255
204
102
255
204
102
255
153
51
255
204
102
255
204
153
255
204
102
255
174
76
255
204
102
255
204
51
255
192
84
255
192
84
255
204
153
255
204
102
255
204
102
255
204
102
255
174
76
255
192
84
255
192
84
255
174
76
255
204
153
255
204
102
255
192
84
255
204
102
255
255
102
255
255
153
255
153
51
119
119
119
102
51
0
204
102
51
255
174
76
255
204
102
255
204
51
255
204
102
255
204
102
255
174
76
255
192
84
255
192
84
255
153
51
255
204
102
255
204
102
255
174
76
255
204
102
255
204
102
255
204
153
255
204
51
255
204
102
255
204
102
255
204
102
255
204
102
255
174
76
255
192
84
255
174
76
255
204
102
255
204
102
255
174
76
255
204
102
255
204
102
255
174
76
255
204
102
255
153
51
255
204
102
255
153
51
255
174
76
255
153
51
255
204
102
255
204
102
255
153
51
255
204
102
255
204
153
255
204
102
255
174
76
255
204
102
255
204
51
255
192
84
255
192
84
255
204
153
255
204
102
255
204
102
255
204
102
255
174
76
255
192
84
255
192
84
255
174
76
255
204
153
255
204
102
255
192
84
255
204
102
255
255
102
255
255
153
255
153
51
119
119
119
102
51
0
204
102
51
255
174
76
255
204
102
255
204
51
255
204
102
255
204
102
255
174
76
255
192
84
255
192
84
255
153
51
255
204
102
255
204
102
255
174
76
255
204
102
255
204
102
255
204
153
255
204
51
255
204
102
255
204
102
255
204
102
255
204
102
255
174
76
255
192
84
255
192
84
255
174
76
245
196
98
164
112
49
92
74
37
43
34
17
18
12
5
4
3
2
16
10
3
37
30
15
89
53
18
158
108
47
247
148
0
255
204
102
255
204
102
255
153
51
255
204
102
255
204
153
255
204
102
255
174
76
255
204
102
255
204
51
255
192
84
255
192
84
255
204
153
255
204
102
255
204
102
255
204
102
255
174
76
255
192
84
255
192
84
255
174
76
255
204
153
255
204
102
255
192
84
255
204
102
255
255
102
255
255
153
255
153
51
119
119
119
102
51
0
204
102
51
255
174
76
255
204
102
255
204
51
255
204
102
255
204
102
255
174
76
255
192
84
255
192
84
255
153
51
255
204
102
255
204
102
255
174
76
255
204
102
255
204
102
255
204
153
255
204
51
255
204
102
255
204
102
255
204
102
255
204
102
255
174
76
255
192
84
253
190
83
147
100
44
18
14
7
0
0
0
0
0
0
0
0
0
0
0
0
0
0
0
0
0
0
0
0
0
0
0
0
0
0
0
24
14
5
159
127
64
255
204
102
255
153
51
255
204
102
255
204
153
255
204
102
255
174
76
255
204
102
255
204
51
255
192
84
255
192
84
255
204
153
255
204
102
255
204
102
255
204
102
255
174
76
255
192
84
255
192
84
255
174
76
255
204
153
255
204
102
255
192
84
255
204
102
255
255
102
255
255
153
255
153
51
119
119
119
102
51
0
204
102
51
255
174
76
255
204
102
255
204
51
255
204
102
255
204
102
255
174
76
255
192
84
255
192
84
255
153
51
255
204
102
255
204
102
255
174
76
255
204
102
255
204
102
255
204
153
255
204
51
255
204
102
255
204
102
255
204
102
255
204
102
255
174
76
246
185
81
80
60
26
0
0
0
0
0
0
0
0
0
0
0
0
0
0
0
0
0
0
0
0
0
0
0
0
0
0
0
0
0
0
0
0
0
0
0
0
0
0
0
108
65
22
255
204
102
255
204
102
255
204
153
255
204
102
255
174
76
255
204
102
255
204
51
255
192
84
255
192
84
255
204
153
255
204
102
255
204
102
255
204
102
255
174
76
255
192
84
255
192
84
255
174
76
255
204
153
255
204
102
255
192
84
255
204
102
255
255
102
255
255
153
255
153
51
119
119
119
102
51
0
204
102
51
255
174
76
255
204
102
255
204
51
255
204
102
255
204
102
255
174
76
255
192
84
255
192
84
255
153
51
255
204
102
255
204
102
255
174
76
255
204
102
255
204
102
255
204
153
255
204
51
255
204
102
255
204
102
255
204
102
255
204
102
255
174
76
86
65
28
0
0
0
0
0
0
0
0
0
11
8
3
114
91
46
196
157
78
240
164
72
250
200
100
227
136
45
161
129
64
43
26
9
0
0
0
0
0
0
0
0
0
0
0
0
136
109
54
255
204
102
255
204
153
255
204
102
255
174
76
255
204
102
255
204
51
255
192
84
255
192
84
255
204
153
255
204
102
255
204
102
255
204
102
255
174
76
255
192
84
255
192
84
255
174
76
255
204
153
255
204
102
255
192
84
255
204
102
255
255
102
255
255
153
255
153
51
119
119
119
102
51
0
204
102
51
255
174
76
255
204
102
255
204
51
255
204
102
255
204
102
255
174
76
255
192
84
255
192
84
255
153
51
255
204
102
255
204
102
255
174
76
255
204
102
255
204
102
255
204
153
255
204
51
255
204
102
255
204
102
255
204
102
255
204
102
157
107
47
0
0
0
0
0
0
0
0
0
42
34
17
222
151
66
255
204
102
255
204
102
255
174
76
255
204
102
255
204
102
255
153
51
249
199
100
91
55
18
0
0
0
0
0
0
0
0
0
7
6
3
224
179
90
255
192
84
255
204
102
255
174
76
255
204
102
255
204
51
255
192
84
255
192
84
255
204
153
255
204
102
255
204
102
255
204
102
255
174
76
255
192
84
255
192
84
255
174
76
255
204
153
255
204
102
255
192
84
255
204
102
255
255
102
255
255
153
255
153
51
119
119
119
102
51
0
204
102
51
255
174
76
255
204
102
255
204
51
255
204
102
255
204
102
255
174
76
255
192
84
255
192
84
255
153
51
255
204
102
255
204
102
255
174
76
255
204
102
255
204
102
255
204
153
255
204
51
255
204
102
255
204
102
255
204
102
247
198
99
25
17
7
0
0
0
0
0
0
22
15
7
230
184
92
255
174
76
255
204
102
255
204
102
255
174
76
255
204
102
255
204
102
255
153
51
255
204
102
250
200
100
51
41
20
0
0
0
0
0
0
0
0
0
118
94
47
255
192
84
255
204
102
255
174
76
255
204
102
255
204
51
255
192
84
255
192
84
255
204
153
255
204
102
255
204
102
255
204
102
255
174
76
255
192
84
255
192
84
255
174
76
255
204
153
255
204
102
255
192
84
255
204
102
255
255
102
255
255
153
255
153
51
119
119
119
102
51
0
204
102
51
255
174
76
255
204
102
255
204
51
255
204
102
255
204
102
255
174
76
255
192
84
255
192
84
255
153
51
255
204
102
255
204
102
255
174
76
255
204
102
255
204
102
255
204
153
255
204
51
255
204
102
255
204
102
255
204
102
164
112
49
0
0
0
0
0
0
0
0
0
161
110
48
255
204
102
255
174
76
255
204
102
255
204
102
255
174
76
255
204
102
255
204
102
255
204
102
255
153
51
255
204
102
173
138
69
0
0
0
0
0
0
0
0
0
47
38
19
255
192
84
255
204
102
255
174
76
255
204
102
255
204
51
255
192
84
255
192
84
255
204
153
255
204
102
255
204
102
255
204
102
255
174
76
255
192
84
255
192
84
255
174
76
255
204
153
255
204
102
255
192
84
255
204
102
255
255
102
255
255
153
255
153
51
119
119
119
102
51
0
204
102
51
255
174
76
255
204
102
255
204
51
255
204
102
255
204
102
255
174
76
255
192
84
255
192
84
255
153
51
255
204
102
255
204
102
255
174
76
255
204
102
255
204
102
255
204
153
255
204
51
255
204
102
255
204
102
255
204
102
183
125
55
63
47
21
1
1
0
27
20
9
252
172
75
255
204
102
255
174
76
255
204
102
255
204
102
255
174
76
255
204
102
255
204
102
255
204
102
255
153
51
255
204
102
236
189
94
0
0
0
0
0
0
0
0
0
15
12
3
255
192
84
255
204
102
255
174
76
255
204
102
255
204
51
255
192
84
255
192
84
255
204
153
255
204
102
255
204
102
255
204
102
255
174
76
255
192
84
255
192
84
255
174
76
255
204
153
255
204
102
255
192
84
255
204
102
255
255
102
255
255
153
255
153
51
119
119
119
102
51
0
204
102
51
255
174
76
255
204
102
255
204
51
255
204
102
255
174
76
255
192
84
255
192
84
255
192
84
255
153
51
255
204
102
255
204
102
255
174
76
255
204
102
255
204
102
255
204
153
255
204
51
255
204
102
255
204
102
255
204
102
255
174
76
255
192
84
226
170
74
191
130
57
255
204
102
255
204
102
255
174
76
255
204
102
255
204
102
255
174
76
255
204
102
255
204
102
255
204
102
255
204
102
255
153
51
249
149
50
0
0
0
0
0
0
0
0
0
5
4
2
255
192
84
255
204
102
255
174
76
255
204
102
255
204
51
255
192
84
255
192
84
255
204
153
255
204
102
255
204
102
255
174
76
255
192
84
255
192
84
255
192
84
255
174
76
255
204
153
255
204
102
255
192
84
255
204
102
255
255
102
255
255
153
255
153
51
119
119
119
102
51
0
204
102
51
255
174
76
255
204
102
255
204
51
255
204
102
255
174
76
255
192
84
255
192
84
255
192
84
255
153
51
255
204
102
255
204
102
255
174
76
255
204
102
255
204
102
255
204
153
255
204
51
255
204
102
255
204
102
255
204
102
255
174
76
255
192
84
255
192
84
255
174
76
255
204
102
255
204
102
255
174
76
255
204
102
255
204
102
255
174
76
255
204
102
255
204
102
255
204
51
255
204
102
255
204
102
216
173
86
0
0
0
0
0
0
0
0
0
26
20
9
255
192
84
255
204
102
255
174
76
255
204
102
255
204
51
255
192
84
255
192
84
255
204
153
255
204
102
255
204
102
255
174
76
255
192
84
255
192
84
255
192
84
255
174
76
255
204
153
255
204
102
255
192
84
255
204
102
255
255
102
255
255
153
255
153
51
119
119
119
102
51
0
204
102
51
255
174
76
255
204
102
255
204
51
255
204
102
255
174
76
255
192
84
255
192
84
255
192
84
255
153
51
255
204
102
255
204
102
255
174
76
255
204
102
255
204
102
255
204
153
255
204
51
255
204
102
255
204
102
255
204
102
255
174
76
255
192
84
255
192
84
255
174
76
255
204
102
255
204
102
255
174
76
255
204
102
255
204
102
255
174
76
255
204
102
255
204
102
255
204
51
255
204
51
255
204
102
132
106
53
0
0
0
0
0
0
0
0
0
75
56
25
255
192
84
255
204
102
255
174
76
255
204
102
255
204
51
255
192
84
255
192
84
255
204
153
255
204
102
255
204
102
255
174
76
255
192
84
255
192
84
255
192
84
255
174
76
255
204
153
255
204
102
255
192
84
255
204
102
255
255
102
255
255
153
255
153
51
119
119
119
102
51
0
204
102
51
255
174
76
255
204
102
255
204
51
255
204
102
255
174
76
255
192
84
255
192
84
255
192
84
255
153
51
255
204
102
255
204
102
255
174
76
255
204
102
255
204
102
255
204
153
255
204
51
255
204
102
255
204
102
255
204
102
255
174
76
255
192
84
255
192
84
255
174
76
255
204
102
255
204
102
255
174
76
255
204
102
255
204
102
255
174
76
255
204
102
255
204
102
255
204
102
255
204
51
226
181
90
15
12
6
0
0
0
0
0
0
0
0
0
155
117
51
255
192
84
255
204
102
255
174
76
255
204
102
255
204
51
255
192
84
255
192
84
255
204
153
255
204
102
255
204
102
255
174
76
255
192
84
255
192
84
255
192
84
255
174
76
255
204
153
255
204
102
255
192
84
255
204
102
255
255
102
255
255
153
255
153
51
119
119
119
102
51
0
204
102
51
255
174
76
255
204
102
255
204
51
255
204
102
255
174
76
255
192
84
255
192
84
255
192
84
255
153
51
255
204
102
255
204
102
255
174
76
255
204
102
255
204
102
255
204
153
255
204
51
255
204
102
255
204
102
255
204
102
255
174
76
255
192
84
255
192
84
255
174
76
255
204
102
255
204
102
255
204
102
255
174
76
255
204
102
255
204
102
255
174
76
255
204
102
255
204
102
233
186
93
43
32
14
0
0
0
0
0
0
0
0
0
30
23
10
246
185
81
255
204
102
255
204
102
255
174
76
255
204
102
255
204
51
255
192
84
255
192
84
255
204
102
255
204
102
255
204
102
255
174
76
255
192
84
255
192
84
255
192
84
255
174
76
255
204
153
255
204
102
255
192
84
255
204
102
255
255
102
255
255
153
255
153
51
119
119
119
102
51
0
204
102
51
255
174
76
255
204
102
255
204
51
255
204
102
255
174
76
255
192
84
255
192
84
255
192
84
255
153
51
255
204
102
255
204
102
255
174
76
255
204
102
255
204
102
255
204
153
255
204
51
255
204
102
255
204
102
255
204
102
255
174
76
255
192
84
255
192
84
255
174
76
255
204
102
255
204
102
255
204
102
255
174
76
255
204
102
255
204
102
255
204
102
255
174
76
214
171
86
35
28
14
0
0
0
0
0
0
0
0
0
15
12
3
208
157
69
255
192
84
255
204
102
255
174
76
255
204
102
255
204
102
255
204
51
255
192
84
255
192
84
255
204
102
255
204
102
255
204
102
255
174
76
255
192
84
255
192
84
255
192
84
255
174
76
255
204
153
255
204
102
255
192
84
255
204
102
255
255
102
255
255
153
255
153
51
119
119
119
102
51
0
204
102
51
255
174
76
255
204
102
255
204
51
255
204
102
255
174
76
255
192
84
255
192
84
255
192
84
255
153
51
255
204
102
255
204
102
255
174
76
255
204
102
255
204
102
255
204
153
255
204
51
255
204
102
255
204
102
255
204
102
255
174
76
255
192
84
255
192
84
255
174
76
255
204
102
255
204
102
255
204
102
255
174
76
255
204
102
255
204
102
255
204
102
169
115
50
13
10
5
0
0
0
0
0
0
0
0
0
26
21
10
209
157
69
255
192
84
255
204
102
255
204
102
255
174
76
255
204
102
255
204
102
255
204
51
255
192
84
255
192
84
255
204
102
255
204
102
255
204
102
255
174
76
255
192
84
255
192
84
255
192
84
255
174
76
255
204
153
255
204
102
255
192
84
255
204
102
255
255
102
255
255
153
255
153
51
119
119
119
102
51
0
204
102
51
255
174
76
255
204
102
255
204
51
255
204
102
255
174
76
255
192
84
255
192
84
255
192
84
255
153
51
255
204
102
255
204
102
255
174
76
255
204
102
255
204
102
255
204
153
255
204
51
255
204
102
255
204
102
255
204
102
255
174
76
255
192
84
255
192
84
255
174
76
255
204
102
255
204
102
255
204
102
255
174
76
255
204
102
244
195
98
102
82
41
0
0
0
0
0
0
0
0
0
0
0
0
63
47
21
231
174
76
255
192
84
255
192
84
255
204
102
255
204
102
255
174
76
255
204
102
255
204
102
255
204
51
255
192
84
255
192
84
255
204
102
255
204
102
255
204
102
255
174
76
255
192
84
255
192
84
255
192
84
255
174
76
255
204
153
255
204
102
255
192
84
255
204
102
255
255
102
255
255
153
255
153
51
119
119
119
102
51
0
204
102
51
255
174
76
255
204
102
255
204
51
255
204
102
255
174
76
255
192
84
255
192
84
255
192
84
255
153
51
255
204
102
255
204
102
255
174
76
255
204
102
255
204
102
255
204
153
255
204
51
255
204
102
255
204
102
255
204
102
255
174
76
255
192
84
255
192
84
255
174
76
255
204
102
255
204
102
255
204
102
255
174
76
202
162
81
35
28
14
0
0
0
0
0
0
0
0
0
5
4
2
128
102
51
252
190
83
255
192
84
255
192
84
255
192
84
255
204
102
255
204
102
255
174
76
255
204
102
255
204
102
255
204
51
255
192
84
255
192
84
255
204
102
255
204
102
255
204
102
255
174
76
255
192
84
255
192
84
255
192
84
255
174
76
255
204
153
255
204
102
255
192
84
255
204
102
255
255
102
255
255
153
255
153
51
119
119
119
102
51
0
204
102
51
255
174
76
255
204
102
255
204
51
255
204
102
255
174
76
255
192
84
255
192
84
255
192
84
255
153
51
255
204
102
255
204
102
255
174
76
255
204
102
255
204
102
255
204
153
255
204
51
255
204
102
255
204
102
255
204
102
255
174
76
255
192
84
255
192
84
255
174
76
255
204
102
255
204
102
255
204
102
145
99
43
5
4
2
0
0
0
0
0
0
0
0
0
46
31
14
206
165
82
255
204
102
255
192
84
255
192
84
255
204
102
255
192
84
255
204
102
255
204
102
255
174
76
255
204
102
255
204
102
255
204
51
255
192
84
255
192
84
255
204
102
255
204
102
255
204
102
255
174
76
255
192
84
255
192
84
255
192
84
255
174
76
255
204
153
255
204
102
255
192
84
255
204
102
255
255
102
255
255
153
255
153
51
119
119
119
102
51
0
204
102
51
255
174
76
255
204
102
255
204
51
255
204
102
255
174
76
255
192
84
255
192
84
255
192
84
255
153
51
255
204
102
255
204
102
255
174
76
255
204
102
255
204
102
255
204
153
255
204
51
255
204
102
255
204
102
255
204
102
255
174
76
255
192
84
255
192
84
255
174
76
255
204
102
250
200
100
99
79
40
0
0
0
0
0
0
0
0
0
7
6
3
136
109
54
251
171
75
255
204
102
255
204
102
255
192
84
255
192
84
255
192
84
255
192
84
255
204
102
255
204
102
255
174
76
255
204
102
255
204
102
255
204
51
255
192
84
255
192
84
255
204
102
255
204
102
255
204
102
255
174
76
255
192
84
255
192
84
255
192
84
255
174
76
255
204
153
255
204
102
255
192
84
255
204
102
255
255
102
255
255
153
255
153
51
119
119
119
102
51
0
204
102
51
255
174
76
255
204
102
255
204
51
255
204
102
255
174
76
255
192
84
255
192
84
255
192
84
255
153
51
255
204
102
255
204
102
255
174
76
255
204
102
255
204
102
255
204
153
255
204
51
255
204
102
255
204
102
255
204
102
255
174
76
255
192
84
255
192
84
255
174
76
247
198
99
76
61
30
0
0
0
0
0
0
0
0
0
45
36
18
213
170
85
255
204
102
255
174
76
255
204
102
255
204
102
255
192
84
255
192
84
255
192
84
255
204
102
255
204
102
255
204
102
255
174
76
255
204
102
255
204
102
255
204
51
255
192
84
255
192
84
255
204
102
255
204
102
255
204
102
255
174
76
255
192
84
255
192
84
255
192
84
255
174
76
255
204
153
255
204
102
255
192
84
255
204
102
255
255
102
255
255
153
255
153
51
119
119
119
102
51
0
204
102
51
255
174
76
255
204
102
255
204
51
255
204
102
255
174
76
255
192
84
255
192
84
255
192
84
255
153
51
255
204
102
255
204
102
255
174
76
255
204
102
255
204
102
255
204
153
255
204
51
255
204
102
255
204
102
255
204
102
255
174
76
255
192
84
255
192
84
250
171
75
72
58
29
0
0
0
0
0
0
0
0
0
93
74
37
246
197
148
255
204
102
255
204
102
255
174
76
255
204
102
255
204
102
255
192
84
255
192
84
255
192
84
255
204
102
255
204
102
255
204
102
255
174
76
255
204
102
255
204
102
255
204
51
255
192
84
255
192
84
255
204
102
255
204
102
255
204
102
255
174
76
255
192
84
255
192
84
255
192
84
255
174
76
255
204
153
255
204
102
255
192
84
255
204
102
255
255
102
255
255
153
255
153
51
119
119
119
102
51
0
204
102
51
255
174
76
255
204
102
255
204
51
255
204
102
255
174
76
255
192
84
255
192
84
255
192
84
255
153
51
255
204
102
255
204
102
255
174
76
255
204
102
255
204
102
255
204
153
255
204
51
255
204
102
255
204
102
255
204
102
255
174
76
255
192
84
255
192
84
91
62
27
0
0
0
0
0
0
0
0
0
126
86
38
255
204
102
255
204
153
255
204
102
255
204
102
255
174
76
255
204
102
255
204
102
255
204
102
255
192
84
255
192
84
255
204
102
255
204
102
255
204
102
255
174
76
255
204
102
255
204
102
255
204
51
255
192
84
255
192
84
255
204
102
255
204
102
255
204
102
255
174
76
255
192
84
255
192
84
255
192
84
255
174
76
255
204
153
255
204
102
255
192
84
255
204
102
255
255
102
255
255
153
255
153
51
119
119
119
102
51
0
204
102
51
255
174
76
255
204
102
255
204
51
255
204
102
255
174
76
255
192
84
255
192
84
255
192
84
255
153
51
255
204
102
255
204
102
255
174
76
255
204
102
255
204
102
255
204
153
255
204
51
255
204
102
255
204
102
255
204
102
255
174
76
255
192
84
139
105
46
0
0
0
0
0
0
0
0
0
132
106
53
255
174
76
255
204
102
255
204
153
255
204
102
255
204
102
255
174
76
255
204
102
255
204
102
255
204
102
255
192
84
255
192
84
255
204
102
255
204
102
255
204
102
255
174
76
255
204
102
255
204
102
255
204
51
255
192
84
255
192
84
255
204
102
255
204
102
255
204
102
255
174
76
255
192
84
255
192
84
255
192
84
255
174
76
255
204
153
255
204
102
255
192
84
255
204
102
255
255
102
255
255
153
255
153
51
119
119
119
102
51
0
204
102
51
255
174
76
255
204
102
255
204
51
255
204
102
255
204
102
255
174
76
255
192
84
255
192
84
255
153
51
255
204
102
255
204
102
255
174
76
255
204
102
255
204
102
255
204
153
255
204
51
255
204
102
255
204
102
255
204
102
255
174
76
206
155
68
5
4
2
0
0
0
0
0
0
103
82
41
255
204
102
255
174
76
255
204
102
255
204
153
255
204
102
255
204
102
255
174
76
255
204
102
255
204
102
255
204
102
255
192
84
255
192
84
255
204
102
255
204
102
255
204
102
255
174
76
255
204
102
255
204
102
255
204
51
255
192
84
255
192
84
255
204
102
255
204
102
255
204
102
255
174
76
255
192
84
255
192
84
255
192
84
255
174
76
255
204
153
255
204
102
255
192
84
255
204
102
255
255
102
255
255
153
255
153
51
119
119
119
102
51
0
204
102
51
255
174
76
255
204
102
255
204
51
255
204
102
255
204
102
255
174
76
255
192
84
255
192
84
255
153
51
255
204
102
255
204
102
255
174
76
255
204
102
255
204
102
255
204
153
255
204
51
255
204
102
255
204
102
255
204
102
254
173
76
51
38
17
0
0
0
0
0
0
48
38
19
249
199
100
255
204
102
255
174
76
255
204
102
255
204
153
255
204
102
255
204
102
255
174
76
255
204
102
255
204
102
255
204
102
255
192
84
255
192
84
255
204
102
255
204
102
255
204
102
255
174
76
255
204
102
255
204
102
255
204
51
255
192
84
255
192
84
255
204
102
255
204
102
255
204
102
255
174
76
255
192
84
255
192
84
255
192
84
255
174
76
255
204
153
255
204
102
255
192
84
255
204
102
255
255
102
255
255
153
255
153
51
119
119
119
102
51
0
204
102
51
255
174
76
255
204
102
255
204
51
255
204
102
255
204
102
255
174
76
255
192
84
255
192
84
255
153
51
255
204
102
255
204
102
255
204
102
255
174
76
255
204
102
255
204
153
255
204
51
255
204
102
255
204
102
255
204
102
162
111
48
0
0
0
0
0
0
1
1
0
201
161
80
255
204
102
255
204
102
255
174
76
255
204
102
255
204
153
255
204
102
255
204
102
255
174
76
255
204
102
255
204
102
255
204
102
255
192
84
255
192
84
255
204
102
255
204
102
255
204
102
255
174
76
255
204
102
255
204
102
255
204
51
255
192
84
255
192
84
255
204
102
255
204
102
255
204
102
255
174
76
255
192
84
255
192
84
255
192
84
255
174
76
255
204
153
255
204
102
255
192
84
255
204
102
255
255
102
255
255
153
255
153
51
119
119
119
102
51
0
204
102
51
255
174
76
255
204
102
255
204
51
255
204
102
255
204
102
255
174
76
255
192
84
255
192
84
255
153
51
255
204
102
255
204
102
255
204
102
255
174
76
255
204
102
255
204
153
255
204
51
255
204
102
255
204
102
255
204
102
42
34
17
0
0
0
0
0
0
77
58
25
255
174
76
255
204
102
255
204
102
255
174
76
255
204
102
255
204
153
255
204
102
255
204
102
255
174
76
255
204
102
255
204
102
255
204
102
255
192
84
255
192
84
255
204
102
255
204
102
255
204
102
255
174
76
255
204
102
255
204
102
255
204
51
255
192
84
255
192
84
255
204
102
255
204
102
255
204
102
255
174
76
255
192
84
255
192
84
255
192
84
255
174
76
255
204
153
255
204
102
255
192
84
255
204
102
255
255
102
255
255
153
255
153
51
119
119
119
102
51
0
204
102
51
255
174
76
255
204
102
255
204
51
255
204
102
255
204
102
255
174
76
255
192
84
255
192
84
255
153
51
255
204
102
255
204
102
255
204
102
255
174
76
255
204
102
255
204
153
255
204
51
255
204
102
255
204
102
255
204
102
0
0
0
0
0
0
0
0
0
0
0
0
0
0
0
0
0
0
0
0
0
0
0
0
0
0
0
0
0
0
0
0
0
0
0
0
0
0
0
0
0
0
0
0
0
0
0
0
0
0
0
0
0
0
0
0
0
0
0
0
0
0
0
255
174
76
255
204
102
255
204
102
255
204
51
255
192
84
255
192
84
255
204
102
255
204
102
255
204
102
255
174
76
255
192
84
255
192
84
255
192
84
255
174
76
255
204
153
255
204
102
255
192
84
255
204
102
255
255
102
255
255
153
255
153
51
119
119
119
102
51
0
204
102
51
255
174
76
255
204
102
255
204
51
255
204
102
255
204
102
255
174
76
255
192
84
255
192
84
255
153
51
255
204
102
255
204
102
255
204
102
255
174
76
255
204
102
255
204
153
255
204
51
255
204
102
255
204
102
255
204
102
0
0
0
0
0
0
0
0
0
0
0
0
0
0
0
0
0
0
0
0
0
0
0
0
0
0
0
0
0
0
0
0
0
0
0
0
0
0
0
0
0
0
0
0
0
0
0
0
0
0
0
0
0
0
0
0
0
0
0
0
0
0
0
255
174
76
255
204
102
255
204
102
255
204
51
255
192
84
255
192
84
255
204
102
255
204
102
255
204
102
255
174
76
255
192
84
255
192
84
255
192
84
255
174
76
255
204
153
255
204
102
255
192
84
255
204
102
255
255
102
255
255
153
255
153
51
119
119
119
102
51
0
204
102
51
255
174
76
255
204
102
255
204
51
255
204
102
255
204
102
255
174
76
255
192
84
255
192
84
255
153
51
255
204
102
255
204
102
255
204
102
255
174
76
255
204
102
255
204
153
255
204
51
255
204
102
255
204
102
255
204
102
0
0
0
0
0
0
0
0
0
0
0
0
0
0
0
0
0
0
0
0
0
0
0
0
0
0
0
0
0
0
0
0
0
0
0
0
0
0
0
0
0
0
0
0
0
0
0
0
0
0
0
0
0
0
0
0
0
0
0
0
0
0
0
255
174
76
255
204
102
255
204
102
255
204
51
255
192
84
255
192
84
255
204
102
255
204
102
255
204
102
255
174
76
255
192
84
255
192
84
255
192
84
255
174
76
255
204
153
255
204
102
255
192
84
255
204
102
255
255
102
255
255
153
255
153
51
119
119
119
102
51
0
204
102
51
255
174
76
255
204
102
255
204
51
255
204
102
255
204
102
255
174
76
255
192
84
255
192
84
255
153
51
255
204
102
255
204
102
255
204
102
255
174
76
255
204
102
255
204
153
255
204
51
255
204
102
255
204
102
255
204
102
255
204
102
255
174
76
255
192
84
255
192
84
255
174
76
255
204
102
255
204
102
255
174
76
255
204
102
255
204
153
255
204
102
255
204
102
255
174
76
255
204
102
255
204
102
255
204
102
255
192
84
255
192
84
255
204
102
255
204
102
255
204
102
255
174
76
255
204
102
255
204
102
255
204
51
255
192
84
255
192
84
255
204
102
255
204
102
255
204
102
255
174
76
255
192
84
255
192
84
255
192
84
255
174
76
255
204
153
255
204
102
255
192
84
255
204
102
255
255
102
255
255
153
255
153
51
119
119
119
102
51
0
204
102
51
255
174
76
255
204
102
255
204
51
255
204
102
255
204
102
255
174
76
255
192
84
255
192
84
255
153
51
255
204
102
255
204
102
255
204
102
255
174
76
255
204
102
255
204
153
255
204
51
255
204
102
255
204
102
255
204
102
255
204
102
255
174
76
255
192
84
255
192
84
255
174
76
255
204
102
255
204
102
255
174
76
255
204
102
255
204
153
255
204
102
255
204
102
255
204
102
255
174
76
255
204
102
255
204
102
255
192
84
255
192
84
255
204
102
255
204
102
255
204
102
255
174
76
255
204
102
255
204
102
255
204
51
255
192
84
255
192
84
255
204
102
255
204
102
255
204
102
255
174
76
255
192
84
255
192
84
255
192
84
255
174
76
255
204
153
255
204
102
255
192
84
255
204
102
255
255
102
255
255
153
255
153
51
119
119
119
102
51
0
204
102
51
255
174
76
255
204
102
255
204
51
255
204
102
255
204
102
255
174
76
255
192
84
255
192
84
255
153
51
255
204
102
255
204
102
255
204
102
255
174
76
255
204
102
255
204
153
255
204
51
255
204
102
255
204
102
255
204
102
255
204
102
255
174
76
255
192
84
255
192
84
255
174
76
255
204
102
255
204
102
255
174
76
255
204
102
255
204
153
255
204
102
255
204
102
255
204
102
255
174
76
255
204
102
255
204
102
255
192
84
255
192
84
255
204
102
255
204
102
255
204
102
255
174
76
255
204
102
255
204
102
255
204
51
255
192
84
255
192
84
255
204
102
255
204
102
255
204
102
255
174
76
255
192
84
255
192
84
255
192
84
255
174
76
255
204
153
255
204
102
255
192
84
255
204
102
255
255
102
255
255
153
255
153
51
119
119
119
102
51
0
204
102
51
255
174
76
255
204
102
255
204
51
255
204
102
255
204
102
255
174
76
255
192
84
255
192
84
255
153
51
255
204
102
255
204
102
255
204
102
255
174
76
255
204
102
255
204
153
255
204
51
255
204
102
255
204
102
255
204
102
255
204
102
255
174
76
255
192
84
255
192
84
255
174
76
255
204
102
255
204
102
255
174
76
255
204
102
255
204
153
255
204
102
255
204
102
255
204
102
255
174
76
255
204
102
255
204
102
255
192
84
255
192
84
255
204
102
255
204
102
255
204
102
255
174
76
255
204
102
255
204
102
255
204
51
255
192
84
255
192
84
255
204
102
255
204
102
255
204
102
255
174
76
255
192
84
255
192
84
255
192
84
255
174
76
255
204
153
255
204
102
255
192
84
255
204
102
255
255
102
255
255
153
255
153
51
119
119
119
102
51
0
204
102
51
255
174
76
255
204
102
255
204
51
255
204
102
255
204
102
255
174
76
255
192
84
255
192
84
255
153
51
255
204
102
255
204
102
255
204
102
255
174
76
255
204
102
255
204
153
255
204
51
255
204
102
255
204
102
255
204
102
255
204
102
255
174
76
255
192
84
255
192
84
255
174
76
255
204
102
255
204
102
255
174
76
255
204
102
255
204
153
255
204
102
255
204
102
255
204
102
255
174
76
255
204
102
255
204
102
255
192
84
255
192
84
255
204
102
255
204
102
255
204
102
255
174
76
255
204
102
255
204
102
255
204
51
255
192
84
255
192
84
255
204
102
255
204
102
255
204
102
255
174
76
255
192
84
255
192
84
255
192
84
255
174
76
255
204
153
255
204
102
255
192
84
255
204
102
255
255
102
255
255
153
255
153
51
119
119
119
102
51
0
204
102
51
255
174
76
255
204
102
255
204
51
255
204
102
255
204
102
255
174
76
255
192
84
255
192
84
255
153
51
255
204
102
255
204
102
255
204
102
255
174
76
255
204
102
255
204
153
255
204
51
255
204
102
255
204
102
255
204
102
255
204
102
255
174
76
255
192
84
255
174
76
255
204
102
255
204
102
255
204
102
255
174
76
255
204
102
255
204
102
255
204
102
255
204
102
255
204
102
255
174
76
255
204
102
255
204
102
255
192
84
255
204
153
255
204
102
255
204
102
255
174
76
255
204
102
255
204
102
255
204
102
255
204
51
255
192
84
255
192
84
255
204
102
255
204
102
255
204
102
255
174
76
255
192
84
255
192
84
255
192
84
255
174
76
255
204
153
255
204
102
255
192
84
255
204
102
255
255
102
255
255
153
255
153
51
119
119
119
102
51
0
204
102
51
255
174
76
255
204
102
255
204
51
255
204
102
255
204
102
255
174
76
255
192
84
255
192
84
255
153
51
255
204
102
255
204
102
255
204
102
255
174
76
255
204
102
255
204
153
255
204
51
255
204
102
255
204
102
255
204
102
255
174
76
255
192
84
255
192
84
255
174
76
255
204
102
255
204
102
255
204
102
255
174
76
255
204
102
255
204
102
255
204
102
255
204
102
255
204
102
255
174
76
255
204
102
255
204
102
255
192
84
255
204
153
255
204
102
255
204
102
255
204
102
255
174
76
255
204
102
255
204
102
255
204
51
255
192
84
255
192
84
255
204
153
255
204
102
255
204
102
255
174
76
255
192
84
255
192
84
255
192
84
255
174
76
255
204
153
255
204
102
255
192
84
255
204
102
255
255
102
255
255
153
255
153
51
119
119
119
102
51
0
204
102
51
255
174
76
255
204
102
255
204
51
255
204
102
255
204
102
255
174
76
255
192
84
255
192
84
255
153
51
255
204
102
255
204
102
255
204
102
255
174
76
255
204
102
255
204
153
255
204
51
255
204
102
255
204
102
255
204
102
255
174
76
255
192
84
255
192
84
255
174
76
255
204
102
255
204
102
255
204
102
255
174
76
255
204
102
255
204
102
255
204
102
255
204
102
255
204
102
255
174
76
255
204
102
255
204
102
255
192
84
255
192
84
255
204
102
255
204
102
255
204
102
255
174
76
255
204
102
255
204
102
255
204
51
255
192
84
255
192
84
255
204
153
255
204
102
255
204
102
255
174
76
255
192
84
255
192
84
255
192
84
255
174
76
255
204
153
255
204
102
255
192
84
255
204
102
255
255
102
255
255
153
255
153
51
119
119
119
102
51
0
204
102
51
255
174
76
255
204
102
255
204
51
255
204
102
255
204
102
255
174
76
255
192
84
255
192
84
255
153
51
255
204
102
255
204
102
255
204
102
255
174
76
255
204
102
255
204
153
255
204
51
255
204
102
255
204
102
255
204
102
255
174
76
255
192
84
255
192
84
255
174
76
255
204
102
255
204
102
255
204
102
255
174
76
255
204
102
255
204
102
255
204
102
255
204
102
255
174
76
255
204
102
255
204
102
255
204
102
255
204
102
255
192
84
255
192
84
255
204
102
255
204
102
255
174
76
255
204
102
255
204
102
255
204
51
255
192
84
255
192
84
255
204
153
255
204
102
255
204
102
255
174
76
255
192
84
255
192
84
255
192
84
255
174
76
255
204
153
255
204
102
255
192
84
255
204
102
255
255
102
255
255
153
255
153
51
119
119
119
102
51
0
204
102
51
255
174
76
255
204
102
255
204
51
255
204
102
255
204
102
255
174
76
255
192
84
255
192
84
255
153
51
255
204
102
255
204
102
255
174
76
255
204
102
255
204
102
255
204
153
255
204
51
255
204
102
255
204
102
255
204
102
255
174
76
255
192
84
255
192
84
255
174
76
255
204
102
255
204
102
255
204
102
255
174
76
255
204
102
255
204
102
255
204
102
255
174
76
255
204
102
255
204
102
255
174
76
255
204
102
255
204
102
255
192
84
255
192
84
255
204
102
255
204
102
255
174
76
255
204
102
255
204
102
255
204
51
255
192
84
255
192
84
255
204
153
255
204
102
255
204
102
255
174
76
255
192
84
255
192
84
255
192
84
255
174
76
255
204
153
255
204
102
255
192
84
255
204
102
255
255
102
255
255
153
255
153
51
119
119
119
102
51
0
204
102
51
255
174
76
255
204
102
255
204
51
255
204
102
255
204
102
255
174
76
255
192
84
255
192
84
255
153
51
255
204
102
255
204
102
255
174
76
255
204
102
255
204
102
255
204
153
255
204
51
255
204
102
255
204
102
255
204
102
255
174
76
255
192
84
255
192
84
255
174
76
255
204
102
255
204
102
255
204
102
255
174
76
255
204
102
255
204
102
255
204
102
255
174
76
255
204
102
255
204
102
255
174
76
255
174
76
255
204
102
255
192
84
255
192
84
255
204
102
255
204
102
255
174
76
255
204
102
255
204
102
255
204
51
255
192
84
255
192
84
255
204
153
255
204
102
255
204
102
255
174
76
255
192
84
255
192
84
255
192
84
255
174
76
255
204
153
255
204
102
255
192
84
255
204
102
255
255
102
255
255
153
255
153
51
119
119
119
102
51
0
204
102
51
255
174
76
255
204
102
255
204
51
255
204
102
255
204
102
255
174
76
255
192
84
255
192
84
255
153
51
255
204
102
255
204
102
255
174
76
255
204
102
255
204
102
255
204
153
255
204
51
255
204
102
255
204
102
255
204
102
255
174
76
255
192
84
255
192
84
255
174
76
255
204
102
255
204
102
255
204
102
255
174
76
255
204
102
255
204
102
255
204
102
255
174
76
255
204
102
255
204
102
255
174
76
255
174
76
255
204
102
255
192
84
255
192
84
255
204
102
255
204
102
255
174
76
255
204
102
255
204
102
255
204
51
255
192
84
255
192
84
255
204
153
255
204
102
255
204
102
255
174
76
255
192
84
255
192
84
255
192
84
255
174
76
255
204
153
255
204
102
255
192
84
255
204
102
255
255
102
255
255
153
255
153
51
119
119
119
102
51
0
204
102
51
255
174
76
255
204
102
255
204
51
255
204
102
255
204
102
255
174
76
255
192
84
255
192
84
255
153
51
255
204
102
255
204
102
255
174
76
255
204
102
255
204
102
255
204
153
255
204
51
255
204
102
255
204
102
255
204
102
255
204
102
255
174
76
255
192
84
255
174
76
255
204
102
255
204
102
255
204
102
255
174
76
255
204
102
255
204
102
255
174
76
255
204
102
255
204
102
255
174
76
255
204
102
255
174
76
255
204
102
255
192
84
255
192
84
255
204
102
255
204
102
255
174
76
255
204
102
255
204
102
255
204
51
255
192
84
255
192
84
255
204
153
255
204
102
255
204
102
255
174
76
255
192
84
255
192
84
255
192
84
255
174
76
255
204
153
255
204
102
255
192
84
255
204
102
255
255
102
255
255
153
255
153
51
119
119
119
