P3
# CREATOR: GIMP PNM Filter Version 1.1
80 16
255
255
255
255
255
255
255
255
255
255
255
255
255
255
255
255
255
255
255
255
255
255
255
255
255
255
255
255
255
255
255
255
255
255
255
255
255
255
255
255
255
255
255
255
255
255
255
255
255
255
255
255
255
255
255
255
255
255
255
255
255
255
255
255
255
255
255
255
255
255
255
255
255
255
255
255
255
255
255
255
255
255
255
255
255
255
255
255
255
255
255
255
255
255
255
255
255
255
255
255
255
255
255
255
255
255
255
255
255
255
255
255
255
255
255
255
255
255
255
255
255
255
255
255
255
255
255
255
255
255
255
255
255
255
255
255
255
255
255
255
255
255
255
255
255
255
255
255
255
255
255
255
255
255
255
255
255
255
255
255
255
255
255
255
255
255
255
255
255
255
255
255
255
255
255
255
255
255
255
255
255
255
255
255
255
255
255
251
251
251
255
255
255
255
255
255
255
255
255
255
255
255
255
255
255
255
255
255
255
255
255
255
255
255
255
255
255
255
255
255
255
255
255
255
255
255
255
255
255
255
255
255
255
255
255
255
255
255
255
255
255
255
255
255
255
255
255
255
255
255
255
255
255
255
255
255
197
197
197
220
220
220
255
255
255
255
255
255
255
255
255
255
255
255
255
255
255
153
153
153
234
234
234
255
255
255
255
255
255
255
255
255
255
255
255
255
255
255
176
176
176
192
192
192
255
255
255
255
255
255
255
255
255
255
255
255
247
247
247
171
171
171
255
255
255
255
255
255
255
255
255
255
255
255
255
255
255
255
255
255
255
255
255
255
255
255
255
255
255
252
252
252
111
111
111
234
234
234
255
255
255
255
255
255
255
255
255
255
255
255
255
255
255
255
255
255
255
255
255
255
255
255
255
255
255
255
255
255
142
142
142
199
199
199
255
255
255
255
255
255
255
255
255
255
255
255
255
255
255
255
255
255
255
255
255
255
255
255
255
255
255
255
255
255
255
255
255
121
121
121
51
51
51
163
163
163
253
253
253
255
255
255
255
255
255
255
255
255
255
255
255
255
255
255
255
255
255
255
255
255
255
255
255
255
255
255
255
255
255
255
255
255
255
255
255
255
255
255
255
255
255
255
255
255
255
255
255
255
255
255
255
255
255
255
255
255
61
61
61
141
141
141
255
255
255
255
255
255
255
255
255
255
255
255
255
255
255
24
24
24
203
203
203
255
255
255
255
255
255
255
255
255
255
255
255
255
255
255
79
79
79
115
115
115
255
255
255
255
255
255
255
255
255
220
220
220
216
216
216
50
50
50
147
147
147
255
255
255
255
255
255
255
255
255
250
250
250
202
202
202
255
255
255
255
255
255
255
255
255
220
220
220
2
2
2
242
242
242
255
255
255
255
255
255
255
255
255
255
255
255
255
255
255
255
255
255
255
255
255
255
255
255
255
255
255
255
255
255
30
30
30
178
178
178
255
255
255
255
255
255
255
255
255
255
255
255
255
255
255
255
255
255
255
255
255
255
255
255
255
255
255
255
255
255
255
255
255
244
244
244
145
145
145
25
25
25
47
47
47
212
212
212
255
255
255
255
255
255
255
255
255
255
255
255
255
255
255
255
255
255
255
255
255
255
255
255
255
255
255
255
255
255
255
255
255
255
255
255
255
255
255
255
255
255
255
255
255
255
255
255
255
255
255
250
250
250
8
8
8
203
203
203
255
255
255
255
255
255
255
255
255
255
255
255
255
255
255
30
30
30
199
199
199
245
245
245
224
224
224
255
255
255
255
255
255
255
255
255
79
79
79
115
115
115
255
255
255
255
255
255
255
255
255
147
147
147
46
46
46
217
217
217
82
82
82
251
251
251
255
255
255
255
255
255
190
190
190
34
34
34
255
255
255
255
255
255
234
234
234
130
130
130
20
20
20
195
195
195
244
244
244
255
255
255
255
255
255
255
255
255
255
255
255
255
255
255
255
255
255
255
255
255
255
255
255
232
232
232
1
1
1
233
233
233
255
255
255
255
255
255
230
230
230
105
105
105
247
247
247
255
255
255
255
255
255
255
255
255
255
255
255
255
255
255
181
181
181
228
228
228
255
255
255
241
241
241
115
115
115
233
233
233
255
255
255
255
255
255
255
255
255
255
255
255
255
255
255
255
255
255
255
255
255
255
255
255
255
255
255
255
255
255
255
255
255
255
255
255
255
255
255
255
255
255
255
255
255
255
255
255
255
255
255
209
209
209
6
6
6
250
250
250
255
255
255
122
122
122
60
60
60
69
69
69
65
65
65
8
8
8
20
20
20
2
2
2
91
91
91
255
255
255
255
255
255
255
255
255
79
79
79
115
115
115
255
255
255
255
255
255
255
255
255
255
255
255
90
90
90
163
163
163
255
255
255
255
255
255
255
255
255
255
255
255
247
247
247
9
9
9
167
167
167
68
68
68
39
39
39
29
29
29
52
52
52
61
61
61
14
14
14
136
136
136
253
253
253
255
255
255
255
255
255
255
255
255
254
254
254
228
228
228
193
193
193
118
118
118
12
12
12
122
122
122
151
151
151
244
244
244
246
246
246
48
48
48
95
95
95
255
255
255
255
255
255
255
255
255
255
255
255
255
255
255
31
31
31
179
179
179
255
255
255
255
255
255
255
255
255
255
255
255
255
255
255
255
255
255
255
255
255
255
255
255
255
255
255
255
255
255
255
255
255
255
255
255
255
255
255
255
255
255
255
255
255
255
255
255
255
255
255
255
255
255
255
255
255
255
255
255
255
255
255
166
166
166
48
48
48
255
255
255
255
255
255
211
211
211
178
178
178
173
173
173
178
178
178
30
30
30
158
158
158
240
240
240
255
255
255
255
255
255
255
255
255
255
255
255
79
79
79
115
115
115
255
255
255
255
255
255
255
255
255
255
255
255
252
252
252
255
255
255
255
255
255
255
255
255
255
255
255
255
255
255
255
255
255
51
51
51
32
32
32
183
183
183
253
253
253
25
25
25
199
199
199
255
255
255
211
211
211
39
39
39
108
108
108
255
255
255
255
255
255
255
255
255
92
92
92
11
11
11
53
53
53
23
23
23
66
66
66
135
135
135
63
63
63
61
61
61
255
255
255
221
221
221
17
17
17
152
152
152
255
255
255
255
255
255
255
255
255
242
242
242
1
1
1
229
229
229
255
255
255
255
255
255
255
255
255
255
255
255
255
255
255
255
255
255
255
255
255
255
255
255
255
255
255
255
255
255
255
255
255
255
255
255
255
255
255
255
255
255
255
255
255
255
255
255
255
255
255
255
255
255
255
255
255
255
255
255
255
255
255
134
134
134
83
83
83
255
255
255
255
255
255
255
255
255
255
255
255
255
255
255
255
255
255
46
46
46
187
187
187
255
255
255
255
255
255
255
255
255
255
255
255
255
255
255
79
79
79
115
115
115
255
255
255
255
255
255
255
255
255
255
255
255
255
255
255
255
255
255
255
255
255
255
255
255
255
255
255
255
255
255
128
128
128
25
25
25
51
51
51
255
255
255
188
188
188
37
37
37
255
255
255
255
255
255
255
255
255
210
210
210
1
1
1
219
219
219
255
255
255
255
255
255
241
241
241
253
253
253
252
252
252
23
23
23
191
191
191
255
255
255
236
236
236
0
0
0
221
221
221
255
255
255
160
160
160
16
16
16
235
235
235
255
255
255
255
255
255
198
198
198
19
19
19
255
255
255
255
255
255
251
251
251
207
207
207
187
187
187
212
212
212
255
255
255
255
255
255
255
255
255
255
255
255
255
255
255
255
255
255
255
255
255
255
255
255
255
255
255
255
255
255
255
255
255
255
255
255
255
255
255
255
255
255
255
255
255
255
255
255
114
114
114
107
107
107
255
255
255
255
255
255
255
255
255
255
255
255
255
255
255
255
255
255
52
52
52
183
183
183
255
255
255
255
255
255
255
255
255
255
255
255
255
255
255
79
79
79
115
115
115
255
255
255
255
255
255
255
255
255
255
255
255
255
255
255
255
255
255
255
255
255
255
255
255
255
255
255
202
202
202
28
28
28
232
232
232
27
27
27
204
204
204
73
73
73
140
140
140
255
255
255
255
255
255
255
255
255
255
255
255
31
31
31
163
163
163
255
255
255
255
255
255
255
255
255
255
255
255
182
182
182
26
26
26
253
253
253
255
255
255
255
255
255
11
11
11
196
196
196
255
255
255
253
253
253
45
45
45
101
101
101
255
255
255
255
255
255
161
161
161
55
55
55
238
238
238
118
118
118
20
20
20
50
50
50
70
70
70
27
27
27
47
47
47
219
219
219
255
255
255
255
255
255
255
255
255
255
255
255
255
255
255
255
255
255
255
255
255
255
255
255
255
255
255
255
255
255
255
255
255
255
255
255
255
255
255
255
255
255
107
107
107
117
117
117
172
172
172
221
221
221
255
255
255
255
255
255
255
255
255
255
255
255
58
58
58
180
180
180
255
255
255
255
255
255
255
255
255
255
255
255
255
255
255
79
79
79
115
115
115
255
255
255
255
255
255
255
255
255
255
255
255
255
255
255
255
255
255
252
252
252
255
255
255
255
255
255
93
93
93
144
144
144
255
255
255
138
138
138
49
49
49
26
26
26
246
246
246
255
255
255
255
255
255
255
255
255
255
255
255
28
28
28
165
165
165
255
255
255
255
255
255
255
255
255
255
255
255
84
84
84
121
121
121
255
255
255
255
255
255
255
255
255
5
5
5
203
203
203
255
255
255
255
255
255
183
183
183
143
143
143
255
255
255
255
255
255
131
131
131
43
43
43
29
29
29
104
104
104
228
228
228
255
255
255
255
255
255
251
251
251
85
85
85
64
64
64
255
255
255
255
255
255
255
255
255
255
255
255
255
255
255
255
255
255
255
255
255
255
255
255
255
255
255
255
255
255
255
255
255
255
255
255
255
255
255
255
255
255
117
117
117
103
103
103
33
33
33
232
232
232
229
229
229
88
88
88
31
31
31
36
36
36
15
15
15
136
136
136
253
253
253
255
255
255
255
255
255
255
255
255
255
255
255
79
79
79
115
115
115
255
255
255
255
255
255
255
255
255
255
255
255
255
255
255
202
202
202
67
67
67
254
254
254
255
255
255
43
43
43
203
203
203
255
255
255
235
235
235
2
2
2
133
133
133
255
255
255
255
255
255
255
255
255
255
255
255
215
215
215
0
0
0
214
214
214
255
255
255
255
255
255
255
255
255
226
226
226
7
7
7
226
226
226
255
255
255
255
255
255
234
234
234
0
0
0
228
228
228
255
255
255
255
255
255
255
255
255
255
255
255
255
255
255
255
255
255
102
102
102
10
10
10
179
179
179
255
255
255
255
255
255
255
255
255
255
255
255
255
255
255
168
168
168
20
20
20
255
255
255
255
255
255
255
255
255
255
255
255
255
255
255
255
255
255
255
255
255
255
255
255
255
255
255
255
255
255
255
255
255
255
255
255
255
255
255
255
255
255
134
134
134
11
11
11
103
103
103
255
255
255
76
76
76
126
126
126
235
235
235
220
220
220
49
49
49
14
14
14
36
36
36
174
174
174
255
255
255
255
255
255
255
255
255
96
96
96
101
101
101
255
255
255
255
255
255
255
255
255
255
255
255
239
239
239
44
44
44
106
106
106
255
255
255
255
255
255
53
53
53
185
185
185
249
249
249
87
87
87
30
30
30
43
43
43
254
254
254
255
255
255
255
255
255
243
243
243
59
59
59
72
72
72
255
255
255
255
255
255
255
255
255
255
255
255
104
104
104
83
83
83
255
255
255
255
255
255
255
255
255
180
180
180
21
21
21
254
254
254
255
255
255
255
255
255
255
255
255
255
255
255
255
255
255
255
255
255
237
237
237
216
216
216
255
255
255
255
255
255
255
255
255
255
255
255
255
255
255
255
255
255
96
96
96
65
65
65
255
255
255
255
255
255
255
255
255
255
255
255
255
255
255
255
255
255
255
255
255
255
255
255
255
255
255
255
255
255
255
255
255
255
255
255
255
255
255
255
255
255
166
166
166
0
0
0
194
194
194
255
255
255
68
68
68
116
116
116
247
247
247
244
244
244
34
34
34
187
187
187
150
150
150
14
14
14
198
198
198
255
255
255
255
255
255
143
143
143
33
33
33
241
241
241
255
255
255
255
255
255
210
210
210
51
51
51
64
64
64
244
244
244
255
255
255
255
255
255
143
143
143
23
23
23
30
30
30
65
65
65
241
241
241
203
203
203
255
255
255
238
238
238
157
157
157
34
34
34
50
50
50
234
234
234
255
255
255
255
255
255
255
255
255
215
215
215
7
7
7
207
207
207
197
197
197
157
157
157
227
227
227
70
70
70
98
98
98
255
255
255
255
255
255
255
255
255
255
255
255
255
255
255
255
255
255
255
255
255
255
255
255
255
255
255
255
255
255
255
255
255
255
255
255
254
254
254
205
205
205
92
92
92
11
11
11
202
202
202
255
255
255
255
255
255
255
255
255
255
255
255
255
255
255
255
255
255
255
255
255
255
255
255
255
255
255
255
255
255
255
255
255
255
255
255
255
255
255
255
255
255
203
203
203
0
0
0
240
240
240
255
255
255
214
214
214
65
65
65
12
12
12
7
7
7
71
71
71
248
248
248
255
255
255
236
236
236
255
255
255
255
255
255
255
255
255
246
246
246
51
51
51
23
23
23
73
73
73
48
48
48
5
5
5
105
105
105
248
248
248
255
255
255
255
255
255
255
255
255
255
255
255
172
172
172
174
174
174
252
252
252
255
255
255
255
255
255
113
113
113
2
2
2
38
38
38
143
143
143
248
248
248
255
255
255
255
255
255
255
255
255
255
255
255
152
152
152
93
93
93
255
255
255
209
209
209
41
41
41
0
0
0
24
24
24
219
219
219
255
255
255
255
255
255
255
255
255
255
255
255
255
255
255
255
255
255
255
255
255
255
255
255
255
255
255
234
234
234
88
88
88
67
67
67
26
26
26
4
4
4
82
82
82
218
218
218
255
255
255
255
255
255
255
255
255
255
255
255
255
255
255
255
255
255
255
255
255
255
255
255
255
255
255
255
255
255
255
255
255
255
255
255
255
255
255
255
255
255
255
255
255
252
252
252
240
240
240
255
255
255
255
255
255
255
255
255
255
255
255
255
255
255
253
253
253
255
255
255
255
255
255
255
255
255
255
255
255
255
255
255
255
255
255
255
255
255
255
255
255
252
252
252
181
181
181
144
144
144
158
158
158
226
226
226
255
255
255
255
255
255
255
255
255
255
255
255
255
255
255
255
255
255
255
255
255
255
255
255
255
255
255
255
255
255
255
255
255
235
235
235
220
220
220
255
255
255
255
255
255
255
255
255
255
255
255
255
255
255
255
255
255
255
255
255
255
255
255
253
253
253
255
255
255
255
255
255
255
255
255
236
236
236
249
249
249
255
255
255
255
255
255
255
255
255
255
255
255
255
255
255
255
255
255
255
255
255
255
255
255
255
255
255
255
255
255
255
255
255
135
135
135
142
142
142
183
183
183
240
240
240
255
255
255
255
255
255
255
255
255
255
255
255
255
255
255
255
255
255
255
255
255
255
255
255
255
255
255
255
255
255
255
255
255
255
255
255
255
255
255
255
255
255
255
255
255
255
255
255
0
0
0
0
0
0
0
0
0
0
0
0
0
0
0
0
0
0
0
0
0
0
0
0
0
0
0
0
0
0
0
0
0
0
0
0
0
0
0
0
0
0
0
0
0
0
0
0
0
0
0
0
0
0
0
0
0
0
0
0
0
0
0
0
0
0
0
0
0
0
0
0
0
0
0
0
0
0
0
0
0
0
0
0
0
0
0
0
0
0
0
0
0
0
0
0
0
0
0
0
0
0
0
0
0
0
0
0
0
0
0
0
0
0
0
0
0
0
0
0
0
0
0
0
0
0
0
0
0
0
0
0
0
0
0
0
0
0
0
0
0
0
0
0
0
0
0
0
0
0
0
0
0
0
0
0
0
0
0
0
0
0
0
0
0
0
0
0
0
0
0
0
0
0
0
0
0
0
0
0
0
0
0
0
0
0
0
0
0
0
0
0
0
0
0
0
0
0
0
0
0
0
0
0
255
255
255
255
255
255
255
255
255
255
255
255
255
255
255
255
255
255
255
255
255
255
255
255
255
255
255
255
255
255
255
255
255
255
255
255
255
255
255
255
255
255
255
255
255
255
255
255
255
255
255
255
255
255
255
255
255
255
255
255
255
255
255
255
255
255
255
255
255
255
255
255
255
255
255
255
255
255
255
255
255
255
255
255
255
255
255
255
255
255
255
255
255
255
255
255
255
255
255
255
255
255
255
255
255
255
255
255
255
255
255
255
255
255
255
255
255
255
255
255
255
255
255
255
255
255
255
255
255
255
255
255
255
255
255
255
255
255
255
255
255
255
255
255
255
255
255
255
255
255
255
255
255
255
255
255
255
255
255
255
255
255
255
255
255
255
255
255
255
255
255
255
255
255
255
255
255
255
255
255
255
255
255
255
255
255
255
255
255
255
255
255
255
255
255
255
255
255
255
255
255
255
255
255
255
255
255
255
255
255
255
255
255
255
255
255
255
255
255
255
255
255
255
255
255
255
255
255
255
255
255
255
255
255
255
255
255
255
255
255
255
255
255
255
255
255
255
255
255
255
255
255
255
255
255
255
255
255
255
255
255
255
255
255
255
255
255
