P3
# CREATOR: GIMP PNM Filter Version 1.1
64 64
255
102
51
0
204
102
51
255
174
76
255
204
102
255
204
51
255
204
102
255
204
102
255
174
76
255
192
84
255
192
84
255
153
51
255
204
102
255
204
102
255
204
102
255
174
76
255
204
102
255
204
153
255
204
51
255
204
102
255
204
102
255
204
102
255
204
102
255
174
76
255
192
84
255
174
76
255
204
102
255
204
102
255
204
102
255
174
76
255
204
102
255
204
102
255
204
102
255
204
102
255
204
102
255
174
76
255
204
102
255
204
102
255
192
84
255
204
153
255
204
102
255
204
102
255
174
76
255
204
102
255
204
102
255
204
102
255
204
51
255
192
84
255
192
84
255
204
102
255
204
102
255
204
102
255
174
76
255
192
84
255
192
84
255
192
84
255
174
76
255
204
153
255
204
102
255
192
84
255
204
102
255
255
102
255
255
153
255
153
51
119
119
119
102
51
0
204
102
51
255
174
76
255
204
102
255
204
51
255
204
102
255
204
102
255
174
76
255
192
84
255
192
84
255
153
51
255
204
102
255
204
102
255
204
102
255
174
76
255
204
102
255
204
153
255
204
51
255
204
102
255
204
102
255
204
102
255
174
76
255
192
84
255
192
84
255
174
76
255
204
102
255
204
102
255
204
102
255
174
76
255
204
102
255
204
102
255
204
102
255
204
102
255
204
102
255
174
76
255
204
102
255
204
102
255
192
84
255
204
153
255
204
102
255
204
102
255
204
102
255
174
76
255
204
102
255
204
102
255
204
51
255
192
84
255
192
84
255
204
153
255
204
102
255
204
102
255
174
76
255
192
84
255
192
84
255
192
84
255
174
76
255
204
153
255
204
102
255
192
84
255
204
102
255
255
102
255
255
153
255
153
51
119
119
119
102
51
0
204
102
51
255
174
76
255
204
102
255
204
51
255
204
102
255
204
102
255
174
76
255
192
84
255
192
84
255
153
51
255
204
102
255
204
102
255
204
102
255
174
76
255
204
102
255
204
153
255
204
51
255
204
102
255
204
102
255
204
102
255
174
76
255
192
84
255
192
84
255
174
76
255
204
102
255
204
102
255
204
102
255
174
76
255
204
102
255
204
102
255
204
102
255
204
102
255
204
102
255
174
76
255
204
102
255
204
102
255
192
84
255
192
84
255
204
102
255
204
102
255
204
102
255
174
76
255
204
102
255
204
102
255
204
51
255
192
84
255
192
84
255
204
153
255
204
102
255
204
102
255
174
76
255
192
84
255
192
84
255
192
84
255
174
76
255
204
153
255
204
102
255
192
84
255
204
102
255
255
102
255
255
153
255
153
51
119
119
119
102
51
0
204
102
51
255
174
76
255
204
102
255
204
51
255
204
102
255
204
102
255
174
76
255
192
84
255
192
84
255
153
51
255
204
102
255
204
102
255
204
102
255
174
76
255
204
102
255
204
153
255
204
51
255
204
102
255
204
102
255
204
102
255
174
76
255
192
84
255
192
84
255
174
76
255
204
102
255
204
102
255
204
102
255
174
76
255
204
102
255
204
102
255
204
102
255
204
102
255
174
76
255
204
102
255
204
102
255
204
102
255
204
102
255
192
84
255
192
84
255
204
102
255
204
102
255
174
76
255
204
102
255
204
102
255
204
51
255
192
84
255
192
84
255
204
153
255
204
102
255
204
102
255
174
76
255
192
84
255
192
84
255
192
84
255
174
76
255
204
153
255
204
102
255
192
84
255
204
102
255
255
102
255
255
153
255
153
51
119
119
119
102
51
0
204
102
51
255
174
76
255
204
102
255
204
51
255
204
102
255
204
102
255
174
76
255
192
84
255
192
84
255
153
51
255
204
102
255
204
102
255
174
76
255
204
102
255
204
102
255
204
153
255
204
51
255
204
102
255
204
102
255
204
102
255
174
76
255
192
84
255
192
84
255
174
76
255
204
102
255
204
102
255
204
102
255
174
76
255
204
102
255
204
102
255
204
102
255
174
76
255
204
102
255
204
102
255
174
76
255
204
102
255
204
102
255
192
84
255
192
84
255
204
102
255
204
102
255
174
76
255
204
102
255
204
102
255
204
51
255
192
84
255
192
84
255
204
153
255
204
102
255
204
102
255
174
76
255
192
84
255
192
84
255
192
84
255
174
76
255
204
153
255
204
102
255
192
84
255
204
102
255
255
102
255
255
153
255
153
51
119
119
119
102
51
0
204
102
51
255
174
76
255
204
102
255
204
51
255
204
102
255
204
102
255
174
76
255
192
84
255
192
84
255
153
51
255
204
102
255
204
102
255
174
76
255
204
102
255
204
102
255
204
153
255
204
51
255
204
102
255
204
102
255
204
102
255
174
76
255
192
84
255
192
84
255
174
76
255
204
102
255
204
102
255
204
102
255
174
76
255
204
102
255
204
102
255
204
102
255
174
76
255
204
102
255
204
102
255
174
76
255
174
76
255
204
102
255
192
84
255
192
84
255
204
102
255
204
102
255
174
76
255
204
102
255
204
102
255
204
51
255
192
84
255
192
84
255
204
153
255
204
102
255
204
102
255
174
76
255
192
84
255
192
84
255
192
84
255
174
76
255
204
153
255
204
102
255
192
84
255
204
102
255
255
102
255
255
153
255
153
51
119
119
119
102
51
0
204
102
51
255
174
76
255
204
102
255
204
51
255
204
102
255
204
102
255
174
76
255
192
84
255
192
84
255
153
51
255
204
102
255
204
102
255
174
76
255
204
102
255
204
102
255
204
153
255
204
51
255
204
102
255
204
102
255
204
102
255
174
76
255
192
84
255
192
84
255
174
76
255
204
102
255
204
102
255
204
102
255
174
76
255
204
102
255
204
102
255
204
102
255
174
76
255
204
102
255
204
102
255
174
76
255
174
76
255
204
102
255
192
84
255
192
84
255
204
102
255
204
102
255
174
76
255
204
102
255
204
102
255
204
51
255
192
84
255
192
84
255
204
153
255
204
102
255
204
102
255
174
76
255
192
84
255
192
84
255
192
84
255
174
76
255
204
153
255
204
102
255
192
84
255
204
102
255
255
102
255
255
153
255
153
51
119
119
119
102
51
0
204
102
51
255
174
76
255
204
102
255
204
51
255
204
102
255
204
102
255
174
76
255
192
84
255
192
84
255
153
51
255
204
102
255
204
102
255
174
76
255
204
102
255
204
102
255
204
153
255
204
51
255
204
102
255
204
102
255
204
102
255
204
102
255
174
76
255
192
84
255
174
76
255
204
102
255
204
102
255
204
102
255
174
76
255
204
102
255
204
102
255
174
76
255
204
102
255
204
102
255
174
76
255
204
102
255
174
76
255
204
102
255
192
84
255
192
84
255
204
102
255
204
102
255
174
76
255
204
102
255
204
102
255
204
51
255
192
84
255
192
84
255
204
153
255
204
102
255
204
102
255
174
76
255
192
84
255
192
84
255
192
84
255
174
76
255
204
153
255
204
102
255
192
84
255
204
102
255
255
102
255
255
153
255
153
51
119
119
119
102
51
0
204
102
51
255
174
76
255
204
102
255
204
51
255
204
102
255
204
102
255
174
76
255
192
84
255
192
84
255
153
51
255
204
102
255
204
102
255
174
76
255
204
102
255
204
102
255
204
153
255
204
51
255
204
102
255
204
102
255
204
102
255
204
102
255
174
76
255
192
84
255
174
76
255
204
102
255
204
102
255
204
102
255
174
76
255
204
102
255
204
102
255
174
76
255
204
102
255
204
102
255
174
76
255
204
102
255
174
76
255
204
102
255
204
153
255
192
84
255
204
102
255
204
102
255
174
76
255
204
102
255
204
102
255
204
51
255
192
84
255
192
84
255
204
153
255
204
102
255
204
102
255
174
76
255
192
84
255
192
84
255
192
84
255
174
76
255
204
153
255
204
102
255
192
84
255
204
102
255
255
102
255
255
153
255
153
51
119
119
119
102
51
0
204
102
51
255
174
76
255
204
102
255
204
51
255
204
102
255
204
102
255
174
76
255
192
84
255
192
84
255
153
51
255
204
102
255
204
102
255
174
76
255
204
102
255
204
102
255
204
153
255
204
51
255
204
102
255
204
102
255
204
102
255
204
102
255
174
76
255
192
84
255
174
76
255
204
102
255
204
102
255
204
102
255
174
76
255
204
102
255
174
76
255
204
102
255
204
102
255
204
102
255
174
76
255
204
51
255
174
76
255
204
102
255
204
102
255
192
84
255
204
102
255
204
102
255
174
76
255
204
102
255
204
102
255
204
51
255
192
84
255
192
84
255
204
153
255
204
102
255
204
102
255
174
76
255
192
84
255
192
84
255
192
84
255
174
76
255
204
153
255
204
102
255
192
84
255
204
102
255
255
102
255
255
153
255
153
51
119
119
119
102
51
0
204
102
51
255
174
76
255
204
102
255
204
51
255
204
102
255
204
102
255
174
76
255
192
84
255
192
84
255
153
51
255
204
102
255
204
102
255
174
76
255
204
102
255
204
102
255
204
153
255
204
51
255
204
102
255
204
102
255
204
102
255
204
102
255
174
76
255
192
84
255
174
76
255
204
102
255
204
102
255
204
102
255
174
76
255
204
102
255
174
76
255
204
102
255
204
102
255
204
102
255
174
76
255
204
51
255
204
102
255
174
76
255
204
102
255
192
84
255
204
153
255
204
102
255
174
76
255
204
102
255
204
102
255
204
51
255
192
84
255
192
84
255
204
153
255
204
102
255
204
102
255
174
76
255
192
84
255
192
84
255
192
84
255
174
76
255
204
153
255
204
102
255
192
84
255
204
102
255
255
102
255
255
153
255
153
51
119
119
119
102
51
0
204
102
51
255
174
76
255
204
102
255
204
51
255
204
102
255
204
102
255
174
76
255
192
84
255
192
84
255
153
51
255
204
102
255
204
102
255
174
76
255
204
102
255
204
102
255
204
153
255
204
51
255
204
102
255
204
102
255
204
102
255
204
102
255
174
76
255
192
84
255
174
76
255
204
102
255
204
102
255
204
102
255
174
76
255
204
102
255
174
76
255
204
102
255
204
102
255
153
51
255
204
102
255
204
51
255
204
102
255
174
76
255
204
102
255
192
84
255
192
84
255
204
102
255
174
76
255
204
102
255
204
102
255
204
51
255
192
84
255
192
84
255
204
153
255
204
102
255
204
102
255
174
76
255
192
84
255
192
84
255
192
84
255
174
76
255
204
153
255
204
102
255
192
84
255
204
102
255
255
102
255
255
153
255
153
51
119
119
119
102
51
0
204
102
51
255
174
76
255
204
102
255
204
51
255
204
102
255
204
102
255
174
76
255
192
84
255
192
84
255
153
51
255
204
102
255
204
102
255
174
76
255
204
102
255
204
102
255
204
153
255
204
51
255
204
102
255
204
102
255
204
102
255
204
102
255
174
76
255
192
84
255
174
76
255
204
102
255
204
102
255
204
102
255
174
76
255
204
102
255
174
76
255
204
102
255
204
102
255
153
51
255
204
102
255
204
51
255
204
102
255
174
76
255
204
102
255
192
84
255
192
84
255
204
102
255
174
76
255
204
102
255
204
102
255
204
51
255
192
84
255
192
84
255
204
153
255
204
102
255
204
102
255
174
76
255
192
84
255
192
84
255
192
84
255
174
76
255
204
153
255
204
102
255
192
84
255
204
102
255
255
102
255
255
153
255
153
51
119
119
119
102
51
0
204
102
51
255
174
76
255
204
102
255
204
51
255
204
102
255
204
102
255
174
76
255
192
84
255
192
84
255
153
51
255
204
102
255
204
102
255
174
76
255
204
102
255
204
102
255
204
153
255
204
51
255
204
102
255
204
102
255
204
102
255
204
102
255
174
76
255
192
84
255
174
76
255
204
102
255
204
102
255
204
102
255
174
76
255
204
102
255
174
76
255
204
102
255
204
102
255
153
51
255
204
102
255
204
51
255
204
102
255
174
76
255
204
102
255
204
102
255
192
84
255
204
102
255
174
76
255
204
102
255
204
102
255
204
51
255
192
84
255
192
84
255
204
153
255
204
102
255
204
102
255
174
76
255
192
84
255
192
84
255
192
84
255
174
76
255
204
153
255
204
102
255
192
84
255
204
102
255
255
102
255
255
153
255
153
51
119
119
119
102
51
0
204
102
51
255
174
76
255
204
102
255
204
51
255
204
102
255
204
102
255
174
76
255
192
84
255
192
84
255
153
51
255
204
102
255
204
102
255
174
76
255
204
102
255
204
102
255
204
153
255
204
51
255
204
102
255
204
102
255
204
102
255
204
102
255
174
76
255
192
84
255
174
76
255
204
102
255
204
102
255
204
102
255
174
76
255
204
102
255
174
76
255
204
102
255
204
102
255
153
51
255
204
102
255
204
102
255
204
102
255
204
102
255
153
51
255
204
102
255
192
84
255
204
102
255
174
76
255
204
102
255
204
102
255
204
51
255
192
84
255
192
84
255
204
153
255
204
102
255
204
102
255
174
76
255
192
84
255
192
84
255
192
84
255
174
76
255
204
153
255
204
102
255
192
84
255
204
102
255
255
102
255
255
153
255
153
51
119
119
119
102
51
0
204
102
51
255
174
76
255
204
102
255
204
51
255
204
102
255
204
102
255
174
76
255
192
84
255
192
84
255
153
51
255
204
102
255
204
102
255
174
76
255
204
102
255
204
102
255
204
153
255
204
51
255
204
102
255
204
102
255
204
102
255
204
102
255
174
76
255
192
84
255
174
76
255
204
102
255
204
102
255
204
102
255
174
76
255
204
102
255
174
76
255
204
102
255
204
102
255
153
51
255
204
102
255
153
51
255
204
51
255
204
102
255
153
51
255
204
102
255
192
84
255
204
102
255
174
76
255
204
102
255
204
102
255
204
51
255
192
84
255
192
84
255
204
153
255
204
102
255
204
102
255
174
76
255
192
84
255
192
84
255
192
84
255
174
76
255
204
153
255
204
102
255
192
84
255
204
102
255
255
102
255
255
153
255
153
51
119
119
119
102
51
0
204
102
51
255
174
76
255
204
102
255
204
51
255
204
102
255
204
102
255
174
76
255
192
84
255
192
84
255
153
51
255
204
102
255
204
102
255
174
76
255
204
102
255
204
102
255
204
153
255
204
51
255
204
102
255
204
102
255
204
102
255
204
102
255
174
76
255
192
84
255
174
76
255
204
102
255
204
102
255
204
102
255
174
76
255
204
102
255
174
76
255
204
102
255
153
51
255
204
51
255
204
102
255
153
51
255
153
51
255
204
102
255
153
51
255
204
102
255
192
84
255
204
102
255
174
76
255
204
102
255
204
102
255
204
51
255
192
84
255
192
84
255
204
153
255
204
102
255
204
102
255
174
76
255
192
84
255
192
84
255
192
84
255
174
76
255
204
153
255
204
102
255
192
84
255
204
102
255
255
102
255
255
153
255
153
51
119
119
119
102
51
0
204
102
51
255
174
76
255
204
102
255
204
51
255
204
102
255
204
102
255
174
76
255
192
84
255
192
84
255
153
51
255
204
102
255
204
102
255
174
76
255
204
102
255
204
102
255
204
153
255
204
51
255
204
102
255
204
102
255
204
102
255
204
102
255
174
76
255
192
84
255
174
76
255
204
102
255
204
102
255
204
102
255
174
76
255
204
102
255
174
76
255
204
102
255
153
51
255
204
102
255
153
51
255
153
51
255
102
0
255
153
51
255
204
102
255
153
51
255
204
102
255
204
153
255
174
76
255
204
102
255
204
102
255
204
51
255
192
84
255
192
84
255
204
153
255
204
102
255
204
102
255
174
76
255
192
84
255
192
84
255
192
84
255
174
76
255
204
153
255
204
102
255
192
84
255
204
102
255
255
102
255
255
153
255
153
51
119
119
119
102
51
0
204
102
51
255
174
76
255
204
102
255
204
51
255
204
102
255
204
102
255
174
76
255
192
84
255
192
84
255
153
51
255
204
102
255
204
102
255
174
76
255
204
102
255
204
102
255
204
153
255
204
51
255
204
102
255
204
102
255
204
102
255
204
102
255
174
76
255
192
84
255
174
76
255
204
102
255
204
102
255
204
102
255
174
76
255
204
102
255
174
76
255
204
102
255
153
51
255
204
102
255
153
0
255
102
0
255
153
51
255
153
51
255
204
102
255
153
51
255
204
102
255
204
153
255
204
102
255
174
76
255
204
102
255
204
51
255
192
84
255
192
84
255
204
153
255
204
102
255
204
102
255
204
102
255
174
76
255
192
84
255
192
84
255
174
76
255
204
153
255
204
102
255
192
84
255
204
102
255
255
102
255
255
153
255
153
51
119
119
119
102
51
0
204
102
51
255
174
76
255
204
102
255
204
51
255
204
102
255
204
102
255
174
76
255
192
84
255
192
84
255
153
51
255
204
102
255
204
102
255
174
76
255
204
102
255
204
102
255
204
153
255
204
51
255
204
102
255
204
102
255
204
102
255
204
102
255
174
76
255
192
84
255
174
76
255
204
102
255
204
102
255
174
76
255
204
102
255
204
102
255
174
76
255
204
102
255
153
51
255
204
102
255
153
51
255
174
76
255
153
51
255
204
102
255
204
102
255
153
51
255
204
102
255
204
153
255
204
102
255
174
76
255
204
102
255
204
51
255
192
84
255
192
84
255
204
153
255
204
102
255
204
102
255
204
102
255
174
76
255
192
84
255
192
84
255
174
76
255
204
153
255
204
102
255
192
84
255
204
102
255
255
102
255
255
153
255
153
51
119
119
119
102
51
0
204
102
51
255
174
76
255
204
102
255
204
51
255
204
102
255
204
102
255
174
76
255
192
84
255
192
84
255
153
51
255
204
102
255
204
102
255
174
76
255
204
102
255
204
102
255
204
153
255
204
51
255
204
102
255
204
102
255
204
102
255
204
102
255
174
76
255
192
84
255
174
76
255
204
102
255
204
102
255
174
76
255
204
102
255
204
102
255
174
76
255
204
102
255
153
51
255
204
102
255
153
51
255
174
76
255
153
51
255
204
102
255
204
102
255
153
51
255
204
102
255
204
153
255
204
102
255
174
76
255
204
102
255
204
51
255
192
84
255
192
84
255
204
153
255
204
102
255
204
102
255
204
102
255
174
76
255
192
84
255
192
84
255
174
76
255
204
153
255
204
102
255
192
84
255
204
102
255
255
102
255
255
153
255
153
51
119
119
119
102
51
0
204
102
51
255
174
76
255
204
102
255
204
51
255
204
102
255
204
102
255
174
76
255
192
84
255
192
84
255
153
51
255
204
102
255
204
102
255
174
76
255
204
102
255
204
102
255
204
153
255
204
51
255
204
102
255
204
102
255
204
102
255
204
102
255
174
76
255
192
84
255
192
84
255
174
76
255
204
102
255
174
76
255
204
102
255
204
102
255
174
76
255
204
102
255
153
51
255
204
102
255
153
51
255
174
76
255
153
0
255
204
102
255
204
102
255
153
51
255
204
102
255
204
153
255
204
102
255
174
76
255
204
102
255
204
51
255
192
84
255
192
84
255
204
153
255
204
102
255
204
102
255
204
102
255
174
76
255
192
84
255
192
84
255
174
76
255
204
153
255
204
102
255
192
84
255
204
102
255
255
102
255
255
153
255
153
51
119
119
119
102
51
0
204
102
51
255
174
76
255
204
102
255
204
51
255
204
102
255
204
102
255
174
76
255
192
84
255
192
84
255
153
51
255
204
102
255
204
102
255
174
76
255
204
102
255
204
102
255
204
153
255
204
51
255
204
102
255
204
102
255
204
102
255
204
102
255
174
76
255
192
84
255
192
84
255
174
76
255
204
102
255
174
76
255
204
102
255
204
102
255
174
76
255
204
102
255
153
51
255
204
102
255
153
51
255
174
76
255
153
51
255
204
102
255
204
102
255
153
51
255
204
102
255
204
153
255
204
102
255
174
76
255
204
102
255
204
51
255
192
84
255
192
84
255
204
153
255
204
102
255
204
102
255
204
102
255
174
76
255
192
84
255
192
84
255
174
76
255
204
153
255
204
102
255
192
84
255
204
102
255
255
102
255
255
153
255
153
51
119
119
119
102
51
0
204
102
51
255
174
76
255
204
102
255
204
51
255
204
102
255
204
102
255
174
76
255
192
84
255
192
84
255
153
51
255
204
102
255
204
102
255
174
76
255
204
102
255
204
102
188
150
112
71
56
14
0
0
0
0
0
0
255
204
102
255
204
102
255
174
76
255
192
84
255
192
84
255
174
76
255
204
102
255
174
76
255
204
102
255
204
102
255
174
76
255
204
102
255
153
51
255
204
102
255
153
51
255
174
76
255
153
0
255
204
102
255
153
51
255
204
102
255
204
102
255
204
153
255
204
102
255
174
76
255
204
102
255
204
51
255
192
84
255
192
84
255
204
153
255
204
102
255
204
102
255
204
102
255
174
76
255
192
84
255
192
84
255
174
76
255
204
153
255
204
102
255
192
84
255
204
102
255
255
102
255
255
153
255
153
51
119
119
119
102
51
0
204
102
51
255
174
76
255
204
102
255
204
51
255
204
102
255
204
102
255
174
76
255
192
84
255
192
84
255
153
51
255
204
102
255
204
102
222
151
66
136
108
54
37
29
14
0
0
0
0
0
0
0
0
0
0
0
0
255
204
102
255
204
102
255
174
76
255
192
84
255
192
84
255
174
76
255
204
102
255
174
76
255
204
102
255
204
102
255
174
76
255
204
102
255
153
51
255
204
102
255
153
51
255
153
51
235
141
47
134
107
53
63
37
12
23
18
9
5
4
2
15
12
9
52
41
20
122
83
36
225
180
90
255
204
51
255
192
84
255
192
84
255
204
153
255
204
102
255
204
102
255
204
102
255
174
76
255
192
84
255
192
84
255
174
76
255
204
153
255
204
102
255
192
84
255
204
102
255
255
102
255
255
153
255
153
51
119
119
119
102
51
0
204
102
51
255
174
76
255
204
102
255
204
51
255
204
102
255
204
102
255
174
76
255
192
84
255
192
84
203
121
40
126
100
50
51
40
20
0
0
0
0
0
0
0
0
0
0
0
0
0
0
0
0
0
0
0
0
0
255
204
102
255
204
102
255
174
76
255
192
84
255
192
84
255
174
76
255
204
102
255
174
76
255
204
102
255
204
102
255
174
76
255
204
102
255
204
102
255
153
51
255
204
102
146
87
29
11
8
4
0
0
0
0
0
0
0
0
0
0
0
0
0
0
0
0
0
0
0
0
0
6
4
2
135
108
27
255
192
84
255
192
84
255
204
153
255
204
102
255
204
102
255
204
102
255
174
76
255
192
84
255
192
84
255
174
76
255
204
153
255
204
102
255
192
84
255
204
102
255
255
102
255
255
153
255
153
51
119
119
119
102
51
0
204
102
51
255
174
76
255
204
102
255
204
51
255
204
102
255
204
102
255
174
76
255
192
84
255
192
84
76
45
15
0
0
0
0
0
0
0
0
0
0
0
0
2
1
0
58
46
34
0
0
0
0
0
0
0
0
0
255
204
102
255
204
102
255
174
76
255
192
84
255
192
84
255
174
76
255
204
102
255
174
76
255
204
102
255
204
102
255
174
76
255
204
102
255
204
102
254
152
50
101
80
40
0
0
0
0
0
0
0
0
0
0
0
0
0
0
0
0
0
0
0
0
0
0
0
0
0
0
0
0
0
0
0
0
0
102
76
33
255
192
84
255
204
153
255
204
102
255
204
102
255
204
102
255
174
76
255
192
84
255
192
84
255
174
76
255
204
153
255
204
102
255
192
84
255
204
102
255
255
102
255
255
153
255
153
51
119
119
119
102
51
0
204
102
51
255
174
76
255
204
102
255
204
51
255
204
102
255
204
102
255
174
76
255
192
84
255
192
84
135
81
27
0
0
0
16
12
6
78
53
23
152
121
60
231
184
92
255
204
153
0
0
0
0
0
0
0
0
0
255
204
102
255
174
76
255
192
84
255
192
84
255
192
84
255
174
76
255
204
102
255
174
76
255
204
102
255
204
102
255
174
76
255
204
102
255
204
102
135
108
54
0
0
0
0
0
0
0
0
0
37
29
14
155
93
31
225
180
90
248
198
99
224
168
73
151
120
60
33
22
9
0
0
0
0
0
0
0
0
0
144
108
47
255
204
153
255
204
102
255
204
102
255
204
102
255
174
76
255
192
84
255
192
84
255
174
76
255
204
153
255
204
102
255
192
84
255
204
102
255
255
102
255
255
153
255
153
51
119
119
119
102
51
0
204
102
51
255
174
76
255
204
102
255
204
51
255
204
102
255
204
102
255
174
76
255
192
84
255
192
84
227
136
45
205
164
82
253
202
101
255
174
76
255
204
102
255
204
102
255
204
153
0
0
0
0
0
0
0
0
0
255
204
102
255
174
76
255
192
84
255
192
84
255
192
84
255
174
76
255
204
102
255
174
76
255
204
102
255
204
102
255
174
76
255
204
102
218
174
87
5
4
2
0
0
0
0
0
0
73
58
29
243
194
97
255
153
51
255
204
102
255
204
51
255
192
84
255
204
102
241
164
71
68
54
27
0
0
0
0
0
0
8
6
2
228
182
136
255
204
102
255
204
102
255
204
102
255
174
76
255
192
84
255
192
84
255
174
76
255
204
153
255
204
102
255
192
84
255
204
102
255
255
102
255
255
153
255
153
51
119
119
119
102
51
0
204
102
51
255
174
76
255
204
102
255
204
51
255
204
102
255
174
76
255
192
84
255
192
84
255
192
84
255
153
51
255
204
102
255
204
102
255
174
76
255
204
102
255
204
102
255
204
153
0
0
0
0
0
0
0
0
0
255
204
102
255
174
76
255
192
84
255
192
84
255
174
76
255
204
102
255
204
102
255
174
76
255
204
102
255
204
102
255
174
76
255
204
102
92
73
36
0
0
0
0
0
0
37
22
7
242
145
48
255
153
51
255
204
102
255
204
102
255
192
84
255
192
84
255
204
102
255
174
76
240
192
96
36
28
7
0
0
0
0
0
0
110
88
66
255
204
102
255
204
102
255
174
76
255
192
84
255
192
84
255
192
84
255
174
76
255
204
153
255
204
102
255
192
84
255
204
102
255
255
102
255
255
153
255
153
51
119
119
119
102
51
0
204
102
51
255
174
76
255
204
102
255
204
51
255
204
102
255
174
76
255
192
84
255
192
84
255
192
84
255
153
51
255
204
102
255
204
102
255
174
76
255
204
102
255
204
102
255
204
153
0
0
0
0
0
0
0
0
0
255
204
102
255
174
76
255
192
84
255
192
84
255
174
76
255
204
102
255
204
102
255
174
76
255
204
102
255
204
102
255
174
76
239
191
95
7
5
2
0
0
0
0
0
0
173
138
69
255
204
102
255
204
102
255
204
102
255
204
51
255
192
84
255
192
84
255
204
102
255
174
76
255
204
102
174
139
34
0
0
0
0
0
0
12
9
7
248
198
99
255
204
102
255
174
76
255
192
84
255
192
84
255
192
84
255
174
76
255
204
153
255
204
102
255
192
84
255
204
102
255
255
102
255
255
153
255
153
51
119
119
119
102
51
0
204
102
51
255
174
76
255
204
102
255
204
51
255
204
102
255
174
76
255
192
84
255
192
84
255
192
84
255
153
51
255
204
102
255
204
102
255
174
76
255
204
102
255
204
102
255
204
153
0
0
0
0
0
0
0
0
0
255
204
102
255
174
76
255
192
84
255
192
84
255
174
76
255
204
102
255
204
102
255
174
76
255
204
102
255
204
102
255
174
76
168
134
67
0
0
0
0
0
0
33
26
6
255
204
102
255
204
102
255
204
102
255
204
102
255
204
51
255
192
84
255
192
84
255
204
102
255
174
76
255
204
102
255
204
51
34
25
11
0
0
0
0
0
0
181
144
72
255
204
102
255
174
76
255
192
84
255
192
84
255
192
84
255
174
76
255
204
153
255
204
102
255
192
84
255
204
102
255
255
102
255
255
153
255
153
51
119
119
119
102
51
0
204
102
51
255
174
76
255
204
102
255
204
51
255
204
102
255
174
76
255
192
84
255
192
84
255
192
84
255
153
51
255
204
102
255
204
102
255
174
76
255
204
102
255
204
102
255
204
153
0
0
0
0
0
0
0
0
0
255
204
102
255
174
76
255
192
84
255
192
84
255
174
76
255
204
102
255
204
102
255
174
76
255
204
102
255
204
102
255
174
76
107
85
42
0
0
0
0
0
0
113
90
22
255
204
102
255
204
102
255
204
102
255
204
102
255
204
51
255
192
84
255
192
84
255
204
102
255
174
76
255
204
102
255
204
51
117
88
38
0
0
0
0
0
0
115
92
46
255
204
102
255
174
76
255
192
84
255
192
84
255
192
84
255
174
76
255
204
153
255
204
102
255
192
84
255
204
102
255
255
102
255
255
153
255
153
51
119
119
119
102
51
0
204
102
51
255
174
76
255
204
102
255
204
51
255
204
102
255
174
76
255
192
84
255
192
84
255
192
84
255
153
51
255
204
102
255
204
102
255
174
76
255
204
102
255
204
102
255
204
153
0
0
0
0
0
0
0
0
0
255
204
102
255
174
76
255
192
84
255
192
84
255
174
76
255
204
102
255
204
102
255
204
102
255
174
76
255
204
102
255
204
102
61
41
18
0
0
0
0
0
0
171
136
68
255
192
84
255
204
102
255
204
102
255
204
51
255
192
84
255
192
84
255
204
102
255
204
102
255
174
76
255
204
102
255
204
51
173
130
56
0
0
0
0
0
0
73
58
29
255
204
102
255
174
76
255
192
84
255
192
84
255
192
84
255
174
76
255
204
153
255
204
102
255
192
84
255
204
102
255
255
102
255
255
153
255
153
51
119
119
119
102
51
0
204
102
51
255
174
76
255
204
102
255
204
51
255
204
102
255
174
76
255
192
84
255
192
84
255
192
84
255
153
51
255
204
102
255
204
102
255
174
76
255
204
102
255
204
102
255
204
153
0
0
0
0
0
0
0
0
0
255
204
102
255
174
76
255
192
84
255
192
84
255
174
76
255
204
102
255
204
102
255
204
102
255
174
76
255
204
102
255
204
102
31
24
12
0
0
0
0
0
0
213
170
85
255
192
84
255
204
51
255
204
102
255
204
51
255
192
84
255
192
84
255
204
102
255
174
76
255
204
102
255
204
102
255
204
51
215
161
70
0
0
0
0
0
0
35
28
14
255
204
102
255
174
76
255
192
84
255
192
84
255
192
84
255
174
76
255
204
153
255
204
102
255
192
84
255
204
102
255
255
102
255
255
153
255
153
51
119
119
119
102
51
0
204
102
51
255
174
76
255
204
102
255
204
51
255
204
102
255
174
76
255
192
84
255
192
84
255
192
84
255
153
51
255
204
102
255
204
102
255
174
76
255
204
102
255
204
102
255
204
153
0
0
0
0
0
0
0
0
0
255
204
102
255
174
76
255
192
84
255
192
84
255
174
76
255
204
102
255
204
102
255
204
102
255
174
76
255
204
102
255
204
102
11
8
4
0
0
0
0
0
0
236
188
94
255
192
84
255
192
84
255
204
102
255
192
84
255
192
84
255
204
102
255
204
102
255
174
76
255
204
102
255
204
102
255
204
51
236
177
77
0
0
0
0
0
0
20
16
8
255
204
102
255
174
76
255
192
84
255
192
84
255
192
84
255
174
76
255
204
153
255
204
102
255
192
84
255
204
102
255
255
102
255
255
153
255
153
51
119
119
119
102
51
0
204
102
51
255
174
76
255
204
102
255
204
51
255
204
102
255
174
76
255
192
84
255
192
84
255
192
84
255
153
51
255
204
102
255
204
102
255
174
76
255
204
102
255
204
102
255
204
153
0
0
0
0
0
0
0
0
0
255
204
102
255
174
76
255
192
84
255
192
84
255
174
76
255
204
102
255
204
102
255
204
102
255
174
76
255
204
102
255
204
102
3
2
1
0
0
0
0
0
0
249
199
99
255
192
84
255
192
84
255
192
84
255
192
84
255
192
84
255
204
102
255
204
102
255
174
76
255
204
102
255
204
102
255
204
51
250
188
82
0
0
0
0
0
0
7
5
2
255
204
102
255
174
76
255
192
84
255
192
84
255
192
84
255
174
76
255
204
153
255
204
102
255
192
84
255
204
102
255
255
102
255
255
153
255
153
51
119
119
119
102
51
0
204
102
51
255
174
76
255
204
102
255
204
51
255
204
102
255
174
76
255
192
84
255
192
84
255
192
84
255
153
51
255
204
102
255
204
102
255
174
76
255
204
102
255
204
102
255
204
153
0
0
0
0
0
0
0
0
0
255
204
102
255
174
76
255
192
84
255
192
84
255
174
76
255
204
102
255
204
102
255
204
102
255
174
76
255
204
102
255
204
102
5
4
2
0
0
0
0
0
0
250
200
100
255
204
102
255
192
84
255
192
84
255
192
84
255
192
84
255
204
102
255
204
102
255
174
76
255
204
102
255
204
102
255
204
51
248
186
81
0
0
0
0
0
0
6
4
2
255
204
102
255
174
76
255
192
84
255
192
84
255
192
84
255
174
76
255
204
153
255
204
102
255
192
84
255
204
102
255
255
102
255
255
153
255
153
51
119
119
119
102
51
0
204
102
51
255
174
76
255
204
102
255
204
51
255
204
102
255
174
76
255
192
84
255
192
84
255
192
84
255
153
51
255
204
102
255
204
102
255
174
76
255
204
102
255
204
102
255
204
153
0
0
0
0
0
0
0
0
0
255
204
102
255
174
76
255
192
84
255
192
84
255
174
76
255
204
102
255
204
102
255
204
102
255
174
76
255
204
102
255
204
102
18
14
7
0
0
0
0
0
0
238
190
95
255
204
102
255
192
84
255
192
84
255
204
102
255
192
84
255
204
102
255
204
102
255
174
76
255
204
102
255
204
102
255
204
51
238
179
78
0
0
0
0
0
0
19
15
7
255
204
102
255
174
76
255
192
84
255
192
84
255
192
84
255
174
76
255
204
153
255
204
102
255
192
84
255
204
102
255
255
102
255
255
153
255
153
51
119
119
119
102
51
0
204
102
51
255
174
76
255
204
102
255
204
51
255
204
102
255
174
76
255
192
84
255
192
84
255
192
84
255
153
51
255
204
102
255
204
102
255
174
76
255
204
102
255
204
102
255
204
153
0
0
0
0
0
0
0
0
0
255
204
102
255
174
76
255
192
84
255
192
84
255
174
76
255
204
102
255
204
102
255
204
102
255
174
76
255
204
102
255
204
102
34
27
13
0
0
0
0
0
0
218
174
87
255
204
102
255
192
84
255
192
84
255
192
84
255
192
84
255
204
102
255
204
102
255
174
76
255
204
102
255
204
102
255
204
51
213
160
70
0
0
0
0
0
0
35
28
14
255
204
102
255
174
76
255
192
84
255
192
84
255
192
84
255
174
76
255
204
153
255
204
102
255
192
84
255
204
102
255
255
102
255
255
153
255
153
51
119
119
119
102
51
0
204
102
51
255
174
76
255
204
102
255
204
51
255
204
102
255
174
76
255
192
84
255
192
84
255
192
84
255
153
51
255
204
102
255
204
102
255
174
76
255
204
102
255
204
102
255
204
153
0
0
0
0
0
0
0
0
0
255
204
102
255
174
76
255
192
84
255
192
84
255
174
76
255
204
102
255
204
102
255
204
102
255
174
76
255
204
102
255
204
102
71
56
28
0
0
0
0
0
0
176
140
70
255
204
102
255
192
84
255
192
84
255
192
84
255
204
102
255
204
102
255
204
102
255
174
76
255
204
102
255
204
102
255
204
51
177
133
58
0
0
0
0
0
0
72
57
28
255
204
102
255
174
76
255
192
84
255
192
84
255
192
84
255
174
76
255
204
153
255
204
102
255
192
84
255
204
102
255
255
102
255
255
153
255
153
51
119
119
119
102
51
0
204
102
51
255
174
76
255
204
102
255
204
51
255
204
102
255
174
76
255
192
84
255
192
84
255
192
84
255
153
51
255
204
102
255
204
102
255
174
76
255
204
102
255
204
102
255
204
153
0
0
0
0
0
0
0
0
0
255
204
102
255
174
76
255
192
84
255
192
84
255
174
76
255
204
102
255
204
102
255
204
102
255
174
76
255
204
102
255
204
153
114
91
45
0
0
0
0
0
0
122
97
48
255
204
102
255
192
84
255
192
84
255
192
84
255
204
102
255
204
102
255
204
102
255
174
76
255
204
102
255
204
102
255
204
51
120
90
39
0
0
0
0
0
0
115
92
46
255
204
102
255
174
76
255
192
84
255
192
84
255
192
84
255
174
76
255
204
153
255
204
102
255
192
84
255
204
102
255
255
102
255
255
153
255
153
51
119
119
119
102
51
0
204
102
51
255
174
76
255
204
102
255
204
51
255
204
102
255
174
76
255
192
84
255
192
84
255
192
84
255
153
51
255
204
102
255
204
102
255
174
76
255
204
102
255
204
102
255
204
153
0
0
0
0
0
0
0
0
0
255
204
102
255
174
76
255
192
84
255
192
84
255
174
76
255
204
102
255
204
102
255
204
102
255
174
76
255
204
102
255
204
153
179
143
71
0
0
0
0
0
0
42
33
16
255
204
102
255
204
102
255
192
84
255
192
84
255
204
102
255
204
102
255
204
102
255
174
76
255
204
102
255
204
102
255
204
51
41
30
13
0
0
0
0
0
0
180
144
72
255
204
102
255
174
76
255
192
84
255
192
84
255
192
84
255
174
76
255
204
153
255
204
102
255
192
84
255
204
102
255
255
102
255
255
153
255
153
51
119
119
119
102
51
0
204
102
51
255
174
76
255
204
102
255
204
51
255
204
102
255
174
76
255
192
84
255
192
84
255
192
84
255
153
51
255
204
102
255
204
102
255
174
76
255
204
102
255
204
102
255
204
153
0
0
0
0
0
0
0
0
0
255
204
102
255
174
76
255
192
84
255
192
84
255
174
76
255
204
102
255
204
102
255
204
102
255
174
76
255
204
102
255
204
153
247
197
98
10
8
4
0
0
0
0
0
0
188
150
75
255
204
102
255
192
84
255
192
84
255
204
102
255
204
102
255
204
102
255
174
76
255
204
102
255
204
102
187
149
37
0
0
0
0
0
0
11
8
4
247
197
98
255
204
102
255
174
76
255
192
84
255
192
84
255
192
84
255
174
76
255
204
153
255
204
102
255
192
84
255
204
102
255
255
102
255
255
153
255
153
51
119
119
119
102
51
0
204
102
51
255
174
76
255
204
102
255
204
51
255
204
102
255
204
102
255
174
76
255
192
84
255
192
84
255
153
51
255
204
102
255
204
102
255
174
76
255
204
102
255
204
102
255
204
153
0
0
0
0
0
0
0
0
0
255
204
102
255
174
76
255
192
84
255
192
84
255
174
76
255
204
102
255
204
102
255
204
102
255
174
76
255
204
102
255
204
153
255
204
102
104
83
41
0
0
0
0
0
0
48
38
19
247
197
98
255
192
84
255
192
84
255
204
102
255
204
102
255
204
102
255
174
76
255
204
102
249
199
99
39
31
7
0
0
0
0
0
0
106
84
42
255
204
102
255
204
102
255
174
76
255
192
84
255
192
84
255
192
84
255
174
76
255
204
153
255
204
102
255
192
84
255
204
102
255
255
102
255
255
153
255
153
51
119
119
119
102
51
0
204
102
51
255
174
76
255
204
102
255
204
51
255
204
102
255
204
102
255
174
76
255
192
84
255
192
84
255
153
51
255
204
102
255
204
102
255
174
76
255
204
102
255
204
102
255
204
153
0
0
0
0
0
0
0
0
0
255
204
102
255
174
76
255
192
84
255
192
84
255
174
76
255
204
102
255
204
102
255
204
102
255
174
76
255
204
102
255
204
153
255
204
102
224
179
89
6
4
1
0
0
0
0
0
0
83
66
33
246
185
81
255
192
84
255
204
102
255
204
102
255
204
102
255
174
76
246
196
98
74
59
29
0
0
0
0
0
0
6
4
1
224
179
89
255
204
102
255
204
102
255
174
76
255
192
84
255
192
84
255
192
84
255
174
76
255
204
153
255
204
102
255
192
84
255
204
102
255
255
102
255
255
153
255
153
51
119
119
119
102
51
0
204
102
51
255
174
76
255
204
102
255
204
51
255
204
102
255
204
102
255
174
76
255
192
84
255
192
84
255
153
51
255
204
102
255
204
102
255
204
102
255
174
76
255
204
102
255
204
153
0
0
0
0
0
0
0
0
0
255
204
102
255
174
76
255
192
84
255
192
84
255
174
76
255
204
102
255
204
102
255
204
102
255
174
76
255
204
102
255
204
153
255
204
102
255
204
102
132
90
39
0
0
0
0
0
0
0
0
0
41
30
13
159
119
52
227
181
90
248
198
99
221
176
88
157
107
46
38
30
15
0
0
0
0
0
0
0
0
0
133
100
43
255
204
102
255
204
102
255
204
102
255
174
76
255
192
84
255
192
84
255
192
84
255
174
76
255
204
153
255
204
102
255
192
84
255
204
102
255
255
102
255
255
153
255
153
51
119
119
119
102
51
0
204
102
51
255
174
76
255
204
102
255
204
51
255
204
102
255
204
102
255
174
76
255
192
84
255
192
84
255
153
51
255
204
102
255
204
102
255
204
102
255
174
76
255
204
102
255
204
153
0
0
0
0
0
0
0
0
0
255
204
102
255
204
102
255
174
76
255
192
84
255
192
84
255
174
76
255
204
102
255
204
102
255
174
76
255
204
102
255
204
153
255
204
102
255
204
102
254
173
75
90
72
36
0
0
0
0
0
0
0
0
0
0
0
0
0
0
0
0
0
0
0
0
0
0
0
0
0
0
0
0
0
0
0
0
0
92
69
30
254
191
83
255
204
102
255
204
102
255
204
102
255
174
76
255
192
84
255
192
84
255
192
84
255
174
76
255
204
153
255
204
102
255
192
84
255
204
102
255
255
102
255
255
153
255
153
51
119
119
119
102
51
0
204
102
51
255
174
76
255
204
102
255
204
51
255
204
102
255
204
102
255
174
76
255
192
84
255
192
84
255
153
51
255
204
102
255
204
102
255
204
102
255
174
76
255
204
102
255
204
153
0
0
0
0
0
0
0
0
0
255
204
102
255
204
102
255
174
76
255
192
84
255
192
84
255
174
76
255
204
102
255
204
102
255
174
76
255
204
102
255
204
153
255
204
102
255
204
102
255
174
76
253
202
101
126
100
50
5
4
2
0
0
0
0
0
0
0
0
0
0
0
0
0
0
0
0
0
0
0
0
0
5
4
2
128
102
25
254
191
83
255
192
84
255
204
102
255
204
102
255
204
102
255
174
76
255
192
84
255
192
84
255
192
84
255
174
76
255
204
153
255
204
102
255
192
84
255
204
102
255
255
102
255
255
153
255
153
51
119
119
119
102
51
0
204
102
51
255
174
76
255
204
102
255
204
51
255
204
102
255
204
102
255
174
76
255
192
84
255
192
84
255
153
51
255
204
102
255
204
102
255
204
102
255
174
76
255
204
102
255
204
153
0
0
0
0
0
0
0
0
0
255
204
102
255
204
102
255
174
76
255
192
84
255
192
84
255
174
76
255
204
102
255
204
102
255
174
76
255
204
102
255
204
153
255
204
102
255
204
102
255
174
76
255
204
102
255
204
102
223
178
89
120
90
39
52
39
17
14
11
5
2
1
0
14
11
5
53
36
15
122
97
48
224
179
89
255
204
51
255
192
84
255
192
84
255
204
102
255
204
102
255
204
102
255
174
76
255
192
84
255
192
84
255
192
84
255
174
76
255
204
153
255
204
102
255
192
84
255
204
102
255
255
102
255
255
153
255
153
51
119
119
119
102
51
0
204
102
51
255
174
76
255
204
102
255
204
51
255
204
102
255
204
102
255
174
76
255
192
84
255
192
84
255
153
51
255
204
102
255
204
102
255
204
102
255
174
76
255
204
102
255
204
153
255
204
51
255
204
102
255
204
102
255
204
102
255
204
102
255
174
76
255
192
84
255
192
84
255
174
76
255
204
102
255
204
102
255
174
76
255
204
102
255
204
153
255
204
102
255
204
102
255
174
76
255
204
102
255
204
102
255
204
102
255
192
84
255
192
84
255
204
102
255
204
102
255
204
102
255
174
76
255
204
102
255
204
102
255
204
51
255
192
84
255
192
84
255
204
102
255
204
102
255
204
102
255
174
76
255
192
84
255
192
84
255
192
84
255
174
76
255
204
153
255
204
102
255
192
84
255
204
102
255
255
102
255
255
153
255
153
51
119
119
119
102
51
0
204
102
51
255
174
76
255
204
102
255
204
51
255
204
102
255
204
102
255
174
76
255
192
84
255
192
84
255
153
51
255
204
102
255
204
102
255
204
102
255
174
76
255
204
102
255
204
153
255
204
51
255
204
102
255
204
102
255
204
102
255
204
102
255
174
76
255
192
84
255
192
84
255
174
76
255
204
102
255
204
102
255
174
76
255
204
102
255
204
153
255
204
102
255
204
102
255
174
76
255
204
102
255
204
102
255
204
102
255
192
84
255
192
84
255
204
102
255
204
102
255
204
102
255
174
76
255
204
102
255
204
102
255
204
51
255
192
84
255
192
84
255
204
102
255
204
102
255
204
102
255
174
76
255
192
84
255
192
84
255
192
84
255
174
76
255
204
153
255
204
102
255
192
84
255
204
102
255
255
102
255
255
153
255
153
51
119
119
119
102
51
0
204
102
51
255
174
76
255
204
102
255
204
51
255
204
102
255
204
102
255
174
76
255
192
84
255
192
84
255
153
51
255
204
102
255
204
102
255
204
102
255
174
76
255
204
102
255
204
153
255
204
51
255
204
102
255
204
102
255
204
102
255
204
102
255
174
76
255
192
84
255
192
84
255
174
76
255
204
102
255
204
102
255
174
76
255
204
102
255
204
153
255
204
102
255
204
102
255
204
102
255
174
76
255
204
102
255
204
102
255
192
84
255
192
84
255
204
102
255
204
102
255
204
102
255
174
76
255
204
102
255
204
102
255
204
51
255
192
84
255
192
84
255
204
102
255
204
102
255
204
102
255
174
76
255
192
84
255
192
84
255
192
84
255
174
76
255
204
153
255
204
102
255
192
84
255
204
102
255
255
102
255
255
153
255
153
51
119
119
119
102
51
0
204
102
51
255
174
76
255
204
102
255
204
51
255
204
102
255
204
102
255
174
76
255
192
84
255
192
84
255
153
51
255
204
102
255
204
102
255
204
102
255
174
76
255
204
102
255
204
153
255
204
51
255
204
102
255
204
102
255
204
102
255
204
102
255
174
76
255
192
84
255
192
84
255
174
76
255
204
102
255
204
102
255
174
76
255
204
102
255
204
153
255
204
102
255
204
102
255
204
102
255
174
76
255
204
102
255
204
102
255
192
84
255
192
84
255
204
102
255
204
102
255
204
102
255
174
76
255
204
102
255
204
102
255
204
51
255
192
84
255
192
84
255
204
102
255
204
102
255
204
102
255
174
76
255
192
84
255
192
84
255
192
84
255
174
76
255
204
153
255
204
102
255
192
84
255
204
102
255
255
102
255
255
153
255
153
51
119
119
119
102
51
0
204
102
51
255
174
76
255
204
102
255
204
51
255
204
102
255
204
102
255
174
76
255
192
84
255
192
84
255
153
51
255
204
102
255
204
102
255
204
102
255
174
76
255
204
102
255
204
153
255
204
51
255
204
102
255
204
102
255
204
102
255
204
102
255
174
76
255
192
84
255
192
84
255
174
76
255
204
102
255
204
102
255
174
76
255
204
102
255
204
153
255
204
102
255
204
102
255
204
102
255
174
76
255
204
102
255
204
102
255
192
84
255
192
84
255
204
102
255
204
102
255
204
102
255
174
76
255
204
102
255
204
102
255
204
51
255
192
84
255
192
84
255
204
102
255
204
102
255
204
102
255
174
76
255
192
84
255
192
84
255
192
84
255
174
76
255
204
153
255
204
102
255
192
84
255
204
102
255
255
102
255
255
153
255
153
51
119
119
119
102
51
0
204
102
51
255
174
76
255
204
102
255
204
51
255
204
102
255
204
102
255
174
76
255
192
84
255
192
84
255
153
51
255
204
102
255
204
102
255
204
102
255
174
76
255
204
102
255
204
153
255
204
51
255
204
102
255
204
102
255
204
102
255
204
102
255
174
76
255
192
84
255
192
84
255
174
76
255
204
102
255
204
102
255
174
76
255
204
102
255
204
153
255
204
102
255
204
102
255
204
102
255
174
76
255
204
102
255
204
102
255
192
84
255
192
84
255
204
102
255
204
102
255
204
102
255
174
76
255
204
102
255
204
102
255
204
51
255
192
84
255
192
84
255
204
102
255
204
102
255
204
102
255
174
76
255
192
84
255
192
84
255
192
84
255
174
76
255
204
153
255
204
102
255
192
84
255
204
102
255
255
102
255
255
153
255
153
51
119
119
119
102
51
0
204
102
51
255
174
76
255
204
102
255
204
51
255
204
102
255
204
102
255
174
76
255
192
84
255
192
84
255
153
51
255
204
102
255
204
102
255
204
102
255
174
76
255
204
102
255
204
153
255
204
51
255
204
102
255
204
102
255
204
102
255
204
102
255
174
76
255
192
84
255
174
76
255
204
102
255
204
102
255
204
102
255
174
76
255
204
102
255
204
102
255
204
102
255
204
102
255
204
102
255
174
76
255
204
102
255
204
102
255
192
84
255
204
153
255
204
102
255
204
102
255
174
76
255
204
102
255
204
102
255
204
102
255
204
51
255
192
84
255
192
84
255
204
102
255
204
102
255
204
102
255
174
76
255
192
84
255
192
84
255
192
84
255
174
76
255
204
153
255
204
102
255
192
84
255
204
102
255
255
102
255
255
153
255
153
51
119
119
119
102
51
0
204
102
51
255
174
76
255
204
102
255
204
51
255
204
102
255
204
102
255
174
76
255
192
84
255
192
84
255
153
51
255
204
102
255
204
102
255
204
102
255
174
76
255
204
102
255
204
153
255
204
51
255
204
102
255
204
102
255
204
102
255
174
76
255
192
84
255
192
84
255
174
76
255
204
102
255
204
102
255
204
102
255
174
76
255
204
102
255
204
102
255
204
102
255
204
102
255
204
102
255
174
76
255
204
102
255
204
102
255
192
84
255
204
153
255
204
102
255
204
102
255
204
102
255
174
76
255
204
102
255
204
102
255
204
51
255
192
84
255
192
84
255
204
153
255
204
102
255
204
102
255
174
76
255
192
84
255
192
84
255
192
84
255
174
76
255
204
153
255
204
102
255
192
84
255
204
102
255
255
102
255
255
153
255
153
51
119
119
119
102
51
0
204
102
51
255
174
76
255
204
102
255
204
51
255
204
102
255
204
102
255
174
76
255
192
84
255
192
84
255
153
51
255
204
102
255
204
102
255
204
102
255
174
76
255
204
102
255
204
153
255
204
51
255
204
102
255
204
102
255
204
102
255
174
76
255
192
84
255
192
84
255
174
76
255
204
102
255
204
102
255
204
102
255
174
76
255
204
102
255
204
102
255
204
102
255
204
102
255
204
102
255
174
76
255
204
102
255
204
102
255
192
84
255
192
84
255
204
102
255
204
102
255
204
102
255
174
76
255
204
102
255
204
102
255
204
51
255
192
84
255
192
84
255
204
153
255
204
102
255
204
102
255
174
76
255
192
84
255
192
84
255
192
84
255
174
76
255
204
153
255
204
102
255
192
84
255
204
102
255
255
102
255
255
153
255
153
51
119
119
119
102
51
0
204
102
51
255
174
76
255
204
102
255
204
51
255
204
102
255
204
102
255
174
76
255
192
84
255
192
84
255
153
51
255
204
102
255
204
102
255
204
102
255
174
76
255
204
102
255
204
153
255
204
51
255
204
102
255
204
102
255
204
102
255
174
76
255
192
84
255
192
84
255
174
76
255
204
102
255
204
102
255
204
102
255
174
76
255
204
102
255
204
102
255
204
102
255
204
102
255
174
76
255
204
102
255
204
102
255
204
102
255
204
102
255
192
84
255
192
84
255
204
102
255
204
102
255
174
76
255
204
102
255
204
102
255
204
51
255
192
84
255
192
84
255
204
153
255
204
102
255
204
102
255
174
76
255
192
84
255
192
84
255
192
84
255
174
76
255
204
153
255
204
102
255
192
84
255
204
102
255
255
102
255
255
153
255
153
51
119
119
119
102
51
0
204
102
51
255
174
76
255
204
102
255
204
51
255
204
102
255
204
102
255
174
76
255
192
84
255
192
84
255
153
51
255
204
102
255
204
102
255
174
76
255
204
102
255
204
102
255
204
153
255
204
51
255
204
102
255
204
102
255
204
102
255
174
76
255
192
84
255
192
84
255
174
76
255
204
102
255
204
102
255
204
102
255
174
76
255
204
102
255
204
102
255
204
102
255
174
76
255
204
102
255
204
102
255
174
76
255
204
102
255
204
102
255
192
84
255
192
84
255
204
102
255
204
102
255
174
76
255
204
102
255
204
102
255
204
51
255
192
84
255
192
84
255
204
153
255
204
102
255
204
102
255
174
76
255
192
84
255
192
84
255
192
84
255
174
76
255
204
153
255
204
102
255
192
84
255
204
102
255
255
102
255
255
153
255
153
51
119
119
119
102
51
0
204
102
51
255
174
76
255
204
102
255
204
51
255
204
102
255
204
102
255
174
76
255
192
84
255
192
84
255
153
51
255
204
102
255
204
102
255
174
76
255
204
102
255
204
102
255
204
153
255
204
51
255
204
102
255
204
102
255
204
102
255
174
76
255
192
84
255
192
84
255
174
76
255
204
102
255
204
102
255
204
102
255
174
76
255
204
102
255
204
102
255
204
102
255
174
76
255
204
102
255
204
102
255
174
76
255
174
76
255
204
102
255
192
84
255
192
84
255
204
102
255
204
102
255
174
76
255
204
102
255
204
102
255
204
51
255
192
84
255
192
84
255
204
153
255
204
102
255
204
102
255
174
76
255
192
84
255
192
84
255
192
84
255
174
76
255
204
153
255
204
102
255
192
84
255
204
102
255
255
102
255
255
153
255
153
51
119
119
119
102
51
0
204
102
51
255
174
76
255
204
102
255
204
51
255
204
102
255
204
102
255
174
76
255
192
84
255
192
84
255
153
51
255
204
102
255
204
102
255
174
76
255
204
102
255
204
102
255
204
153
255
204
51
255
204
102
255
204
102
255
204
102
255
174
76
255
192
84
255
192
84
255
174
76
255
204
102
255
204
102
255
204
102
255
174
76
255
204
102
255
204
102
255
204
102
255
174
76
255
204
102
255
204
102
255
174
76
255
174
76
255
204
102
255
192
84
255
192
84
255
204
102
255
204
102
255
174
76
255
204
102
255
204
102
255
204
51
255
192
84
255
192
84
255
204
153
255
204
102
255
204
102
255
174
76
255
192
84
255
192
84
255
192
84
255
174
76
255
204
153
255
204
102
255
192
84
255
204
102
255
255
102
255
255
153
255
153
51
119
119
119
102
51
0
204
102
51
255
174
76
255
204
102
255
204
51
255
204
102
255
204
102
255
174
76
255
192
84
255
192
84
255
153
51
255
204
102
255
204
102
255
174
76
255
204
102
255
204
102
255
204
153
255
204
51
255
204
102
255
204
102
255
204
102
255
204
102
255
174
76
255
192
84
255
174
76
255
204
102
255
204
102
255
204
102
255
174
76
255
204
102
255
204
102
255
174
76
255
204
102
255
204
102
255
174
76
255
204
102
255
174
76
255
204
102
255
192
84
255
192
84
255
204
102
255
204
102
255
174
76
255
204
102
255
204
102
255
204
51
255
192
84
255
192
84
255
204
153
255
204
102
255
204
102
255
174
76
255
192
84
255
192
84
255
192
84
255
174
76
255
204
153
255
204
102
255
192
84
255
204
102
255
255
102
255
255
153
255
153
51
119
119
119
