P3
# CREATOR: GIMP PNM Filter Version 1.1
64 64
255
102
51
0
204
102
51
255
174
76
255
204
102
255
204
51
255
204
102
255
204
102
255
174
76
255
192
84
255
192
84
255
153
51
255
204
102
255
204
102
255
204
102
255
174
76
255
204
102
255
204
153
255
204
51
255
204
102
255
204
102
255
204
102
255
204
102
255
174
76
255
192
84
255
174
76
255
204
102
255
204
102
255
204
102
255
174
76
255
204
102
255
204
102
255
204
102
255
204
102
255
204
102
255
174
76
255
204
102
255
204
102
255
192
84
255
204
153
255
204
102
255
204
102
255
174
76
255
204
102
255
204
102
255
204
102
255
204
51
255
192
84
255
192
84
255
204
102
255
204
102
255
204
102
255
174
76
255
192
84
255
192
84
255
192
84
255
174
76
255
204
153
255
204
102
255
192
84
255
204
102
255
255
102
255
255
153
255
153
51
119
119
119
102
51
0
204
102
51
255
174
76
255
204
102
255
204
51
255
204
102
255
204
102
255
174
76
255
192
84
255
192
84
255
153
51
255
204
102
255
204
102
255
204
102
255
174
76
255
204
102
255
204
153
255
204
51
255
204
102
255
204
102
255
204
102
255
174
76
255
192
84
255
192
84
255
174
76
255
204
102
255
204
102
255
204
102
255
174
76
255
204
102
255
204
102
255
204
102
255
204
102
255
204
102
255
174
76
255
204
102
255
204
102
255
192
84
255
204
153
255
204
102
255
204
102
255
204
102
255
174
76
255
204
102
255
204
102
255
204
51
255
192
84
255
192
84
255
204
153
255
204
102
255
204
102
255
174
76
255
192
84
255
192
84
255
192
84
255
174
76
255
204
153
255
204
102
255
192
84
255
204
102
255
255
102
255
255
153
255
153
51
119
119
119
102
51
0
204
102
51
255
174
76
255
204
102
255
204
51
255
204
102
255
204
102
255
174
76
255
192
84
255
192
84
255
153
51
255
204
102
255
204
102
255
204
102
255
174
76
255
204
102
255
204
153
255
204
51
255
204
102
255
204
102
255
204
102
255
174
76
255
192
84
255
192
84
255
174
76
255
204
102
255
204
102
255
204
102
255
174
76
255
204
102
255
204
102
255
204
102
255
204
102
255
204
102
255
174
76
255
204
102
255
204
102
255
192
84
255
192
84
255
204
102
255
204
102
255
204
102
255
174
76
255
204
102
255
204
102
255
204
51
255
192
84
255
192
84
255
204
153
255
204
102
255
204
102
255
174
76
255
192
84
255
192
84
255
192
84
255
174
76
255
204
153
255
204
102
255
192
84
255
204
102
255
255
102
255
255
153
255
153
51
119
119
119
102
51
0
204
102
51
255
174
76
255
204
102
255
204
51
255
204
102
255
204
102
255
174
76
255
192
84
255
192
84
255
153
51
255
204
102
255
204
102
255
204
102
255
174
76
255
204
102
255
204
153
255
204
51
255
204
102
255
204
102
255
204
102
255
174
76
255
192
84
255
192
84
255
174
76
255
204
102
255
204
102
255
204
102
255
174
76
255
204
102
255
204
102
255
204
102
255
204
102
255
174
76
255
204
102
255
204
102
255
204
102
255
204
102
255
192
84
255
192
84
255
204
102
255
204
102
255
174
76
255
204
102
255
204
102
255
204
51
255
192
84
255
192
84
255
204
153
255
204
102
255
204
102
255
174
76
255
192
84
255
192
84
255
192
84
255
174
76
255
204
153
255
204
102
255
192
84
255
204
102
255
255
102
255
255
153
255
153
51
119
119
119
102
51
0
204
102
51
255
174
76
255
204
102
255
204
51
255
204
102
255
204
102
255
174
76
255
192
84
255
192
84
255
153
51
255
204
102
255
204
102
255
174
76
255
204
102
255
204
102
255
204
153
255
204
51
255
204
102
255
204
102
255
204
102
255
174
76
255
192
84
255
192
84
255
174
76
255
204
102
255
204
102
255
204
102
255
174
76
255
204
102
255
204
102
255
204
102
255
174
76
255
204
102
255
204
102
255
174
76
255
204
102
255
204
102
255
192
84
255
192
84
255
204
102
255
204
102
255
174
76
255
204
102
255
204
102
255
204
51
255
192
84
255
192
84
255
204
153
255
204
102
255
204
102
255
174
76
255
192
84
255
192
84
255
192
84
255
174
76
255
204
153
255
204
102
255
192
84
255
204
102
255
255
102
255
255
153
255
153
51
119
119
119
102
51
0
204
102
51
255
174
76
255
204
102
255
204
51
255
204
102
255
204
102
255
174
76
255
192
84
255
192
84
255
153
51
255
204
102
255
204
102
255
174
76
255
204
102
255
204
102
255
204
153
255
204
51
255
204
102
255
204
102
255
204
102
255
174
76
255
192
84
255
192
84
255
174
76
255
204
102
255
204
102
255
204
102
255
174
76
255
204
102
255
204
102
255
204
102
255
174
76
255
204
102
255
204
102
255
174
76
255
174
76
255
204
102
255
192
84
255
192
84
255
204
102
255
204
102
255
174
76
255
204
102
255
204
102
255
204
51
255
192
84
255
192
84
255
204
153
255
204
102
255
204
102
255
174
76
255
192
84
255
192
84
255
192
84
255
174
76
255
204
153
255
204
102
255
192
84
255
204
102
255
255
102
255
255
153
255
153
51
119
119
119
102
51
0
204
102
51
255
174
76
255
204
102
255
204
51
255
204
102
255
204
102
255
174
76
255
192
84
255
192
84
255
153
51
255
204
102
255
204
102
255
174
76
255
204
102
255
204
102
255
204
153
255
204
51
255
204
102
255
204
102
255
204
102
255
174
76
255
192
84
255
192
84
255
174
76
255
204
102
255
204
102
255
204
102
255
174
76
255
204
102
255
204
102
255
204
102
255
174
76
255
204
102
255
204
102
255
174
76
255
174
76
255
204
102
255
192
84
255
192
84
255
204
102
255
204
102
255
174
76
255
204
102
255
204
102
255
204
51
255
192
84
255
192
84
255
204
153
255
204
102
255
204
102
255
174
76
255
192
84
255
192
84
255
192
84
255
174
76
255
204
153
255
204
102
255
192
84
255
204
102
255
255
102
255
255
153
255
153
51
119
119
119
102
51
0
204
102
51
255
174
76
255
204
102
255
204
51
255
204
102
255
204
102
255
174
76
255
192
84
255
192
84
255
153
51
255
204
102
255
204
102
255
174
76
255
204
102
255
204
102
255
204
153
255
204
51
255
204
102
255
204
102
255
204
102
255
204
102
255
174
76
255
192
84
255
174
76
255
204
102
255
204
102
255
204
102
255
174
76
255
204
102
255
204
102
255
174
76
255
204
102
255
204
102
255
174
76
255
204
102
255
174
76
255
204
102
255
192
84
255
192
84
255
204
102
255
204
102
255
174
76
255
204
102
255
204
102
255
204
51
255
192
84
255
192
84
255
204
153
255
204
102
255
204
102
255
174
76
255
192
84
255
192
84
255
192
84
255
174
76
255
204
153
255
204
102
255
192
84
255
204
102
255
255
102
255
255
153
255
153
51
119
119
119
102
51
0
204
102
51
255
174
76
255
204
102
255
204
51
255
204
102
255
204
102
255
174
76
255
192
84
255
192
84
255
153
51
255
204
102
255
204
102
255
174
76
255
204
102
255
204
102
255
204
153
255
204
51
255
204
102
255
204
102
255
204
102
255
204
102
255
174
76
255
192
84
255
174
76
255
204
102
255
204
102
255
204
102
255
174
76
255
204
102
255
204
102
255
174
76
255
204
102
255
204
102
255
174
76
255
204
102
255
174
76
255
204
102
255
204
153
255
192
84
255
204
102
255
204
102
255
174
76
255
204
102
255
204
102
255
204
51
255
192
84
255
192
84
255
204
153
255
204
102
255
204
102
255
174
76
255
192
84
255
192
84
255
192
84
255
174
76
255
204
153
255
204
102
255
192
84
255
204
102
255
255
102
255
255
153
255
153
51
119
119
119
102
51
0
204
102
51
255
174
76
255
204
102
255
204
51
255
204
102
255
204
102
255
174
76
255
192
84
255
192
84
255
153
51
255
204
102
255
204
102
255
174
76
255
204
102
255
204
102
255
204
153
255
204
51
255
204
102
255
204
102
255
204
102
255
204
102
255
174
76
255
192
84
255
174
76
255
204
102
255
204
102
255
204
102
255
174
76
255
204
102
255
174
76
255
204
102
255
204
102
255
204
102
255
174
76
255
204
51
255
174
76
255
204
102
255
204
102
255
192
84
255
204
102
255
204
102
255
174
76
255
204
102
255
204
102
255
204
51
255
192
84
255
192
84
255
204
153
255
204
102
255
204
102
255
174
76
255
192
84
255
192
84
255
192
84
255
174
76
255
204
153
255
204
102
255
192
84
255
204
102
255
255
102
255
255
153
255
153
51
119
119
119
102
51
0
204
102
51
255
174
76
255
204
102
255
204
51
255
204
102
255
204
102
255
174
76
255
192
84
255
192
84
255
153
51
255
204
102
255
204
102
255
174
76
255
204
102
255
204
102
255
204
153
255
204
51
255
204
102
255
204
102
255
204
102
255
204
102
255
174
76
255
192
84
255
174
76
255
204
102
255
204
102
255
204
102
255
174
76
255
204
102
255
174
76
255
204
102
255
204
102
255
204
102
255
174
76
255
204
51
255
204
102
255
174
76
255
204
102
255
192
84
255
204
153
255
204
102
255
174
76
255
204
102
255
204
102
255
204
51
255
192
84
255
192
84
255
204
153
255
204
102
255
204
102
255
174
76
255
192
84
255
192
84
255
192
84
255
174
76
255
204
153
255
204
102
255
192
84
255
204
102
255
255
102
255
255
153
255
153
51
119
119
119
102
51
0
204
102
51
255
174
76
255
204
102
255
204
51
255
204
102
255
204
102
255
174
76
255
192
84
255
192
84
255
153
51
255
204
102
255
204
102
255
174
76
255
204
102
255
204
102
255
204
153
255
204
51
255
204
102
255
204
102
255
204
102
255
204
102
255
174
76
255
192
84
255
174
76
255
204
102
255
204
102
255
204
102
255
174
76
255
204
102
255
174
76
255
204
102
255
204
102
255
153
51
255
204
102
255
204
51
255
204
102
255
174
76
255
204
102
255
192
84
255
192
84
255
204
102
255
174
76
255
204
102
255
204
102
255
204
51
255
192
84
255
192
84
255
204
153
255
204
102
255
204
102
255
174
76
255
192
84
255
192
84
255
192
84
255
174
76
255
204
153
255
204
102
255
192
84
255
204
102
255
255
102
255
255
153
255
153
51
119
119
119
102
51
0
204
102
51
255
174
76
255
204
102
255
204
51
255
204
102
255
204
102
255
174
76
255
192
84
255
192
84
255
153
51
255
204
102
255
204
102
255
174
76
255
204
102
255
204
102
255
204
153
255
204
51
255
204
102
255
204
102
255
204
102
255
204
102
255
174
76
255
192
84
255
174
76
255
204
102
255
204
102
255
204
102
255
174
76
255
204
102
255
174
76
255
204
102
255
204
102
255
153
51
255
204
102
255
204
51
255
204
102
255
174
76
255
204
102
255
192
84
255
192
84
255
204
102
255
174
76
255
204
102
255
204
102
255
204
51
255
192
84
255
192
84
255
204
153
255
204
102
255
204
102
255
174
76
255
192
84
255
192
84
255
192
84
255
174
76
255
204
153
255
204
102
255
192
84
255
204
102
255
255
102
255
255
153
255
153
51
119
119
119
102
51
0
204
102
51
255
174
76
255
204
102
255
204
51
255
204
102
255
204
102
255
174
76
255
192
84
255
192
84
255
153
51
255
204
102
255
204
102
255
174
76
255
204
102
255
204
102
255
204
153
255
204
51
255
204
102
255
204
102
255
204
102
255
204
102
255
174
76
255
192
84
255
174
76
255
204
102
255
204
102
255
204
102
255
174
76
255
204
102
255
174
76
255
204
102
255
204
102
255
153
51
255
204
102
255
204
51
255
204
102
255
174
76
255
204
102
255
204
102
255
192
84
255
204
102
255
174
76
255
204
102
255
204
102
255
204
51
255
192
84
255
192
84
255
204
153
255
204
102
255
204
102
255
174
76
255
192
84
255
192
84
255
192
84
255
174
76
255
204
153
255
204
102
255
192
84
255
204
102
255
255
102
255
255
153
255
153
51
119
119
119
102
51
0
204
102
51
255
174
76
255
204
102
255
204
51
255
204
102
255
204
102
255
174
76
255
192
84
255
192
84
255
153
51
255
204
102
255
204
102
255
174
76
255
204
102
255
204
102
255
204
153
255
204
51
255
204
102
255
204
102
255
204
102
255
204
102
255
174
76
255
192
84
255
174
76
255
204
102
255
204
102
255
204
102
255
174
76
255
204
102
255
174
76
255
204
102
255
204
102
255
153
51
255
204
102
255
204
102
255
204
102
255
204
102
255
153
51
255
204
102
255
192
84
255
204
102
255
174
76
255
204
102
255
204
102
255
204
51
255
192
84
255
192
84
255
204
153
255
204
102
255
204
102
255
174
76
255
192
84
255
192
84
255
192
84
255
174
76
255
204
153
255
204
102
255
192
84
255
204
102
255
255
102
255
255
153
255
153
51
119
119
119
102
51
0
204
102
51
255
174
76
255
204
102
255
204
51
255
204
102
255
204
102
255
174
76
255
192
84
255
192
84
255
153
51
255
204
102
255
204
102
255
174
76
255
204
102
255
204
102
255
204
153
255
204
51
255
204
102
255
204
102
255
204
102
255
204
102
255
174
76
255
192
84
255
174
76
255
204
102
255
204
102
255
204
102
255
174
76
255
204
102
255
174
76
255
204
102
255
204
102
255
153
51
255
204
102
255
153
51
255
204
51
255
204
102
255
153
51
255
204
102
255
192
84
255
204
102
255
174
76
255
204
102
255
204
102
255
204
51
255
192
84
255
192
84
255
204
153
255
204
102
255
204
102
255
174
76
255
192
84
255
192
84
255
192
84
255
174
76
255
204
153
255
204
102
255
192
84
255
204
102
255
255
102
255
255
153
255
153
51
119
119
119
102
51
0
204
102
51
255
174
76
255
204
102
255
204
51
255
204
102
255
204
102
255
174
76
255
192
84
255
192
84
255
153
51
255
204
102
255
204
102
255
174
76
255
204
102
255
204
102
255
204
153
255
204
51
255
204
102
255
204
102
255
204
102
255
204
102
255
174
76
255
192
84
255
174
76
255
204
102
255
204
102
255
204
102
255
174
76
255
204
102
255
174
76
255
204
102
255
153
51
255
204
51
255
204
102
255
153
51
255
153
51
255
204
102
255
153
51
255
204
102
255
192
84
255
204
102
255
174
76
255
204
102
255
204
102
255
204
51
255
192
84
255
192
84
255
204
153
255
204
102
255
204
102
255
174
76
255
192
84
255
192
84
255
192
84
255
174
76
255
204
153
255
204
102
255
192
84
255
204
102
255
255
102
255
255
153
255
153
51
119
119
119
102
51
0
204
102
51
255
174
76
255
204
102
255
204
51
255
204
102
255
204
102
255
174
76
255
192
84
255
192
84
255
153
51
255
204
102
255
204
102
255
174
76
255
204
102
255
204
102
255
204
153
255
204
51
255
204
102
255
204
102
255
204
102
255
204
102
255
174
76
255
192
84
255
174
76
255
204
102
255
204
102
255
204
102
255
174
76
255
204
102
255
174
76
255
204
102
255
153
51
255
204
102
255
153
51
255
153
51
255
102
0
255
153
51
255
204
102
255
153
51
255
204
102
255
204
153
255
174
76
255
204
102
255
204
102
255
204
51
255
192
84
255
192
84
255
204
153
255
204
102
255
204
102
255
174
76
255
192
84
255
192
84
255
192
84
255
174
76
255
204
153
255
204
102
255
192
84
255
204
102
255
255
102
255
255
153
255
153
51
119
119
119
102
51
0
204
102
51
255
174
76
255
204
102
255
204
51
255
204
102
255
204
102
255
174
76
255
192
84
255
192
84
255
153
51
255
204
102
255
204
102
255
174
76
255
204
102
255
204
102
255
204
153
255
204
51
255
204
102
255
204
102
255
204
102
255
204
102
255
174
76
255
192
84
255
174
76
255
204
102
255
204
102
255
204
102
255
174
76
255
204
102
255
174
76
255
204
102
255
153
51
255
204
102
255
153
0
255
102
0
255
153
51
255
153
51
255
204
102
255
153
51
255
204
102
255
204
153
255
204
102
255
174
76
255
204
102
255
204
51
255
192
84
255
192
84
255
204
153
255
204
102
255
204
102
255
204
102
255
174
76
255
192
84
255
192
84
255
174
76
255
204
153
255
204
102
255
192
84
255
204
102
255
255
102
255
255
153
255
153
51
119
119
119
102
51
0
204
102
51
255
174
76
255
204
102
255
204
51
255
204
102
255
204
102
255
174
76
255
192
84
255
192
84
255
153
51
255
204
102
255
204
102
255
174
76
188
150
75
71
56
28
0
0
0
0
0
0
255
204
102
255
204
102
255
204
102
255
204
102
255
174
76
255
192
84
255
174
76
255
204
102
255
204
102
255
174
76
255
204
102
255
204
102
255
174
76
255
204
102
255
153
51
255
204
102
255
153
51
255
174
76
255
153
51
255
204
102
255
204
102
255
153
51
255
204
102
255
204
153
255
204
102
255
174
76
255
204
102
255
204
51
255
192
84
255
192
84
255
204
153
255
204
102
255
204
102
255
204
102
255
174
76
255
192
84
255
192
84
255
174
76
255
204
153
255
204
102
255
192
84
255
204
102
255
255
102
255
255
153
255
153
51
119
119
119
102
51
0
204
102
51
255
174
76
255
204
102
255
204
51
255
204
102
255
204
102
255
174
76
255
192
84
255
192
84
255
153
51
222
177
88
136
108
54
37
25
11
0
0
0
0
0
0
0
0
0
0
0
0
255
204
102
255
204
102
255
204
102
255
204
102
255
174
76
255
192
84
255
174
76
255
204
102
255
204
102
255
174
76
255
204
102
255
204
102
255
174
76
255
204
102
255
153
51
255
204
102
251
150
50
177
120
52
96
57
19
45
36
18
17
13
6
4
2
0
17
13
6
42
33
25
100
80
40
183
124
54
255
204
102
255
204
51
255
192
84
255
192
84
255
204
153
255
204
102
255
204
102
255
204
102
255
174
76
255
192
84
255
192
84
255
174
76
255
204
153
255
204
102
255
192
84
255
204
102
255
255
102
255
255
153
255
153
51
119
119
119
102
51
0
204
102
51
255
174
76
255
204
102
255
204
51
255
204
102
255
204
102
255
174
76
203
152
66
126
94
41
51
30
10
0
0
0
0
0
0
0
0
0
0
0
0
0
0
0
0
0
0
0
0
0
255
204
102
255
204
102
255
204
102
255
204
102
255
174
76
255
192
84
255
192
84
255
174
76
255
204
102
255
174
76
255
204
102
255
204
102
255
174
76
255
204
102
255
153
51
190
152
76
39
23
7
0
0
0
0
0
0
0
0
0
0
0
0
0
0
0
0
0
0
0
0
0
0
0
0
0
0
0
52
41
20
217
173
43
255
192
84
255
192
84
255
204
153
255
204
102
255
204
102
255
204
102
255
174
76
255
192
84
255
192
84
255
174
76
255
204
153
255
204
102
255
192
84
255
204
102
255
255
102
255
255
153
255
153
51
119
119
119
102
51
0
204
102
51
255
174
76
255
204
102
255
204
51
255
204
102
255
204
102
255
174
76
76
57
25
0
0
0
0
0
0
0
0
0
0
0
0
2
1
0
58
46
23
0
0
0
0
0
0
0
0
0
255
204
102
255
204
102
255
204
102
255
204
102
255
174
76
255
192
84
255
192
84
255
174
76
255
204
102
255
174
76
255
204
102
255
204
102
255
174
76
255
204
102
160
96
32
4
3
1
0
0
0
0
0
0
0
0
0
0
0
0
0
0
0
0
0
0
0
0
0
0
0
0
0
0
0
0
0
0
0
0
0
13
10
2
204
153
67
255
192
84
255
204
153
255
204
102
255
204
102
255
204
102
255
174
76
255
192
84
255
192
84
255
174
76
255
204
153
255
204
102
255
192
84
255
204
102
255
255
102
255
255
153
255
153
51
119
119
119
102
51
0
204
102
51
255
174
76
255
204
102
255
204
51
255
204
102
255
204
102
255
174
76
135
101
44
0
0
0
16
9
3
78
62
31
152
121
60
231
157
68
255
204
102
0
0
0
0
0
0
0
0
0
255
204
102
255
204
102
255
204
102
255
204
102
255
174
76
255
192
84
255
192
84
255
174
76
255
204
102
255
174
76
255
204
102
255
204
102
255
174
76
194
155
77
4
2
0
0
0
0
0
0
0
6
4
1
104
62
0
190
152
76
235
141
47
251
200
100
237
189
94
186
148
111
86
68
34
0
0
0
0
0
0
0
0
0
27
20
8
244
183
80
255
204
153
255
204
102
255
204
102
255
204
102
255
174
76
255
192
84
255
192
84
255
174
76
255
204
153
255
204
102
255
192
84
255
204
102
255
255
102
255
255
153
255
153
51
119
119
119
102
51
0
204
102
51
255
174
76
255
204
102
255
204
51
255
204
102
255
204
102
255
174
76
227
170
74
205
154
67
253
151
50
255
204
102
255
204
102
255
174
76
255
204
102
0
0
0
0
0
0
0
0
0
255
204
102
255
204
102
255
204
102
255
204
102
255
174
76
255
192
84
255
192
84
255
174
76
255
204
102
255
174
76
255
204
102
255
204
102
252
171
75
43
34
17
0
0
0
0
0
0
33
19
6
213
127
42
255
153
51
255
204
102
255
153
51
255
204
102
255
204
102
255
204
153
255
204
102
168
114
50
3
2
1
0
0
0
0
0
0
136
102
44
255
204
153
255
204
102
255
204
102
255
204
102
255
174
76
255
192
84
255
192
84
255
174
76
255
204
153
255
204
102
255
192
84
255
204
102
255
255
102
255
255
153
255
153
51
119
119
119
102
51
0
204
102
51
255
174
76
255
204
102
255
204
51
255
204
102
255
204
102
255
174
76
255
192
84
255
192
84
255
153
51
255
204
102
255
204
102
255
174
76
255
204
102
0
0
0
0
0
0
0
0
0
255
204
102
255
204
102
255
204
102
255
204
102
255
174
76
255
192
84
255
192
84
255
174
76
255
204
102
255
174
76
255
204
102
255
204
102
172
117
51
0
0
0
0
0
0
11
6
2
217
173
86
255
153
51
255
204
102
255
204
102
255
153
51
255
204
102
255
204
102
255
192
84
255
204
102
255
174
76
122
97
48
0
0
0
0
0
0
53
39
17
255
204
153
255
204
102
255
204
102
255
204
102
255
174
76
255
192
84
255
192
84
255
174
76
255
204
153
255
204
102
255
192
84
255
204
102
255
255
102
255
255
153
255
153
51
119
119
119
102
51
0
204
102
51
255
174
76
255
204
102
255
204
51
255
204
102
255
204
102
255
174
76
255
192
84
255
192
84
255
153
51
255
204
102
255
204
102
255
174
76
255
204
102
0
0
0
0
0
0
0
0
0
255
204
102
255
204
102
255
204
102
255
204
102
255
174
76
255
192
84
255
192
84
255
174
76
255
204
102
255
174
76
255
204
102
255
204
102
149
101
44
15
12
6
0
0
0
128
76
25
255
204
102
255
204
102
255
204
102
255
204
102
255
153
51
255
204
102
255
204
102
255
192
84
255
204
102
255
174
76
222
177
88
0
0
0
0
0
0
14
10
4
255
204
153
255
204
102
255
204
102
255
204
102
255
174
76
255
192
84
255
192
84
255
174
76
255
204
153
255
204
102
255
192
84
255
204
102
255
255
102
255
255
153
255
153
51
119
119
119
102
51
0
204
102
51
255
174
76
255
204
102
255
204
51
255
204
102
255
204
102
255
174
76
255
192
84
255
192
84
255
153
51
255
204
102
255
204
102
255
174
76
255
204
102
0
0
0
0
0
0
0
0
0
255
204
102
255
204
102
255
204
102
255
174
76
255
192
84
255
192
84
255
192
84
255
174
76
255
204
102
255
174
76
255
204
102
255
204
102
255
174
76
247
197
98
167
133
66
233
186
93
255
153
51
255
204
102
255
204
102
255
204
102
255
153
51
255
204
102
255
204
102
255
192
84
255
204
102
255
174
76
249
199
99
0
0
0
0
0
0
11
8
3
255
204
153
255
204
102
255
204
102
255
204
102
255
174
76
255
192
84
255
192
84
255
174
76
255
204
153
255
204
102
255
192
84
255
204
102
255
255
102
255
255
153
255
153
51
119
119
119
102
51
0
204
102
51
255
174
76
255
204
102
255
204
51
255
204
102
255
204
102
255
174
76
255
192
84
255
192
84
255
153
51
255
204
102
255
204
102
255
174
76
255
204
102
0
0
0
0
0
0
0
0
0
255
204
102
255
204
102
255
204
102
255
174
76
255
192
84
255
192
84
255
192
84
255
174
76
255
204
102
255
174
76
255
204
102
255
204
102
255
174
76
255
204
102
255
204
102
255
204
102
255
153
51
255
204
102
255
204
102
255
204
102
255
153
51
255
204
102
255
204
51
255
192
84
255
204
102
255
174
76
212
169
84
0
0
0
0
0
0
59
44
19
255
204
153
255
204
102
255
204
102
255
204
102
255
174
76
255
192
84
255
192
84
255
174
76
255
204
153
255
204
102
255
192
84
255
204
102
255
255
102
255
255
153
255
153
51
119
119
119
102
51
0
204
102
51
255
174
76
255
204
102
255
204
51
255
204
102
255
174
76
255
192
84
255
192
84
255
192
84
255
153
51
255
204
102
255
204
102
255
174
76
255
204
102
0
0
0
0
0
0
0
0
0
255
204
102
255
204
102
255
204
102
255
174
76
255
192
84
255
192
84
255
174
76
255
204
102
255
204
102
255
174
76
255
204
102
255
204
102
255
174
76
255
204
102
255
204
102
255
204
102
255
204
102
255
153
51
255
153
51
255
153
51
255
204
102
255
204
102
255
192
84
255
192
84
255
204
102
255
174
76
103
82
41
0
0
0
0
0
0
169
127
55
255
204
153
255
204
102
255
204
102
255
174
76
255
192
84
255
192
84
255
192
84
255
174
76
255
204
153
255
204
102
255
192
84
255
204
102
255
255
102
255
255
153
255
153
51
119
119
119
102
51
0
204
102
51
255
174
76
255
204
102
255
204
51
255
204
102
255
174
76
255
192
84
255
192
84
255
192
84
255
153
51
255
204
102
255
204
102
255
174
76
255
204
102
0
0
0
0
0
0
0
0
0
255
204
102
255
204
102
255
204
102
255
174
76
255
192
84
255
192
84
255
174
76
255
204
102
255
204
102
255
174
76
255
204
102
255
204
102
255
174
76
255
204
102
255
204
102
255
204
51
255
204
102
255
204
102
255
204
102
255
204
102
255
204
102
255
204
51
255
192
84
255
192
84
255
204
102
161
109
47
1
0
0
0
0
0
95
71
31
255
192
84
255
204
153
255
204
102
255
204
102
255
174
76
255
192
84
255
192
84
255
192
84
255
174
76
255
204
153
255
204
102
255
192
84
255
204
102
255
255
102
255
255
153
255
153
51
119
119
119
102
51
0
204
102
51
255
174
76
255
204
102
255
204
51
255
204
102
255
174
76
255
192
84
255
192
84
255
192
84
255
153
51
255
204
102
255
204
102
255
174
76
255
204
102
0
0
0
0
0
0
0
0
0
255
204
102
255
204
102
255
204
102
255
174
76
255
192
84
255
192
84
255
174
76
255
204
102
255
204
102
255
174
76
255
204
102
255
204
102
255
174
76
255
204
102
255
204
102
255
204
51
255
204
51
255
204
102
255
204
102
255
204
102
255
204
102
255
204
51
255
192
84
252
189
83
126
100
50
1
0
0
0
0
0
66
52
13
250
188
82
255
192
84
255
204
153
255
204
102
255
204
102
255
174
76
255
192
84
255
192
84
255
192
84
255
174
76
255
204
153
255
204
102
255
192
84
255
204
102
255
255
102
255
255
153
255
153
51
119
119
119
102
51
0
204
102
51
255
174
76
255
204
102
255
204
51
255
204
102
255
174
76
255
192
84
255
192
84
255
192
84
255
153
51
255
204
102
255
204
102
255
174
76
255
204
102
0
0
0
0
0
0
0
0
0
255
204
102
255
204
102
255
204
102
255
174
76
255
192
84
255
192
84
255
174
76
255
204
102
255
204
102
255
174
76
255
204
102
255
204
102
255
174
76
255
204
102
255
204
102
255
204
102
255
204
51
255
204
102
255
204
102
255
204
102
255
204
102
255
204
51
220
165
72
60
45
19
0
0
0
0
0
0
78
62
31
245
196
49
255
192
84
255
192
84
255
204
153
255
204
102
255
204
102
255
174
76
255
192
84
255
192
84
255
192
84
255
174
76
255
204
153
255
204
102
255
192
84
255
204
102
255
255
102
255
255
153
255
153
51
119
119
119
102
51
0
204
102
51
255
174
76
255
204
102
255
204
51
255
204
102
255
174
76
255
192
84
255
192
84
255
192
84
255
153
51
255
204
102
255
204
102
255
174
76
255
204
102
0
0
0
0
0
0
0
0
0
255
204
102
255
204
102
255
204
102
255
174
76
255
192
84
255
192
84
255
174
76
255
204
102
255
204
102
255
204
102
255
174
76
255
204
102
255
204
102
255
174
76
255
204
102
255
204
102
255
204
102
255
192
84
255
204
102
255
204
102
251
200
50
137
103
45
9
6
2
0
0
0
3
2
1
132
90
39
253
202
101
255
204
51
255
192
84
255
192
84
255
204
102
255
204
102
255
204
102
255
174
76
255
192
84
255
192
84
255
192
84
255
174
76
255
204
153
255
204
102
255
192
84
255
204
102
255
255
102
255
255
153
255
153
51
119
119
119
102
51
0
204
102
51
255
174
76
255
204
102
255
204
51
255
204
102
255
174
76
255
192
84
255
192
84
255
192
84
255
153
51
255
204
102
255
204
102
255
174
76
255
204
102
0
0
0
0
0
0
0
0
0
255
204
102
255
204
102
255
204
102
255
174
76
255
192
84
255
192
84
255
174
76
255
204
102
255
204
102
255
204
102
255
174
76
255
204
102
255
204
102
255
204
102
255
174
76
255
204
102
255
204
102
255
192
84
255
204
51
205
164
82
46
36
9
0
0
0
0
0
0
43
34
17
201
137
59
255
204
102
255
204
102
255
204
51
255
192
84
255
192
84
255
204
102
255
204
102
255
204
102
255
174
76
255
192
84
255
192
84
255
192
84
255
174
76
255
204
153
255
204
102
255
192
84
255
204
102
255
255
102
255
255
153
255
153
51
119
119
119
102
51
0
204
102
51
255
174
76
255
204
102
255
204
51
255
204
102
255
174
76
255
192
84
255
192
84
255
192
84
255
153
51
255
204
102
255
204
102
255
174
76
255
204
102
0
0
0
0
0
0
0
0
0
255
204
102
255
204
102
255
204
102
255
174
76
255
192
84
255
192
84
255
174
76
255
204
102
255
204
102
255
204
102
255
174
76
255
204
102
255
204
102
255
204
102
255
174
76
255
204
102
255
204
102
253
190
83
133
100
43
4
3
1
0
0
0
7
5
2
129
103
51
249
199
99
255
174
76
255
204
102
255
204
102
255
204
51
255
192
84
255
192
84
255
204
102
255
204
102
255
204
102
255
174
76
255
192
84
255
192
84
255
192
84
255
174
76
255
204
153
255
204
102
255
192
84
255
204
102
255
255
102
255
255
153
255
153
51
119
119
119
102
51
0
204
102
51
255
174
76
255
204
102
255
204
51
255
204
102
255
174
76
255
192
84
255
192
84
255
192
84
255
153
51
255
204
102
255
204
102
255
174
76
255
204
102
0
0
0
0
0
0
0
0
0
255
204
102
255
204
102
255
204
102
255
174
76
255
192
84
255
192
84
255
174
76
255
204
102
255
204
102
255
204
102
255
174
76
255
204
102
255
204
102
255
204
102
255
174
76
255
204
102
241
192
96
74
55
24
0
0
0
0
0
0
48
36
15
212
159
69
255
204
102
255
204
102
255
174
76
255
204
102
255
204
102
255
204
51
255
192
84
255
192
84
255
204
102
255
204
102
255
204
102
255
174
76
255
192
84
255
192
84
255
192
84
255
174
76
255
204
153
255
204
102
255
192
84
255
204
102
255
255
102
255
255
153
255
153
51
119
119
119
102
51
0
204
102
51
255
174
76
255
204
102
255
204
51
255
204
102
255
174
76
255
192
84
255
192
84
255
192
84
255
153
51
255
204
102
255
204
102
255
174
76
255
204
102
0
0
0
0
0
0
0
0
0
255
204
102
255
204
102
255
204
102
255
174
76
255
192
84
255
192
84
255
174
76
255
204
102
255
204
102
255
204
102
255
174
76
255
204
102
255
204
102
255
204
102
255
204
102
231
157
68
45
36
18
0
0
0
0
0
0
114
85
37
250
188
82
255
192
84
255
204
102
255
204
102
255
174
76
255
204
102
255
204
102
255
204
51
255
192
84
255
192
84
255
204
102
255
204
102
255
204
102
255
174
76
255
192
84
255
192
84
255
192
84
255
174
76
255
204
153
255
204
102
255
192
84
255
204
102
255
255
102
255
255
153
255
153
51
119
119
119
102
51
0
204
102
51
255
174
76
255
204
102
255
204
51
255
204
102
255
174
76
255
192
84
255
192
84
255
192
84
255
153
51
255
204
102
255
204
102
255
174
76
255
204
102
0
0
0
0
0
0
0
0
0
255
204
102
255
204
102
255
204
102
255
174
76
255
192
84
255
192
84
255
174
76
255
204
102
255
204
102
255
204
102
255
174
76
255
204
102
255
204
102
255
204
102
233
186
93
38
25
11
0
0
0
2
1
0
149
112
49
255
192
84
255
204
102
255
192
84
255
204
102
255
204
102
255
174
76
255
204
102
255
204
102
255
204
51
255
192
84
255
192
84
255
204
102
255
204
102
255
204
102
255
174
76
255
192
84
255
192
84
255
192
84
255
174
76
255
204
153
255
204
102
255
192
84
255
204
102
255
255
102
255
255
153
255
153
51
119
119
119
102
51
0
204
102
51
255
174
76
255
204
102
255
204
51
255
204
102
255
174
76
255
192
84
255
192
84
255
192
84
255
153
51
255
204
102
255
204
102
255
174
76
255
204
102
0
0
0
0
0
0
0
0
0
255
204
102
255
204
102
255
204
102
255
174
76
255
192
84
255
192
84
255
174
76
255
204
102
255
204
102
255
204
102
255
174
76
255
204
102
255
204
102
247
197
98
52
41
20
0
0
0
0
0
0
164
131
65
255
192
84
255
192
84
255
192
84
255
192
84
255
204
102
255
204
102
255
174
76
255
204
102
255
204
102
255
204
51
255
192
84
255
192
84
255
204
102
255
204
102
255
204
102
255
174
76
255
192
84
255
192
84
255
192
84
255
174
76
255
204
153
255
204
102
255
192
84
255
204
102
255
255
102
255
255
153
255
153
51
119
119
119
102
51
0
204
102
51
255
174
76
255
204
102
255
204
51
255
204
102
255
174
76
255
192
84
255
192
84
255
192
84
255
153
51
255
204
102
255
204
102
255
174
76
255
204
102
0
0
0
0
0
0
0
0
0
255
204
102
255
204
102
255
204
102
255
174
76
255
192
84
255
192
84
255
174
76
255
204
102
255
204
102
255
204
102
255
174
76
255
204
102
255
204
102
102
81
40
0
0
0
0
0
0
124
99
49
255
204
102
255
192
84
255
192
84
255
192
84
255
204
102
255
204
102
255
204
102
255
174
76
255
204
102
255
204
102
255
204
51
255
192
84
255
192
84
255
204
102
255
204
102
255
204
102
255
174
76
255
192
84
255
192
84
255
192
84
255
174
76
255
204
153
255
204
102
255
192
84
255
204
102
255
255
102
255
255
153
255
153
51
119
119
119
102
51
0
204
102
51
255
174
76
255
204
102
255
204
51
255
204
102
255
174
76
255
192
84
255
192
84
255
192
84
255
153
51
255
204
102
255
204
102
255
174
76
255
204
102
0
0
0
0
0
0
0
0
0
255
204
102
255
204
102
255
204
102
255
174
76
255
192
84
255
192
84
255
174
76
255
204
102
255
204
102
255
204
102
255
174
76
255
204
102
189
151
113
0
0
0
0
0
0
52
35
15
254
203
101
255
204
102
255
192
84
255
192
84
255
192
84
255
204
102
255
204
102
255
204
102
255
174
76
255
204
102
255
204
102
255
204
51
255
192
84
255
192
84
255
204
102
255
204
102
255
204
102
255
174
76
255
192
84
255
192
84
255
192
84
255
174
76
255
204
153
255
204
102
255
192
84
255
204
102
255
255
102
255
255
153
255
153
51
119
119
119
102
51
0
204
102
51
255
174
76
255
204
102
255
204
51
255
204
102
255
174
76
255
192
84
255
192
84
255
192
84
255
153
51
255
204
102
255
204
102
255
174
76
255
204
102
0
0
0
0
0
0
0
0
0
255
204
102
255
204
102
255
204
102
255
174
76
255
192
84
255
192
84
255
174
76
255
204
102
255
204
102
255
204
102
255
174
76
255
204
102
49
39
29
0
0
0
0
0
0
190
129
56
255
204
102
255
204
102
255
204
102
255
192
84
255
192
84
255
204
102
255
204
102
255
204
102
255
174
76
255
204
102
255
204
102
255
204
51
255
192
84
255
192
84
255
204
102
255
204
102
255
204
102
255
174
76
255
192
84
255
192
84
255
192
84
255
174
76
255
204
153
255
204
102
255
192
84
255
204
102
255
255
102
255
255
153
255
153
51
119
119
119
102
51
0
204
102
51
255
174
76
255
204
102
255
204
51
255
204
102
255
174
76
255
192
84
255
192
84
255
192
84
255
153
51
255
204
102
255
204
102
255
174
76
255
204
102
0
0
0
0
0
0
0
0
0
255
204
102
255
204
102
255
204
102
255
174
76
255
192
84
255
192
84
255
174
76
255
204
102
255
204
102
255
204
102
255
174
76
255
204
102
0
0
0
0
0
0
0
0
0
0
0
0
0
0
0
0
0
0
0
0
0
0
0
0
0
0
0
0
0
0
0
0
0
0
0
0
0
0
0
0
0
0
0
0
0
0
0
0
0
0
0
0
0
0
255
204
102
255
204
102
255
204
102
255
174
76
255
192
84
255
192
84
255
192
84
255
174
76
255
204
153
255
204
102
255
192
84
255
204
102
255
255
102
255
255
153
255
153
51
119
119
119
102
51
0
204
102
51
255
174
76
255
204
102
255
204
51
255
204
102
255
204
102
255
174
76
255
192
84
255
192
84
255
153
51
255
204
102
255
204
102
255
174
76
255
204
102
0
0
0
0
0
0
0
0
0
255
204
102
255
204
102
255
204
102
255
174
76
255
192
84
255
192
84
255
174
76
255
204
102
255
204
102
255
204
102
255
174
76
255
204
102
0
0
0
0
0
0
0
0
0
0
0
0
0
0
0
0
0
0
0
0
0
0
0
0
0
0
0
0
0
0
0
0
0
0
0
0
0
0
0
0
0
0
0
0
0
0
0
0
0
0
0
0
0
0
255
204
102
255
204
102
255
204
102
255
174
76
255
192
84
255
192
84
255
192
84
255
174
76
255
204
153
255
204
102
255
192
84
255
204
102
255
255
102
255
255
153
255
153
51
119
119
119
102
51
0
204
102
51
255
174
76
255
204
102
255
204
51
255
204
102
255
204
102
255
174
76
255
192
84
255
192
84
255
153
51
255
204
102
255
204
102
255
174
76
255
204
102
0
0
0
0
0
0
0
0
0
255
204
102
255
204
102
255
204
102
255
174
76
255
192
84
255
192
84
255
174
76
255
204
102
255
204
102
255
204
102
255
174
76
255
204
102
0
0
0
0
0
0
0
0
0
0
0
0
0
0
0
0
0
0
0
0
0
0
0
0
0
0
0
0
0
0
0
0
0
0
0
0
0
0
0
0
0
0
0
0
0
0
0
0
0
0
0
0
0
0
255
204
102
255
204
102
255
204
102
255
174
76
255
192
84
255
192
84
255
192
84
255
174
76
255
204
153
255
204
102
255
192
84
255
204
102
255
255
102
255
255
153
255
153
51
119
119
119
102
51
0
204
102
51
255
174
76
255
204
102
255
204
51
255
204
102
255
204
102
255
174
76
255
192
84
255
192
84
255
153
51
255
204
102
255
204
102
255
204
102
255
174
76
255
204
102
255
204
153
255
204
51
255
204
102
255
204
102
255
204
102
255
174
76
255
192
84
255
192
84
255
174
76
255
204
102
255
204
102
255
204
102
255
174
76
255
204
102
255
204
153
255
204
102
255
204
102
255
174
76
255
204
102
255
204
102
255
204
102
255
192
84
255
192
84
255
204
102
255
204
102
255
204
102
255
174
76
255
204
102
255
204
102
255
204
51
255
192
84
255
192
84
255
204
102
255
204
102
255
204
102
255
174
76
255
192
84
255
192
84
255
192
84
255
174
76
255
204
153
255
204
102
255
192
84
255
204
102
255
255
102
255
255
153
255
153
51
119
119
119
102
51
0
204
102
51
255
174
76
255
204
102
255
204
51
255
204
102
255
204
102
255
174
76
255
192
84
255
192
84
255
153
51
255
204
102
255
204
102
255
204
102
255
174
76
255
204
102
255
204
153
255
204
51
255
204
102
255
204
102
255
204
102
255
204
102
255
174
76
255
192
84
255
192
84
255
174
76
255
204
102
255
204
102
255
174
76
255
204
102
255
204
153
255
204
102
255
204
102
255
174
76
255
204
102
255
204
102
255
204
102
255
192
84
255
192
84
255
204
102
255
204
102
255
204
102
255
174
76
255
204
102
255
204
102
255
204
51
255
192
84
255
192
84
255
204
102
255
204
102
255
204
102
255
174
76
255
192
84
255
192
84
255
192
84
255
174
76
255
204
153
255
204
102
255
192
84
255
204
102
255
255
102
255
255
153
255
153
51
119
119
119
102
51
0
204
102
51
255
174
76
255
204
102
255
204
51
255
204
102
255
204
102
255
174
76
255
192
84
255
192
84
255
153
51
255
204
102
255
204
102
255
204
102
255
174
76
255
204
102
255
204
153
255
204
51
255
204
102
255
204
102
255
204
102
255
204
102
255
174
76
255
192
84
255
192
84
255
174
76
255
204
102
255
204
102
255
174
76
255
204
102
255
204
153
255
204
102
255
204
102
255
174
76
255
204
102
255
204
102
255
204
102
255
192
84
255
192
84
255
204
102
255
204
102
255
204
102
255
174
76
255
204
102
255
204
102
255
204
51
255
192
84
255
192
84
255
204
102
255
204
102
255
204
102
255
174
76
255
192
84
255
192
84
255
192
84
255
174
76
255
204
153
255
204
102
255
192
84
255
204
102
255
255
102
255
255
153
255
153
51
119
119
119
102
51
0
204
102
51
255
174
76
255
204
102
255
204
51
255
204
102
255
204
102
255
174
76
255
192
84
255
192
84
255
153
51
255
204
102
255
204
102
255
204
102
255
174
76
255
204
102
255
204
153
255
204
51
255
204
102
255
204
102
255
204
102
255
204
102
255
174
76
255
192
84
255
192
84
255
174
76
255
204
102
255
204
102
255
174
76
255
204
102
255
204
153
255
204
102
255
204
102
255
174
76
255
204
102
255
204
102
255
204
102
255
192
84
255
192
84
255
204
102
255
204
102
255
204
102
255
174
76
255
204
102
255
204
102
255
204
51
255
192
84
255
192
84
255
204
102
255
204
102
255
204
102
255
174
76
255
192
84
255
192
84
255
192
84
255
174
76
255
204
153
255
204
102
255
192
84
255
204
102
255
255
102
255
255
153
255
153
51
119
119
119
102
51
0
204
102
51
255
174
76
255
204
102
255
204
51
255
204
102
255
204
102
255
174
76
255
192
84
255
192
84
255
153
51
255
204
102
255
204
102
255
204
102
255
174
76
255
204
102
255
204
153
255
204
51
255
204
102
255
204
102
255
204
102
255
204
102
255
174
76
255
192
84
255
192
84
255
174
76
255
204
102
255
204
102
255
174
76
255
204
102
255
204
153
255
204
102
255
204
102
255
174
76
255
204
102
255
204
102
255
204
102
255
192
84
255
192
84
255
204
102
255
204
102
255
204
102
255
174
76
255
204
102
255
204
102
255
204
51
255
192
84
255
192
84
255
204
102
255
204
102
255
204
102
255
174
76
255
192
84
255
192
84
255
192
84
255
174
76
255
204
153
255
204
102
255
192
84
255
204
102
255
255
102
255
255
153
255
153
51
119
119
119
102
51
0
204
102
51
255
174
76
255
204
102
255
204
51
255
204
102
255
204
102
255
174
76
255
192
84
255
192
84
255
153
51
255
204
102
255
204
102
255
204
102
255
174
76
255
204
102
255
204
153
255
204
51
255
204
102
255
204
102
255
204
102
255
204
102
255
174
76
255
192
84
255
192
84
255
174
76
255
204
102
255
204
102
255
174
76
255
204
102
255
204
153
255
204
102
255
204
102
255
174
76
255
204
102
255
204
102
255
204
102
255
192
84
255
192
84
255
204
102
255
204
102
255
204
102
255
174
76
255
204
102
255
204
102
255
204
51
255
192
84
255
192
84
255
204
102
255
204
102
255
204
102
255
174
76
255
192
84
255
192
84
255
192
84
255
174
76
255
204
153
255
204
102
255
192
84
255
204
102
255
255
102
255
255
153
255
153
51
119
119
119
102
51
0
204
102
51
255
174
76
255
204
102
255
204
51
255
204
102
255
204
102
255
174
76
255
192
84
255
192
84
255
153
51
255
204
102
255
204
102
255
204
102
255
174
76
255
204
102
255
204
153
255
204
51
255
204
102
255
204
102
255
204
102
255
204
102
255
174
76
255
192
84
255
192
84
255
174
76
255
204
102
255
204
102
255
174
76
255
204
102
255
204
153
255
204
102
255
204
102
255
204
102
255
174
76
255
204
102
255
204
102
255
192
84
255
192
84
255
204
102
255
204
102
255
204
102
255
174
76
255
204
102
255
204
102
255
204
51
255
192
84
255
192
84
255
204
102
255
204
102
255
204
102
255
174
76
255
192
84
255
192
84
255
192
84
255
174
76
255
204
153
255
204
102
255
192
84
255
204
102
255
255
102
255
255
153
255
153
51
119
119
119
102
51
0
204
102
51
255
174
76
255
204
102
255
204
51
255
204
102
255
204
102
255
174
76
255
192
84
255
192
84
255
153
51
255
204
102
255
204
102
255
204
102
255
174
76
255
204
102
255
204
153
255
204
51
255
204
102
255
204
102
255
204
102
255
204
102
255
174
76
255
192
84
255
192
84
255
174
76
255
204
102
255
204
102
255
174
76
255
204
102
255
204
153
255
204
102
255
204
102
255
204
102
255
174
76
255
204
102
255
204
102
255
192
84
255
192
84
255
204
102
255
204
102
255
204
102
255
174
76
255
204
102
255
204
102
255
204
51
255
192
84
255
192
84
255
204
102
255
204
102
255
204
102
255
174
76
255
192
84
255
192
84
255
192
84
255
174
76
255
204
153
255
204
102
255
192
84
255
204
102
255
255
102
255
255
153
255
153
51
119
119
119
102
51
0
204
102
51
255
174
76
255
204
102
255
204
51
255
204
102
255
204
102
255
174
76
255
192
84
255
192
84
255
153
51
255
204
102
255
204
102
255
204
102
255
174
76
255
204
102
255
204
153
255
204
51
255
204
102
255
204
102
255
204
102
255
204
102
255
174
76
255
192
84
255
192
84
255
174
76
255
204
102
255
204
102
255
174
76
255
204
102
255
204
153
255
204
102
255
204
102
255
204
102
255
174
76
255
204
102
255
204
102
255
192
84
255
192
84
255
204
102
255
204
102
255
204
102
255
174
76
255
204
102
255
204
102
255
204
51
255
192
84
255
192
84
255
204
102
255
204
102
255
204
102
255
174
76
255
192
84
255
192
84
255
192
84
255
174
76
255
204
153
255
204
102
255
192
84
255
204
102
255
255
102
255
255
153
255
153
51
119
119
119
102
51
0
204
102
51
255
174
76
255
204
102
255
204
51
255
204
102
255
204
102
255
174
76
255
192
84
255
192
84
255
153
51
255
204
102
255
204
102
255
204
102
255
174
76
255
204
102
255
204
153
255
204
51
255
204
102
255
204
102
255
204
102
255
204
102
255
174
76
255
192
84
255
192
84
255
174
76
255
204
102
255
204
102
255
174
76
255
204
102
255
204
153
255
204
102
255
204
102
255
204
102
255
174
76
255
204
102
255
204
102
255
192
84
255
192
84
255
204
102
255
204
102
255
204
102
255
174
76
255
204
102
255
204
102
255
204
51
255
192
84
255
192
84
255
204
102
255
204
102
255
204
102
255
174
76
255
192
84
255
192
84
255
192
84
255
174
76
255
204
153
255
204
102
255
192
84
255
204
102
255
255
102
255
255
153
255
153
51
119
119
119
102
51
0
204
102
51
255
174
76
255
204
102
255
204
51
255
204
102
255
204
102
255
174
76
255
192
84
255
192
84
255
153
51
255
204
102
255
204
102
255
204
102
255
174
76
255
204
102
255
204
153
255
204
51
255
204
102
255
204
102
255
204
102
255
204
102
255
174
76
255
192
84
255
174
76
255
204
102
255
204
102
255
204
102
255
174
76
255
204
102
255
204
102
255
204
102
255
204
102
255
204
102
255
174
76
255
204
102
255
204
102
255
192
84
255
204
153
255
204
102
255
204
102
255
174
76
255
204
102
255
204
102
255
204
102
255
204
51
255
192
84
255
192
84
255
204
102
255
204
102
255
204
102
255
174
76
255
192
84
255
192
84
255
192
84
255
174
76
255
204
153
255
204
102
255
192
84
255
204
102
255
255
102
255
255
153
255
153
51
119
119
119
102
51
0
204
102
51
255
174
76
255
204
102
255
204
51
255
204
102
255
204
102
255
174
76
255
192
84
255
192
84
255
153
51
255
204
102
255
204
102
255
204
102
255
174
76
255
204
102
255
204
153
255
204
51
255
204
102
255
204
102
255
204
102
255
174
76
255
192
84
255
192
84
255
174
76
255
204
102
255
204
102
255
204
102
255
174
76
255
204
102
255
204
102
255
204
102
255
204
102
255
204
102
255
174
76
255
204
102
255
204
102
255
192
84
255
204
153
255
204
102
255
204
102
255
204
102
255
174
76
255
204
102
255
204
102
255
204
51
255
192
84
255
192
84
255
204
153
255
204
102
255
204
102
255
174
76
255
192
84
255
192
84
255
192
84
255
174
76
255
204
153
255
204
102
255
192
84
255
204
102
255
255
102
255
255
153
255
153
51
119
119
119
102
51
0
204
102
51
255
174
76
255
204
102
255
204
51
255
204
102
255
204
102
255
174
76
255
192
84
255
192
84
255
153
51
255
204
102
255
204
102
255
204
102
255
174
76
255
204
102
255
204
153
255
204
51
255
204
102
255
204
102
255
204
102
255
174
76
255
192
84
255
192
84
255
174
76
255
204
102
255
204
102
255
204
102
255
174
76
255
204
102
255
204
102
255
204
102
255
204
102
255
204
102
255
174
76
255
204
102
255
204
102
255
192
84
255
192
84
255
204
102
255
204
102
255
204
102
255
174
76
255
204
102
255
204
102
255
204
51
255
192
84
255
192
84
255
204
153
255
204
102
255
204
102
255
174
76
255
192
84
255
192
84
255
192
84
255
174
76
255
204
153
255
204
102
255
192
84
255
204
102
255
255
102
255
255
153
255
153
51
119
119
119
102
51
0
204
102
51
255
174
76
255
204
102
255
204
51
255
204
102
255
204
102
255
174
76
255
192
84
255
192
84
255
153
51
255
204
102
255
204
102
255
204
102
255
174
76
255
204
102
255
204
153
255
204
51
255
204
102
255
204
102
255
204
102
255
174
76
255
192
84
255
192
84
255
174
76
255
204
102
255
204
102
255
204
102
255
174
76
255
204
102
255
204
102
255
204
102
255
204
102
255
174
76
255
204
102
255
204
102
255
204
102
255
204
102
255
192
84
255
192
84
255
204
102
255
204
102
255
174
76
255
204
102
255
204
102
255
204
51
255
192
84
255
192
84
255
204
153
255
204
102
255
204
102
255
174
76
255
192
84
255
192
84
255
192
84
255
174
76
255
204
153
255
204
102
255
192
84
255
204
102
255
255
102
255
255
153
255
153
51
119
119
119
102
51
0
204
102
51
255
174
76
255
204
102
255
204
51
255
204
102
255
204
102
255
174
76
255
192
84
255
192
84
255
153
51
255
204
102
255
204
102
255
174
76
255
204
102
255
204
102
255
204
153
255
204
51
255
204
102
255
204
102
255
204
102
255
174
76
255
192
84
255
192
84
255
174
76
255
204
102
255
204
102
255
204
102
255
174
76
255
204
102
255
204
102
255
204
102
255
174
76
255
204
102
255
204
102
255
174
76
255
204
102
255
204
102
255
192
84
255
192
84
255
204
102
255
204
102
255
174
76
255
204
102
255
204
102
255
204
51
255
192
84
255
192
84
255
204
153
255
204
102
255
204
102
255
174
76
255
192
84
255
192
84
255
192
84
255
174
76
255
204
153
255
204
102
255
192
84
255
204
102
255
255
102
255
255
153
255
153
51
119
119
119
102
51
0
204
102
51
255
174
76
255
204
102
255
204
51
255
204
102
255
204
102
255
174
76
255
192
84
255
192
84
255
153
51
255
204
102
255
204
102
255
174
76
255
204
102
255
204
102
255
204
153
255
204
51
255
204
102
255
204
102
255
204
102
255
174
76
255
192
84
255
192
84
255
174
76
255
204
102
255
204
102
255
204
102
255
174
76
255
204
102
255
204
102
255
204
102
255
174
76
255
204
102
255
204
102
255
174
76
255
174
76
255
204
102
255
192
84
255
192
84
255
204
102
255
204
102
255
174
76
255
204
102
255
204
102
255
204
51
255
192
84
255
192
84
255
204
153
255
204
102
255
204
102
255
174
76
255
192
84
255
192
84
255
192
84
255
174
76
255
204
153
255
204
102
255
192
84
255
204
102
255
255
102
255
255
153
255
153
51
119
119
119
102
51
0
204
102
51
255
174
76
255
204
102
255
204
51
255
204
102
255
204
102
255
174
76
255
192
84
255
192
84
255
153
51
255
204
102
255
204
102
255
174
76
255
204
102
255
204
102
255
204
153
255
204
51
255
204
102
255
204
102
255
204
102
255
174
76
255
192
84
255
192
84
255
174
76
255
204
102
255
204
102
255
204
102
255
174
76
255
204
102
255
204
102
255
204
102
255
174
76
255
204
102
255
204
102
255
174
76
255
174
76
255
204
102
255
192
84
255
192
84
255
204
102
255
204
102
255
174
76
255
204
102
255
204
102
255
204
51
255
192
84
255
192
84
255
204
153
255
204
102
255
204
102
255
174
76
255
192
84
255
192
84
255
192
84
255
174
76
255
204
153
255
204
102
255
192
84
255
204
102
255
255
102
255
255
153
255
153
51
119
119
119
102
51
0
204
102
51
255
174
76
255
204
102
255
204
51
255
204
102
255
204
102
255
174
76
255
192
84
255
192
84
255
153
51
255
204
102
255
204
102
255
174
76
255
204
102
255
204
102
255
204
153
255
204
51
255
204
102
255
204
102
255
204
102
255
204
102
255
174
76
255
192
84
255
174
76
255
204
102
255
204
102
255
204
102
255
174
76
255
204
102
255
204
102
255
174
76
255
204
102
255
204
102
255
174
76
255
204
102
255
174
76
255
204
102
255
192
84
255
192
84
255
204
102
255
204
102
255
174
76
255
204
102
255
204
102
255
204
51
255
192
84
255
192
84
255
204
153
255
204
102
255
204
102
255
174
76
255
192
84
255
192
84
255
192
84
255
174
76
255
204
153
255
204
102
255
192
84
255
204
102
255
255
102
255
255
153
255
153
51
119
119
119
