P3
# CREATOR: GIMP PNM Filter Version 1.1
64 64
255
102
51
0
204
102
51
255
174
76
255
204
102
255
204
51
255
204
102
255
204
102
255
174
76
255
192
84
255
192
84
255
153
51
255
204
102
255
204
102
255
204
102
255
174
76
255
204
102
255
204
153
255
204
51
255
204
102
255
204
102
255
204
102
255
204
102
255
174
76
255
192
84
255
174
76
255
204
102
255
204
102
255
204
102
255
174
76
255
204
102
255
204
102
255
204
102
255
204
102
255
204
102
255
174
76
255
204
102
255
204
102
255
192
84
255
204
153
255
204
102
255
204
102
255
174
76
255
204
102
255
204
102
255
204
102
255
204
51
255
192
84
255
192
84
255
204
102
255
204
102
255
204
102
255
174
76
255
192
84
255
192
84
255
192
84
255
174
76
255
204
153
255
204
102
255
192
84
255
204
102
255
255
102
255
255
153
255
153
51
119
119
119
102
51
0
204
102
51
255
174
76
255
204
102
255
204
51
255
204
102
255
204
102
255
174
76
255
192
84
255
192
84
255
153
51
255
204
102
255
204
102
255
204
102
255
174
76
255
204
102
255
204
153
255
204
51
255
204
102
255
204
102
255
204
102
255
174
76
255
192
84
255
192
84
255
174
76
255
204
102
255
204
102
255
204
102
255
174
76
255
204
102
255
204
102
255
204
102
255
204
102
255
204
102
255
174
76
255
204
102
255
204
102
255
192
84
255
204
153
255
204
102
255
204
102
255
204
102
255
174
76
255
204
102
255
204
102
255
204
51
255
192
84
255
192
84
255
204
153
255
204
102
255
204
102
255
174
76
255
192
84
255
192
84
255
192
84
255
174
76
255
204
153
255
204
102
255
192
84
255
204
102
255
255
102
255
255
153
255
153
51
119
119
119
102
51
0
204
102
51
255
174
76
255
204
102
255
204
51
255
204
102
255
204
102
255
174
76
255
192
84
255
192
84
255
153
51
255
204
102
255
204
102
255
204
102
255
174
76
255
204
102
255
204
153
255
204
51
255
204
102
255
204
102
255
204
102
255
174
76
255
192
84
255
192
84
255
174
76
255
204
102
255
204
102
255
204
102
255
174
76
255
204
102
255
204
102
255
204
102
255
204
102
255
204
102
255
174
76
255
204
102
255
204
102
255
192
84
255
192
84
255
204
102
255
204
102
255
204
102
255
174
76
255
204
102
255
204
102
255
204
51
255
192
84
255
192
84
255
204
153
255
204
102
255
204
102
255
174
76
255
192
84
255
192
84
255
192
84
255
174
76
255
204
153
255
204
102
255
192
84
255
204
102
255
255
102
255
255
153
255
153
51
119
119
119
102
51
0
204
102
51
255
174
76
255
204
102
255
204
51
255
204
102
255
204
102
255
174
76
255
192
84
255
192
84
255
153
51
255
204
102
255
204
102
255
204
102
255
174
76
255
204
102
255
204
153
255
204
51
255
204
102
255
204
102
255
204
102
255
174
76
255
192
84
255
192
84
255
174
76
255
204
102
255
204
102
255
204
102
255
174
76
255
204
102
255
204
102
255
204
102
255
204
102
255
174
76
255
204
102
255
204
102
255
204
102
255
204
102
255
192
84
255
192
84
255
204
102
255
204
102
255
174
76
255
204
102
255
204
102
255
204
51
255
192
84
255
192
84
255
204
153
255
204
102
255
204
102
255
174
76
255
192
84
255
192
84
255
192
84
255
174
76
255
204
153
255
204
102
255
192
84
255
204
102
255
255
102
255
255
153
255
153
51
119
119
119
102
51
0
204
102
51
255
174
76
255
204
102
255
204
51
255
204
102
255
204
102
255
174
76
255
192
84
255
192
84
255
153
51
255
204
102
255
204
102
255
174
76
255
204
102
255
204
102
255
204
153
255
204
51
255
204
102
255
204
102
255
204
102
255
174
76
255
192
84
255
192
84
255
174
76
255
204
102
255
204
102
255
204
102
255
174
76
255
204
102
255
204
102
255
204
102
255
174
76
255
204
102
255
204
102
255
174
76
255
204
102
255
204
102
255
192
84
255
192
84
255
204
102
255
204
102
255
174
76
255
204
102
255
204
102
255
204
51
255
192
84
255
192
84
255
204
153
255
204
102
255
204
102
255
174
76
255
192
84
255
192
84
255
192
84
255
174
76
255
204
153
255
204
102
255
192
84
255
204
102
255
255
102
255
255
153
255
153
51
119
119
119
102
51
0
204
102
51
255
174
76
255
204
102
255
204
51
255
204
102
255
204
102
255
174
76
255
192
84
255
192
84
255
153
51
255
204
102
255
204
102
255
174
76
255
204
102
255
204
102
255
204
153
255
204
51
255
204
102
255
204
102
255
204
102
255
174
76
255
192
84
255
192
84
255
174
76
255
204
102
255
204
102
255
204
102
255
174
76
255
204
102
255
204
102
255
204
102
255
174
76
255
204
102
255
204
102
255
174
76
255
174
76
255
204
102
255
192
84
255
192
84
255
204
102
255
204
102
255
174
76
255
204
102
255
204
102
255
204
51
255
192
84
255
192
84
255
204
153
255
204
102
255
204
102
255
174
76
255
192
84
255
192
84
255
192
84
255
174
76
255
204
153
255
204
102
255
192
84
255
204
102
255
255
102
255
255
153
255
153
51
119
119
119
102
51
0
204
102
51
255
174
76
255
204
102
255
204
51
255
204
102
255
204
102
255
174
76
255
192
84
255
192
84
255
153
51
255
204
102
255
204
102
255
174
76
255
204
102
255
204
102
255
204
153
255
204
51
255
204
102
255
204
102
255
204
102
255
174
76
255
192
84
255
192
84
255
174
76
255
204
102
255
204
102
255
204
102
255
174
76
255
204
102
255
204
102
255
204
102
255
174
76
255
204
102
255
204
102
255
174
76
255
174
76
255
204
102
255
192
84
255
192
84
255
204
102
255
204
102
255
174
76
255
204
102
255
204
102
255
204
51
255
192
84
255
192
84
255
204
153
255
204
102
255
204
102
255
174
76
255
192
84
255
192
84
255
192
84
255
174
76
255
204
153
255
204
102
255
192
84
255
204
102
255
255
102
255
255
153
255
153
51
119
119
119
102
51
0
204
102
51
255
174
76
255
204
102
255
204
51
255
204
102
255
204
102
255
174
76
255
192
84
255
192
84
255
153
51
255
204
102
255
204
102
255
174
76
255
204
102
255
204
102
255
204
153
255
204
51
255
204
102
255
204
102
255
204
102
255
204
102
255
174
76
255
192
84
255
174
76
255
204
102
255
204
102
255
204
102
255
174
76
255
204
102
255
204
102
255
174
76
255
204
102
255
204
102
255
174
76
255
204
102
255
174
76
255
204
102
255
192
84
255
192
84
255
204
102
255
204
102
255
174
76
255
204
102
255
204
102
255
204
51
255
192
84
255
192
84
255
204
153
255
204
102
255
204
102
255
174
76
255
192
84
255
192
84
255
192
84
255
174
76
255
204
153
255
204
102
255
192
84
255
204
102
255
255
102
255
255
153
255
153
51
119
119
119
102
51
0
204
102
51
255
174
76
255
204
102
255
204
51
255
204
102
255
204
102
255
174
76
255
192
84
255
192
84
255
153
51
255
204
102
255
204
102
255
174
76
255
204
102
255
204
102
255
204
153
255
204
51
255
204
102
255
204
102
255
204
102
255
204
102
255
174
76
255
192
84
255
174
76
255
204
102
255
204
102
255
204
102
255
174
76
255
204
102
255
204
102
255
174
76
255
204
102
255
204
102
255
174
76
255
204
102
255
174
76
255
204
102
255
204
153
255
192
84
255
204
102
255
204
102
255
174
76
255
204
102
255
204
102
255
204
51
255
192
84
255
192
84
255
204
153
255
204
102
255
204
102
255
174
76
255
192
84
255
192
84
255
192
84
255
174
76
255
204
153
255
204
102
255
192
84
255
204
102
255
255
102
255
255
153
255
153
51
119
119
119
102
51
0
204
102
51
255
174
76
255
204
102
255
204
51
255
204
102
255
204
102
255
174
76
255
192
84
255
192
84
255
153
51
255
204
102
255
204
102
255
174
76
255
204
102
255
204
102
255
204
153
255
204
51
255
204
102
255
204
102
255
204
102
255
204
102
255
174
76
255
192
84
255
174
76
255
204
102
255
204
102
255
204
102
255
174
76
255
204
102
255
174
76
255
204
102
255
204
102
255
204
102
255
174
76
255
204
51
255
174
76
255
204
102
255
204
102
255
192
84
255
204
102
255
204
102
255
174
76
255
204
102
255
204
102
255
204
51
255
192
84
255
192
84
255
204
153
255
204
102
255
204
102
255
174
76
255
192
84
255
192
84
255
192
84
255
174
76
255
204
153
255
204
102
255
192
84
255
204
102
255
255
102
255
255
153
255
153
51
119
119
119
102
51
0
204
102
51
255
174
76
255
204
102
255
204
51
255
204
102
255
204
102
255
174
76
255
192
84
255
192
84
255
153
51
255
204
102
255
204
102
255
174
76
255
204
102
255
204
102
255
204
153
255
204
51
255
204
102
255
204
102
255
204
102
255
204
102
255
174
76
255
192
84
255
174
76
255
204
102
255
204
102
255
204
102
255
174
76
255
204
102
255
174
76
255
204
102
255
204
102
255
204
102
255
174
76
255
204
51
255
204
102
255
174
76
255
204
102
255
192
84
255
204
153
255
204
102
255
174
76
255
204
102
255
204
102
255
204
51
255
192
84
255
192
84
255
204
153
255
204
102
255
204
102
255
174
76
255
192
84
255
192
84
255
192
84
255
174
76
255
204
153
255
204
102
255
192
84
255
204
102
255
255
102
255
255
153
255
153
51
119
119
119
102
51
0
204
102
51
255
174
76
255
204
102
255
204
51
255
204
102
255
204
102
255
174
76
255
192
84
255
192
84
255
153
51
255
204
102
255
204
102
255
174
76
255
204
102
255
204
102
255
204
153
255
204
51
255
204
102
255
204
102
255
204
102
255
204
102
255
174
76
255
192
84
255
174
76
255
204
102
255
204
102
255
204
102
255
174
76
255
204
102
255
174
76
255
204
102
255
204
102
255
153
51
255
204
102
255
204
51
255
204
102
255
174
76
255
204
102
255
192
84
255
192
84
255
204
102
255
174
76
255
204
102
255
204
102
255
204
51
255
192
84
255
192
84
255
204
153
255
204
102
255
204
102
255
174
76
255
192
84
255
192
84
255
192
84
255
174
76
255
204
153
255
204
102
255
192
84
255
204
102
255
255
102
255
255
153
255
153
51
119
119
119
102
51
0
204
102
51
255
174
76
255
204
102
255
204
51
255
204
102
255
204
102
255
174
76
255
192
84
255
192
84
255
153
51
255
204
102
255
204
102
255
174
76
255
204
102
255
204
102
255
204
153
255
204
51
255
204
102
255
204
102
255
204
102
255
204
102
255
174
76
255
192
84
255
174
76
255
204
102
255
204
102
255
204
102
255
174
76
255
204
102
255
174
76
255
204
102
255
204
102
255
153
51
255
204
102
255
204
51
255
204
102
255
174
76
255
204
102
255
192
84
255
192
84
255
204
102
255
174
76
255
204
102
255
204
102
255
204
51
255
192
84
255
192
84
255
204
153
255
204
102
255
204
102
255
174
76
255
192
84
255
192
84
255
192
84
255
174
76
255
204
153
255
204
102
255
192
84
255
204
102
255
255
102
255
255
153
255
153
51
119
119
119
102
51
0
204
102
51
255
174
76
255
204
102
255
204
51
255
204
102
255
204
102
255
174
76
255
192
84
255
192
84
255
153
51
255
204
102
255
204
102
255
174
76
255
204
102
255
204
102
255
204
153
255
204
51
255
204
102
255
204
102
255
204
102
255
204
102
255
174
76
255
192
84
255
174
76
255
204
102
255
204
102
255
204
102
255
174
76
255
204
102
255
174
76
255
204
102
255
204
102
255
153
51
255
204
102
255
204
51
255
204
102
255
174
76
255
204
102
255
204
102
255
192
84
255
204
102
255
174
76
255
204
102
255
204
102
255
204
51
255
192
84
255
192
84
255
204
153
255
204
102
255
204
102
255
174
76
255
192
84
255
192
84
255
192
84
255
174
76
255
204
153
255
204
102
255
192
84
255
204
102
255
255
102
255
255
153
255
153
51
119
119
119
102
51
0
204
102
51
255
174
76
255
204
102
255
204
51
255
204
102
255
204
102
255
174
76
255
192
84
255
192
84
255
153
51
255
204
102
255
204
102
255
174
76
255
204
102
255
204
102
255
204
153
255
204
51
255
204
102
255
204
102
255
204
102
255
204
102
255
174
76
255
192
84
255
174
76
255
204
102
255
204
102
255
204
102
255
174
76
255
204
102
255
174
76
255
204
102
255
204
102
255
153
51
255
204
102
255
204
102
255
204
102
255
204
102
255
153
51
255
204
102
255
192
84
255
204
102
255
174
76
255
204
102
255
204
102
255
204
51
255
192
84
255
192
84
255
204
153
255
204
102
255
204
102
255
174
76
255
192
84
255
192
84
255
192
84
255
174
76
255
204
153
255
204
102
255
192
84
255
204
102
255
255
102
255
255
153
255
153
51
119
119
119
102
51
0
204
102
51
255
174
76
255
204
102
255
204
51
255
204
102
255
204
102
255
174
76
255
192
84
255
192
84
255
153
51
255
204
102
255
204
102
255
174
76
255
204
102
255
204
102
255
204
153
255
204
51
255
204
102
255
204
102
255
204
102
255
204
102
255
174
76
255
192
84
255
174
76
255
204
102
255
204
102
255
204
102
255
174
76
255
204
102
255
174
76
255
204
102
255
204
102
255
153
51
255
204
102
255
153
51
255
204
51
255
204
102
255
153
51
255
204
102
255
192
84
255
204
102
255
174
76
255
204
102
255
204
102
255
204
51
255
192
84
255
192
84
255
204
153
255
204
102
255
204
102
255
174
76
255
192
84
255
192
84
255
192
84
255
174
76
255
204
153
255
204
102
255
192
84
255
204
102
255
255
102
255
255
153
255
153
51
119
119
119
102
51
0
204
102
51
255
174
76
255
204
102
255
204
51
255
204
102
255
204
102
255
174
76
255
192
84
255
192
84
255
153
51
255
204
102
255
204
102
255
174
76
255
204
102
255
204
102
255
204
153
255
204
51
255
204
102
255
204
102
255
204
102
255
204
102
255
174
76
255
192
84
255
174
76
255
204
102
255
204
102
255
204
102
255
174
76
255
204
102
255
174
76
255
204
102
255
153
51
255
204
51
255
204
102
255
153
51
255
153
51
255
204
102
255
153
51
255
204
102
255
192
84
255
204
102
255
174
76
255
204
102
255
204
102
255
204
51
255
192
84
255
192
84
255
204
153
255
204
102
255
204
102
255
174
76
255
192
84
255
192
84
255
192
84
255
174
76
255
204
153
255
204
102
255
192
84
255
204
102
255
255
102
255
255
153
255
153
51
119
119
119
102
51
0
204
102
51
255
174
76
255
204
102
255
204
51
255
204
102
255
204
102
255
174
76
255
192
84
255
192
84
255
153
51
255
204
102
255
204
102
255
174
76
255
204
102
255
204
102
255
204
153
255
204
51
255
204
102
255
204
102
255
204
102
255
204
102
255
174
76
255
192
84
255
174
76
255
204
102
255
204
102
255
204
102
255
174
76
255
204
102
255
174
76
255
204
102
255
153
51
255
204
102
255
153
51
255
153
51
255
102
0
255
153
51
255
204
102
255
153
51
255
204
102
255
204
153
255
174
76
255
204
102
255
204
102
255
204
51
255
192
84
255
192
84
255
204
153
255
204
102
255
204
102
255
174
76
255
192
84
255
192
84
255
192
84
255
174
76
255
204
153
255
204
102
255
192
84
255
204
102
255
255
102
255
255
153
255
153
51
119
119
119
102
51
0
204
102
51
255
174
76
255
204
102
255
204
51
255
204
102
255
204
102
255
174
76
255
192
84
255
192
84
255
153
51
255
204
102
255
204
102
255
174
76
255
204
102
255
204
102
255
204
153
255
204
51
255
204
102
255
204
102
255
204
102
255
204
102
255
174
76
255
192
84
255
174
76
255
204
102
255
204
102
255
204
102
255
174
76
255
204
102
255
174
76
255
204
102
255
153
51
255
204
102
255
153
0
255
102
0
255
153
51
255
153
51
255
204
102
255
153
51
255
204
102
255
204
153
255
204
102
255
174
76
255
204
102
255
204
51
255
192
84
255
192
84
255
204
153
255
204
102
255
204
102
255
204
102
255
174
76
255
192
84
255
192
84
255
174
76
255
204
153
255
204
102
255
192
84
255
204
102
255
255
102
255
255
153
255
153
51
119
119
119
102
51
0
204
102
51
255
174
76
255
204
102
255
204
51
255
204
102
255
204
102
255
174
76
255
192
84
255
192
84
255
153
51
255
204
102
255
204
102
255
174
76
255
204
102
255
204
102
255
204
153
255
204
51
255
204
102
255
204
102
255
204
102
255
204
102
255
174
76
255
192
84
255
174
76
255
204
102
255
204
102
255
174
76
255
204
102
255
204
102
255
174
76
255
204
102
255
153
51
255
204
102
255
153
51
255
174
76
255
153
51
255
204
102
255
204
102
255
153
51
255
204
102
255
204
153
255
204
102
255
174
76
255
204
102
255
204
51
255
192
84
255
192
84
255
204
153
255
204
102
255
204
102
255
204
102
255
174
76
255
192
84
255
192
84
255
174
76
255
204
153
255
204
102
255
192
84
255
204
102
255
255
102
255
255
153
255
153
51
119
119
119
102
51
0
204
102
51
255
174
76
255
204
102
255
204
51
255
204
102
255
204
102
255
174
76
255
192
84
255
192
84
255
153
51
255
204
102
255
204
102
255
174
76
255
204
102
255
204
102
188
150
179
71
56
197
0
0
255
0
0
255
255
204
102
255
204
102
255
174
76
255
192
84
255
174
76
255
204
102
255
204
102
255
174
76
255
204
102
255
204
102
255
174
76
255
204
102
255
153
51
255
204
102
255
153
51
255
174
76
255
153
51
255
204
102
255
204
102
255
153
51
255
204
102
255
204
153
255
204
102
255
174
76
255
204
102
255
204
51
255
192
84
255
192
84
255
204
153
255
204
102
255
204
102
255
204
102
255
174
76
255
192
84
255
192
84
255
174
76
255
204
153
255
204
102
255
192
84
255
204
102
255
255
102
255
255
153
255
153
51
119
119
119
102
51
0
204
102
51
255
174
76
255
204
102
255
204
51
255
204
102
255
204
102
255
174
76
255
192
84
255
192
84
255
153
51
255
204
102
255
204
102
222
151
98
136
108
172
37
29
231
0
0
255
0
0
255
0
0
255
0
0
255
255
204
102
255
204
102
255
174
76
255
192
84
255
192
84
255
174
76
255
204
102
255
174
76
255
204
102
255
204
102
255
174
76
255
204
102
255
153
51
192
153
139
0
0
255
0
0
255
0
0
255
0
0
255
0
0
255
0
0
255
0
0
255
0
0
255
0
0
255
0
0
255
0
0
255
0
0
255
0
0
255
0
0
255
255
204
153
255
204
102
255
204
102
255
204
102
255
174
76
255
192
84
255
192
84
255
174
76
255
204
153
255
204
102
255
192
84
255
204
102
255
255
102
255
255
153
255
153
51
119
119
119
102
51
0
204
102
51
255
174
76
255
204
102
255
204
51
255
204
102
255
204
102
255
174
76
255
192
84
255
192
84
203
121
91
126
100
178
51
40
223
0
0
255
0
0
255
0
0
255
0
0
255
0
0
255
0
0
255
0
0
255
255
204
102
255
204
102
255
174
76
255
192
84
255
192
84
255
174
76
255
204
102
255
174
76
255
204
102
255
204
102
255
174
76
255
204
102
255
153
51
163
130
156
0
0
255
0
0
255
0
0
255
0
0
255
0
0
255
0
0
255
0
0
255
0
0
255
0
0
255
0
0
255
0
0
255
0
0
255
0
0
255
0
0
255
255
204
153
255
204
102
255
204
102
255
204
102
255
174
76
255
192
84
255
192
84
255
174
76
255
204
153
255
204
102
255
192
84
255
204
102
255
255
102
255
255
153
255
153
51
119
119
119
102
51
0
204
102
51
255
174
76
255
204
102
255
204
51
255
204
102
255
204
102
255
174
76
255
192
84
255
192
84
76
45
193
0
0
255
0
0
255
0
0
255
0
0
255
2
1
252
58
46
231
0
0
255
0
0
255
0
0
255
255
204
102
255
204
102
255
174
76
255
192
84
255
192
84
255
174
76
255
204
102
255
174
76
255
204
102
255
204
102
255
174
76
255
204
102
255
153
51
133
106
174
0
0
255
0
0
255
0
0
255
0
0
255
0
0
255
0
0
255
0
0
255
0
0
255
0
0
255
0
0
255
0
0
255
0
0
255
0
0
255
0
0
255
255
204
153
255
204
102
255
204
102
255
204
102
255
174
76
255
192
84
255
192
84
255
174
76
255
204
153
255
204
102
255
192
84
255
204
102
255
255
102
255
255
153
255
153
51
119
119
119
102
51
0
204
102
51
255
174
76
255
204
102
255
204
51
255
204
102
255
204
102
255
174
76
255
192
84
255
192
84
135
81
146
0
0
255
16
12
244
78
53
199
152
121
162
231
184
115
255
204
153
0
0
255
0
0
255
0
0
255
255
204
102
255
204
102
255
174
76
255
192
84
255
192
84
255
174
76
255
204
102
255
174
76
255
204
102
255
204
102
255
174
76
255
204
102
255
153
51
104
83
192
0
0
255
0
0
255
177
106
112
255
204
102
255
153
51
255
204
102
255
204
102
255
204
153
255
204
102
255
174
76
255
204
102
255
204
51
255
192
84
255
192
84
255
204
153
255
204
102
255
204
102
255
204
102
255
174
76
255
192
84
255
192
84
255
174
76
255
204
153
255
204
102
255
192
84
255
204
102
255
255
102
255
255
153
255
153
51
119
119
119
102
51
0
204
102
51
255
174
76
255
204
102
255
204
51
255
204
102
255
204
102
255
174
76
255
192
84
255
192
84
227
136
72
205
164
131
253
202
102
255
174
76
255
204
102
255
204
102
255
204
153
0
0
255
0
0
255
0
0
255
255
204
102
255
204
102
255
174
76
255
192
84
255
192
84
255
174
76
255
204
102
255
174
76
255
204
102
255
204
102
255
174
76
255
204
102
255
204
102
75
45
194
0
0
255
0
0
255
212
169
126
255
204
102
255
153
51
255
204
102
255
204
102
255
192
84
255
204
102
255
174
76
255
204
102
255
204
51
255
192
84
255
192
84
255
204
153
255
204
102
255
204
102
255
204
102
255
174
76
255
192
84
255
192
84
255
174
76
255
204
153
255
204
102
255
192
84
255
204
102
255
255
102
255
255
153
255
153
51
119
119
119
102
51
0
204
102
51
255
174
76
255
204
102
255
204
51
255
204
102
255
204
102
255
174
76
255
192
84
255
192
84
255
153
51
255
204
102
255
204
102
255
174
76
255
204
102
255
204
102
255
204
153
0
0
255
0
0
255
0
0
255
255
204
102
255
204
102
255
174
76
255
192
84
255
192
84
255
174
76
255
204
102
255
174
76
255
204
102
255
204
102
255
174
76
255
204
102
255
204
102
45
27
218
0
0
255
0
0
255
246
196
106
255
204
102
255
153
51
255
204
102
255
204
102
255
192
84
255
204
102
255
174
76
255
204
102
255
204
51
255
192
84
255
192
84
255
204
153
255
204
102
255
204
102
255
204
102
255
174
76
255
192
84
255
192
84
255
174
76
255
204
153
255
204
102
255
192
84
255
204
102
255
255
102
255
255
153
255
153
51
119
119
119
102
51
0
204
102
51
255
174
76
255
204
102
255
204
51
255
204
102
255
204
102
255
174
76
255
192
84
255
192
84
255
153
51
255
204
102
255
204
102
255
174
76
255
204
102
255
204
102
255
204
153
0
0
255
0
0
255
0
0
255
255
204
102
255
174
76
255
192
84
255
192
84
255
192
84
255
174
76
255
204
102
255
174
76
255
204
102
255
204
102
255
174
76
255
204
102
255
204
102
16
12
244
0
0
255
25
20
239
255
204
102
255
204
102
255
153
51
255
204
102
255
204
102
255
192
84
255
204
102
255
174
76
255
204
102
255
204
51
255
192
84
255
192
84
255
204
153
255
204
102
255
204
102
255
204
102
255
174
76
255
192
84
255
192
84
255
174
76
255
204
153
255
204
102
255
192
84
255
204
102
255
255
102
255
255
153
255
153
51
119
119
119
102
51
0
204
102
51
255
174
76
255
204
102
255
204
51
255
204
102
255
204
102
255
174
76
255
192
84
255
192
84
255
153
51
255
204
102
255
204
102
255
174
76
255
204
102
255
204
102
255
204
153
0
0
255
0
0
255
0
0
255
255
204
102
255
174
76
255
192
84
255
192
84
255
192
84
255
174
76
255
204
102
255
174
76
255
204
102
255
204
102
255
174
76
255
204
102
242
193
108
0
0
255
0
0
255
59
47
218
255
204
102
255
204
102
255
153
51
255
204
102
255
204
51
255
192
84
255
204
102
255
174
76
255
204
102
255
204
51
255
192
84
255
192
84
255
204
153
255
204
102
255
204
102
255
204
102
255
174
76
255
192
84
255
192
84
255
174
76
255
204
153
255
204
102
255
192
84
255
204
102
255
255
102
255
255
153
255
153
51
119
119
119
102
51
0
204
102
51
255
174
76
255
204
102
255
204
51
255
204
102
255
174
76
255
192
84
255
192
84
255
192
84
255
153
51
255
204
102
255
204
102
255
174
76
255
204
102
255
204
102
255
204
153
0
0
255
0
0
255
0
0
255
255
204
102
255
174
76
255
192
84
255
192
84
255
174
76
255
204
102
255
204
102
255
174
76
255
204
102
255
204
102
255
174
76
255
204
102
213
170
126
0
0
255
0
0
255
94
56
179
255
153
51
255
153
51
255
204
102
255
204
102
255
192
84
255
192
84
255
204
102
255
174
76
255
204
102
255
204
51
255
192
84
255
192
84
255
204
153
255
204
102
255
204
102
255
174
76
255
192
84
255
192
84
255
192
84
255
174
76
255
204
153
255
204
102
255
192
84
255
204
102
255
255
102
255
255
153
255
153
51
119
119
119
102
51
0
204
102
51
255
174
76
255
204
102
255
204
51
255
204
102
255
174
76
255
192
84
255
192
84
255
192
84
255
153
51
255
204
102
255
204
102
255
174
76
255
204
102
255
204
102
255
204
153
0
0
255
0
0
255
0
0
255
255
204
102
255
174
76
255
192
84
255
192
84
255
174
76
255
204
102
255
204
102
255
174
76
255
204
102
255
204
102
255
174
76
255
204
102
184
147
143
0
0
255
0
0
255
128
102
177
255
204
102
255
204
102
255
204
102
255
204
51
255
192
84
255
192
84
255
204
102
255
174
76
255
204
102
255
204
51
255
192
84
255
192
84
255
204
153
255
204
102
255
204
102
255
174
76
255
192
84
255
192
84
255
192
84
255
174
76
255
204
153
255
204
102
255
192
84
255
204
102
255
255
102
255
255
153
255
153
51
119
119
119
102
51
0
204
102
51
255
174
76
255
204
102
255
204
51
255
204
102
255
174
76
255
192
84
255
192
84
255
192
84
255
153
51
255
204
102
255
204
102
255
174
76
255
204
102
255
204
102
255
204
153
0
0
255
0
0
255
0
0
255
255
204
102
255
174
76
255
192
84
255
192
84
255
174
76
255
204
102
255
204
102
255
174
76
255
204
102
255
204
102
255
174
76
255
204
102
154
123
161
0
0
255
0
0
255
163
130
156
243
194
108
157
125
160
79
63
206
30
24
230
8
6
248
12
9
246
38
30
231
100
68
184
193
154
138
255
204
51
255
192
84
255
192
84
255
204
153
255
204
102
255
204
102
255
174
76
255
192
84
255
192
84
255
192
84
255
174
76
255
204
153
255
204
102
255
192
84
255
204
102
255
255
102
255
255
153
255
153
51
119
119
119
102
51
0
204
102
51
255
174
76
255
204
102
255
204
51
255
204
102
255
174
76
255
192
84
255
192
84
255
192
84
255
153
51
255
204
102
255
204
102
255
174
76
255
204
102
255
204
102
255
204
153
0
0
255
0
0
255
0
0
255
255
204
102
255
174
76
255
192
84
255
192
84
255
174
76
255
204
102
255
204
102
255
174
76
255
204
102
255
204
102
255
174
76
255
204
102
125
100
179
0
0
255
0
0
255
91
72
199
20
16
242
0
0
255
0
0
255
0
0
255
0
0
255
0
0
255
0
0
255
0
0
255
0
0
255
77
61
192
238
179
94
255
192
84
255
204
153
255
204
102
255
204
102
255
174
76
255
192
84
255
192
84
255
192
84
255
174
76
255
204
153
255
204
102
255
192
84
255
204
102
255
255
102
255
255
153
255
153
51
119
119
119
102
51
0
204
102
51
255
174
76
255
204
102
255
204
51
255
204
102
255
174
76
255
192
84
255
192
84
255
192
84
255
153
51
255
204
102
255
204
102
255
174
76
255
204
102
255
204
102
255
204
153
0
0
255
0
0
255
0
0
255
255
204
102
255
174
76
255
192
84
255
192
84
255
174
76
255
204
102
255
204
102
255
204
102
255
174
76
255
204
102
255
204
102
255
174
76
95
76
197
0
0
255
0
0
255
0
0
255
7
5
249
108
86
189
194
155
98
233
175
97
249
187
87
227
181
117
164
131
155
50
34
219
0
0
255
0
0
255
38
28
228
235
176
96
255
204
102
255
204
102
255
204
102
255
174
76
255
192
84
255
192
84
255
192
84
255
174
76
255
204
153
255
204
102
255
192
84
255
204
102
255
255
102
255
255
153
255
153
51
119
119
119
102
51
0
204
102
51
255
174
76
255
204
102
255
204
51
255
204
102
255
174
76
255
192
84
255
192
84
255
192
84
255
153
51
255
204
102
255
204
102
255
174
76
255
204
102
255
204
102
255
204
153
0
0
255
0
0
255
0
0
255
255
204
102
255
174
76
255
192
84
255
192
84
255
174
76
255
204
102
255
204
102
255
204
102
255
174
76
255
204
102
255
204
102
255
204
102
66
45
207
0
0
255
0
0
255
32
24
232
210
168
86
255
204
102
255
204
51
255
192
84
255
192
84
255
204
102
255
174
76
252
201
103
108
86
189
0
0
255
0
0
255
69
51
208
255
204
102
255
204
102
255
204
102
255
174
76
255
192
84
255
192
84
255
192
84
255
174
76
255
204
153
255
204
102
255
192
84
255
204
102
255
255
102
255
255
153
255
153
51
119
119
119
102
51
0
204
102
51
255
174
76
255
204
102
255
204
51
255
204
102
255
174
76
255
192
84
255
192
84
255
192
84
255
153
51
255
204
102
255
204
102
255
174
76
255
204
102
255
204
102
255
204
153
0
0
255
0
0
255
0
0
255
255
204
102
255
174
76
255
192
84
255
192
84
255
174
76
255
204
102
255
204
102
255
204
102
255
174
76
255
204
102
255
204
102
255
204
102
155
105
145
103
82
192
74
59
209
214
161
110
255
192
84
255
204
102
255
192
84
255
192
84
255
204
102
255
204
102
255
174
76
255
204
102
254
203
102
62
49
204
0
0
255
0
0
255
183
146
144
255
204
102
255
204
102
255
174
76
255
192
84
255
192
84
255
192
84
255
174
76
255
204
153
255
204
102
255
192
84
255
204
102
255
255
102
255
255
153
255
153
51
119
119
119
102
51
0
204
102
51
255
174
76
255
204
102
255
204
51
255
204
102
255
174
76
255
192
84
255
192
84
255
192
84
255
153
51
255
204
102
255
204
102
255
174
76
255
204
102
255
204
102
255
204
153
0
0
255
0
0
255
0
0
255
255
204
102
255
174
76
255
192
84
255
192
84
255
174
76
255
204
102
255
204
102
255
204
102
255
174
76
255
204
102
255
204
102
255
204
102
255
174
76
255
204
102
255
204
102
255
192
84
255
192
84
255
192
84
255
192
84
255
192
84
255
204
102
255
204
102
255
174
76
255
204
102
255
204
102
178
142
111
0
0
255
0
0
255
90
72
200
255
204
102
255
204
102
255
174
76
255
192
84
255
192
84
255
192
84
255
174
76
255
204
153
255
204
102
255
192
84
255
204
102
255
255
102
255
255
153
255
153
51
119
119
119
102
51
0
204
102
51
255
174
76
255
204
102
255
204
51
255
204
102
255
174
76
255
192
84
255
192
84
255
192
84
255
153
51
255
204
102
255
204
102
255
174
76
255
204
102
255
204
102
255
204
153
0
0
255
0
0
255
0
0
255
255
204
102
255
174
76
255
192
84
255
192
84
255
174
76
255
204
102
255
204
102
255
204
102
255
174
76
255
204
102
255
204
102
255
204
102
255
204
102
255
174
76
255
204
102
255
204
102
255
192
84
255
192
84
255
192
84
255
192
84
255
204
102
255
204
102
255
174
76
255
204
102
255
204
102
235
188
66
0
0
255
0
0
255
31
24
235
255
204
102
255
204
102
255
174
76
255
192
84
255
192
84
255
192
84
255
174
76
255
204
153
255
204
102
255
192
84
255
204
102
255
255
102
255
255
153
255
153
51
119
119
119
102
51
0
204
102
51
255
174
76
255
204
102
255
204
51
255
204
102
255
174
76
255
192
84
255
192
84
255
192
84
255
153
51
255
204
102
255
204
102
255
174
76
255
204
102
255
204
102
255
204
153
0
0
255
0
0
255
0
0
255
255
204
102
255
174
76
255
192
84
255
192
84
255
174
76
255
204
102
255
204
102
255
204
102
255
174
76
255
204
102
255
204
102
255
204
102
255
204
102
255
174
76
255
204
102
255
204
102
255
192
84
255
192
84
255
204
102
255
192
84
255
204
102
255
204
102
255
174
76
255
204
102
255
204
102
249
199
54
0
0
255
0
0
255
8
6
249
255
204
102
255
204
102
255
174
76
255
192
84
255
192
84
255
192
84
255
174
76
255
204
153
255
204
102
255
192
84
255
204
102
255
255
102
255
255
153
255
153
51
119
119
119
102
51
0
204
102
51
255
174
76
255
204
102
255
204
51
255
204
102
255
174
76
255
192
84
255
192
84
255
192
84
255
153
51
255
204
102
255
204
102
255
174
76
255
204
102
255
204
102
255
204
153
0
0
255
0
0
255
0
0
255
255
204
102
255
174
76
255
192
84
255
192
84
255
174
76
255
204
102
255
204
102
255
204
102
255
174
76
255
204
102
255
204
102
255
204
102
255
204
102
255
174
76
255
204
102
255
204
102
255
192
84
255
192
84
255
192
84
255
192
84
255
204
102
255
204
102
255
174
76
255
204
102
255
204
102
226
180
73
0
0
255
0
0
255
14
11
245
255
204
102
255
204
102
255
174
76
255
192
84
255
192
84
255
192
84
255
174
76
255
204
153
255
204
102
255
192
84
255
204
102
255
255
102
255
255
153
255
153
51
119
119
119
102
51
0
204
102
51
255
174
76
255
204
102
255
204
51
255
204
102
255
174
76
255
192
84
255
192
84
255
192
84
255
153
51
255
204
102
255
204
102
255
174
76
255
204
102
255
204
102
255
204
153
0
0
255
0
0
255
0
0
255
255
204
102
255
174
76
255
192
84
255
192
84
255
174
76
255
204
102
255
204
102
255
204
102
255
174
76
255
204
102
255
204
102
255
204
102
255
204
102
255
174
76
255
204
102
255
204
102
255
192
84
255
192
84
255
192
84
255
204
102
255
204
102
255
204
102
255
174
76
255
204
102
255
204
102
157
125
128
0
0
255
0
0
255
47
37
225
255
204
102
255
204
102
255
174
76
255
192
84
255
192
84
255
192
84
255
174
76
255
204
153
255
204
102
255
192
84
255
204
102
255
255
102
255
255
153
255
153
51
119
119
119
102
51
0
204
102
51
255
174
76
255
204
102
255
204
51
255
204
102
255
174
76
255
192
84
255
192
84
255
192
84
255
153
51
255
204
102
255
204
102
255
174
76
255
204
102
255
204
102
255
204
153
0
0
255
0
0
255
0
0
255
255
204
102
255
174
76
255
192
84
255
192
84
255
174
76
255
204
102
255
204
102
255
204
102
255
174
76
255
204
102
255
204
153
255
204
102
252
201
103
159
108
142
178
142
147
255
204
102
255
192
84
255
192
84
255
192
84
255
204
102
255
204
102
255
204
102
255
174
76
255
204
102
245
196
107
37
29
224
0
0
255
0
0
255
115
92
185
255
204
102
255
204
102
255
174
76
255
192
84
255
192
84
255
192
84
255
174
76
255
204
153
255
204
102
255
192
84
255
204
102
255
255
102
255
255
153
255
153
51
119
119
119
102
51
0
204
102
51
255
174
76
255
204
102
255
204
51
255
204
102
255
174
76
255
192
84
255
192
84
255
192
84
255
153
51
255
204
102
255
204
102
255
174
76
255
204
102
255
204
102
255
204
153
0
0
255
0
0
255
0
0
255
255
204
102
255
174
76
255
192
84
255
192
84
255
174
76
255
204
102
255
204
102
255
204
102
255
174
76
255
204
102
255
204
153
201
160
133
37
29
231
0
0
255
6
4
250
160
128
158
255
204
102
255
192
84
255
192
84
255
204
102
255
204
102
255
204
102
255
174
76
241
192
109
72
57
211
0
0
255
0
0
255
3
2
252
220
176
122
255
204
102
255
204
102
255
174
76
255
192
84
255
192
84
255
192
84
255
174
76
255
204
153
255
204
102
255
192
84
255
204
102
255
255
102
255
255
153
255
153
51
119
119
119
102
51
0
204
102
51
255
174
76
255
204
102
255
204
51
255
204
102
255
174
76
255
192
84
255
192
84
255
192
84
255
153
51
255
204
102
255
204
102
255
174
76
255
204
102
255
204
102
255
204
153
0
0
255
0
0
255
0
0
255
255
204
102
255
174
76
255
192
84
255
192
84
255
174
76
255
204
102
255
204
102
255
204
102
255
174
76
255
204
102
255
204
153
240
192
110
35
28
233
0
0
255
0
0
255
0
0
255
58
46
219
153
115
151
217
163
108
242
193
108
248
198
105
216
172
124
142
96
154
28
22
237
0
0
255
0
0
255
0
0
255
121
91
173
255
204
102
255
204
102
255
204
102
255
174
76
255
192
84
255
192
84
255
192
84
255
174
76
255
204
153
255
204
102
255
192
84
255
204
102
255
255
102
255
255
153
255
153
51
119
119
119
102
51
0
204
102
51
255
174
76
255
204
102
255
204
51
255
204
102
255
204
102
255
174
76
255
192
84
255
192
84
255
153
51
255
204
102
255
204
102
255
174
76
255
204
102
255
204
102
255
204
153
0
0
255
0
0
255
0
0
255
255
204
102
255
174
76
255
192
84
255
192
84
255
174
76
255
204
102
255
204
102
255
204
102
255
174
76
255
204
102
255
204
153
255
204
102
221
176
121
34
23
230
0
0
255
0
0
255
0
0
255
0
0
255
0
0
255
0
0
255
0
0
255
0
0
255
0
0
255
0
0
255
0
0
255
0
0
255
85
64
197
251
188
85
255
204
102
255
204
102
255
204
102
255
174
76
255
192
84
255
192
84
255
192
84
255
174
76
255
204
153
255
204
102
255
192
84
255
204
102
255
255
102
255
255
153
255
153
51
119
119
119
102
51
0
204
102
51
255
174
76
255
204
102
255
204
51
255
204
102
255
204
102
255
174
76
255
192
84
255
192
84
255
153
51
255
204
102
255
204
102
255
174
76
255
204
102
255
204
102
255
204
153
0
0
255
0
0
255
0
0
255
255
204
102
255
174
76
255
192
84
255
192
84
255
174
76
255
204
102
255
204
102
255
204
102
255
174
76
255
204
102
255
204
153
255
204
102
255
204
102
237
161
87
95
76
197
1
0
253
0
0
255
0
0
255
0
0
255
0
0
255
0
0
255
0
0
255
0
0
255
0
0
255
8
6
249
122
97
156
252
189
85
255
192
84
255
204
102
255
204
102
255
204
102
255
174
76
255
192
84
255
192
84
255
192
84
255
174
76
255
204
153
255
204
102
255
192
84
255
204
102
255
255
102
255
255
153
255
153
51
119
119
119
102
51
0
204
102
51
255
174
76
255
204
102
255
204
51
255
204
102
255
204
102
255
174
76
255
192
84
255
192
84
255
153
51
255
204
102
255
204
102
255
204
102
255
174
76
255
204
102
255
204
153
0
0
255
0
0
255
0
0
255
255
204
102
255
174
76
255
192
84
255
192
84
255
174
76
255
204
102
255
204
102
255
204
102
255
174
76
255
204
102
255
204
153
255
204
102
255
204
102
255
174
76
255
204
102
220
176
122
128
102
177
64
48
211
25
18
237
6
4
250
8
6
249
28
22
237
63
42
210
134
107
173
225
180
119
255
204
51
255
192
84
255
192
84
255
204
102
255
204
102
255
204
102
255
174
76
255
192
84
255
192
84
255
192
84
255
174
76
255
204
153
255
204
102
255
192
84
255
204
102
255
255
102
255
255
153
255
153
51
119
119
119
102
51
0
204
102
51
255
174
76
255
204
102
255
204
51
255
204
102
255
204
102
255
174
76
255
192
84
255
192
84
255
153
51
255
204
102
255
204
102
255
204
102
255
174
76
255
204
102
255
204
153
255
204
51
255
204
102
255
204
102
255
204
102
255
204
102
255
174
76
255
192
84
255
192
84
255
174
76
255
204
102
255
204
102
255
174
76
255
204
102
255
204
153
255
204
102
255
204
102
255
174
76
255
204
102
255
204
102
255
204
102
255
192
84
255
192
84
255
204
102
255
204
102
255
204
102
255
174
76
255
204
102
255
204
102
255
204
51
255
192
84
255
192
84
255
204
102
255
204
102
255
204
102
255
174
76
255
192
84
255
192
84
255
192
84
255
174
76
255
204
153
255
204
102
255
192
84
255
204
102
255
255
102
255
255
153
255
153
51
119
119
119
102
51
0
204
102
51
255
174
76
255
204
102
255
204
51
255
204
102
255
204
102
255
174
76
255
192
84
255
192
84
255
153
51
255
204
102
255
204
102
255
204
102
255
174
76
255
204
102
255
204
153
255
204
51
255
204
102
255
204
102
255
204
102
255
204
102
255
174
76
255
192
84
255
192
84
255
174
76
255
204
102
255
204
102
255
174
76
255
204
102
255
204
153
255
204
102
255
204
102
255
174
76
255
204
102
255
204
102
255
204
102
255
192
84
255
192
84
255
204
102
255
204
102
255
204
102
255
174
76
255
204
102
255
204
102
255
204
51
255
192
84
255
192
84
255
204
102
255
204
102
255
204
102
255
174
76
255
192
84
255
192
84
255
192
84
255
174
76
255
204
153
255
204
102
255
192
84
255
204
102
255
255
102
255
255
153
255
153
51
119
119
119
102
51
0
204
102
51
255
174
76
255
204
102
255
204
51
255
204
102
255
204
102
255
174
76
255
192
84
255
192
84
255
153
51
255
204
102
255
204
102
255
204
102
255
174
76
255
204
102
255
204
153
255
204
51
255
204
102
255
204
102
255
204
102
255
204
102
255
174
76
255
192
84
255
192
84
255
174
76
255
204
102
255
204
102
255
174
76
255
204
102
255
204
153
255
204
102
255
204
102
255
174
76
255
204
102
255
204
102
255
204
102
255
192
84
255
192
84
255
204
102
255
204
102
255
204
102
255
174
76
255
204
102
255
204
102
255
204
51
255
192
84
255
192
84
255
204
102
255
204
102
255
204
102
255
174
76
255
192
84
255
192
84
255
192
84
255
174
76
255
204
153
255
204
102
255
192
84
255
204
102
255
255
102
255
255
153
255
153
51
119
119
119
102
51
0
204
102
51
255
174
76
255
204
102
255
204
51
255
204
102
255
204
102
255
174
76
255
192
84
255
192
84
255
153
51
255
204
102
255
204
102
255
204
102
255
174
76
255
204
102
255
204
153
255
204
51
255
204
102
255
204
102
255
204
102
255
204
102
255
174
76
255
192
84
255
192
84
255
174
76
255
204
102
255
204
102
255
174
76
255
204
102
255
204
153
255
204
102
255
204
102
255
174
76
255
204
102
255
204
102
255
204
102
255
192
84
255
192
84
255
204
102
255
204
102
255
204
102
255
174
76
255
204
102
255
204
102
255
204
51
255
192
84
255
192
84
255
204
102
255
204
102
255
204
102
255
174
76
255
192
84
255
192
84
255
192
84
255
174
76
255
204
153
255
204
102
255
192
84
255
204
102
255
255
102
255
255
153
255
153
51
119
119
119
102
51
0
204
102
51
255
174
76
255
204
102
255
204
51
255
204
102
255
204
102
255
174
76
255
192
84
255
192
84
255
153
51
255
204
102
255
204
102
255
204
102
255
174
76
255
204
102
255
204
153
255
204
51
255
204
102
255
204
102
255
204
102
255
204
102
255
174
76
255
192
84
255
192
84
255
174
76
255
204
102
255
204
102
255
174
76
255
204
102
255
204
153
255
204
102
255
204
102
255
174
76
255
204
102
255
204
102
255
204
102
255
192
84
255
192
84
255
204
102
255
204
102
255
204
102
255
174
76
255
204
102
255
204
102
255
204
51
255
192
84
255
192
84
255
204
102
255
204
102
255
204
102
255
174
76
255
192
84
255
192
84
255
192
84
255
174
76
255
204
153
255
204
102
255
192
84
255
204
102
255
255
102
255
255
153
255
153
51
119
119
119
102
51
0
204
102
51
255
174
76
255
204
102
255
204
51
255
204
102
255
204
102
255
174
76
255
192
84
255
192
84
255
153
51
255
204
102
255
204
102
255
204
102
255
174
76
255
204
102
255
204
153
255
204
51
255
204
102
255
204
102
255
204
102
255
204
102
255
174
76
255
192
84
255
192
84
255
174
76
255
204
102
255
204
102
255
174
76
255
204
102
255
204
153
255
204
102
255
204
102
255
204
102
255
174
76
255
204
102
255
204
102
255
192
84
255
192
84
255
204
102
255
204
102
255
204
102
255
174
76
255
204
102
255
204
102
255
204
51
255
192
84
255
192
84
255
204
102
255
204
102
255
204
102
255
174
76
255
192
84
255
192
84
255
192
84
255
174
76
255
204
153
255
204
102
255
192
84
255
204
102
255
255
102
255
255
153
255
153
51
119
119
119
102
51
0
204
102
51
255
174
76
255
204
102
255
204
51
255
204
102
255
204
102
255
174
76
255
192
84
255
192
84
255
153
51
255
204
102
255
204
102
255
204
102
255
174
76
255
204
102
255
204
153
255
204
51
255
204
102
255
204
102
255
204
102
255
204
102
255
174
76
255
192
84
255
192
84
255
174
76
255
204
102
255
204
102
255
174
76
255
204
102
255
204
153
255
204
102
255
204
102
255
204
102
255
174
76
255
204
102
255
204
102
255
192
84
255
192
84
255
204
102
255
204
102
255
204
102
255
174
76
255
204
102
255
204
102
255
204
51
255
192
84
255
192
84
255
204
102
255
204
102
255
204
102
255
174
76
255
192
84
255
192
84
255
192
84
255
174
76
255
204
153
255
204
102
255
192
84
255
204
102
255
255
102
255
255
153
255
153
51
119
119
119
102
51
0
204
102
51
255
174
76
255
204
102
255
204
51
255
204
102
255
204
102
255
174
76
255
192
84
255
192
84
255
153
51
255
204
102
255
204
102
255
204
102
255
174
76
255
204
102
255
204
153
255
204
51
255
204
102
255
204
102
255
204
102
255
204
102
255
174
76
255
192
84
255
192
84
255
174
76
255
204
102
255
204
102
255
174
76
255
204
102
255
204
153
255
204
102
255
204
102
255
204
102
255
174
76
255
204
102
255
204
102
255
192
84
255
192
84
255
204
102
255
204
102
255
204
102
255
174
76
255
204
102
255
204
102
255
204
51
255
192
84
255
192
84
255
204
102
255
204
102
255
204
102
255
174
76
255
192
84
255
192
84
255
192
84
255
174
76
255
204
153
255
204
102
255
192
84
255
204
102
255
255
102
255
255
153
255
153
51
119
119
119
102
51
0
204
102
51
255
174
76
255
204
102
255
204
51
255
204
102
255
204
102
255
174
76
255
192
84
255
192
84
255
153
51
255
204
102
255
204
102
255
204
102
255
174
76
255
204
102
255
204
153
255
204
51
255
204
102
255
204
102
255
204
102
255
204
102
255
174
76
255
192
84
255
192
84
255
174
76
255
204
102
255
204
102
255
174
76
255
204
102
255
204
153
255
204
102
255
204
102
255
204
102
255
174
76
255
204
102
255
204
102
255
192
84
255
192
84
255
204
102
255
204
102
255
204
102
255
174
76
255
204
102
255
204
102
255
204
51
255
192
84
255
192
84
255
204
102
255
204
102
255
204
102
255
174
76
255
192
84
255
192
84
255
192
84
255
174
76
255
204
153
255
204
102
255
192
84
255
204
102
255
255
102
255
255
153
255
153
51
119
119
119
102
51
0
204
102
51
255
174
76
255
204
102
255
204
51
255
204
102
255
204
102
255
174
76
255
192
84
255
192
84
255
153
51
255
204
102
255
204
102
255
204
102
255
174
76
255
204
102
255
204
153
255
204
51
255
204
102
255
204
102
255
204
102
255
204
102
255
174
76
255
192
84
255
174
76
255
204
102
255
204
102
255
204
102
255
174
76
255
204
102
255
204
102
255
204
102
255
204
102
255
204
102
255
174
76
255
204
102
255
204
102
255
192
84
255
204
153
255
204
102
255
204
102
255
174
76
255
204
102
255
204
102
255
204
102
255
204
51
255
192
84
255
192
84
255
204
102
255
204
102
255
204
102
255
174
76
255
192
84
255
192
84
255
192
84
255
174
76
255
204
153
255
204
102
255
192
84
255
204
102
255
255
102
255
255
153
255
153
51
119
119
119
102
51
0
204
102
51
255
174
76
255
204
102
255
204
51
255
204
102
255
204
102
255
174
76
255
192
84
255
192
84
255
153
51
255
204
102
255
204
102
255
204
102
255
174
76
255
204
102
255
204
153
255
204
51
255
204
102
255
204
102
255
204
102
255
174
76
255
192
84
255
192
84
255
174
76
255
204
102
255
204
102
255
204
102
255
174
76
255
204
102
255
204
102
255
204
102
255
204
102
255
204
102
255
174
76
255
204
102
255
204
102
255
192
84
255
204
153
255
204
102
255
204
102
255
204
102
255
174
76
255
204
102
255
204
102
255
204
51
255
192
84
255
192
84
255
204
153
255
204
102
255
204
102
255
174
76
255
192
84
255
192
84
255
192
84
255
174
76
255
204
153
255
204
102
255
192
84
255
204
102
255
255
102
255
255
153
255
153
51
119
119
119
102
51
0
204
102
51
255
174
76
255
204
102
255
204
51
255
204
102
255
204
102
255
174
76
255
192
84
255
192
84
255
153
51
255
204
102
255
204
102
255
204
102
255
174
76
255
204
102
255
204
153
255
204
51
255
204
102
255
204
102
255
204
102
255
174
76
255
192
84
255
192
84
255
174
76
255
204
102
255
204
102
255
204
102
255
174
76
255
204
102
255
204
102
255
204
102
255
204
102
255
204
102
255
174
76
255
204
102
255
204
102
255
192
84
255
192
84
255
204
102
255
204
102
255
204
102
255
174
76
255
204
102
255
204
102
255
204
51
255
192
84
255
192
84
255
204
153
255
204
102
255
204
102
255
174
76
255
192
84
255
192
84
255
192
84
255
174
76
255
204
153
255
204
102
255
192
84
255
204
102
255
255
102
255
255
153
255
153
51
119
119
119
102
51
0
204
102
51
255
174
76
255
204
102
255
204
51
255
204
102
255
204
102
255
174
76
255
192
84
255
192
84
255
153
51
255
204
102
255
204
102
255
204
102
255
174
76
255
204
102
255
204
153
255
204
51
255
204
102
255
204
102
255
204
102
255
174
76
255
192
84
255
192
84
255
174
76
255
204
102
255
204
102
255
204
102
255
174
76
255
204
102
255
204
102
255
204
102
255
204
102
255
174
76
255
204
102
255
204
102
255
204
102
255
204
102
255
192
84
255
192
84
255
204
102
255
204
102
255
174
76
255
204
102
255
204
102
255
204
51
255
192
84
255
192
84
255
204
153
255
204
102
255
204
102
255
174
76
255
192
84
255
192
84
255
192
84
255
174
76
255
204
153
255
204
102
255
192
84
255
204
102
255
255
102
255
255
153
255
153
51
119
119
119
102
51
0
204
102
51
255
174
76
255
204
102
255
204
51
255
204
102
255
204
102
255
174
76
255
192
84
255
192
84
255
153
51
255
204
102
255
204
102
255
174
76
255
204
102
255
204
102
255
204
153
255
204
51
255
204
102
255
204
102
255
204
102
255
174
76
255
192
84
255
192
84
255
174
76
255
204
102
255
204
102
255
204
102
255
174
76
255
204
102
255
204
102
255
204
102
255
174
76
255
204
102
255
204
102
255
174
76
255
204
102
255
204
102
255
192
84
255
192
84
255
204
102
255
204
102
255
174
76
255
204
102
255
204
102
255
204
51
255
192
84
255
192
84
255
204
153
255
204
102
255
204
102
255
174
76
255
192
84
255
192
84
255
192
84
255
174
76
255
204
153
255
204
102
255
192
84
255
204
102
255
255
102
255
255
153
255
153
51
119
119
119
102
51
0
204
102
51
255
174
76
255
204
102
255
204
51
255
204
102
255
204
102
255
174
76
255
192
84
255
192
84
255
153
51
255
204
102
255
204
102
255
174
76
255
204
102
255
204
102
255
204
153
255
204
51
255
204
102
255
204
102
255
204
102
255
174
76
255
192
84
255
192
84
255
174
76
255
204
102
255
204
102
255
204
102
255
174
76
255
204
102
255
204
102
255
204
102
255
174
76
255
204
102
255
204
102
255
174
76
255
174
76
255
204
102
255
192
84
255
192
84
255
204
102
255
204
102
255
174
76
255
204
102
255
204
102
255
204
51
255
192
84
255
192
84
255
204
153
255
204
102
255
204
102
255
174
76
255
192
84
255
192
84
255
192
84
255
174
76
255
204
153
255
204
102
255
192
84
255
204
102
255
255
102
255
255
153
255
153
51
119
119
119
102
51
0
204
102
51
255
174
76
255
204
102
255
204
51
255
204
102
255
204
102
255
174
76
255
192
84
255
192
84
255
153
51
255
204
102
255
204
102
255
174
76
255
204
102
255
204
102
255
204
153
255
204
51
255
204
102
255
204
102
255
204
102
255
174
76
255
192
84
255
192
84
255
174
76
255
204
102
255
204
102
255
204
102
255
174
76
255
204
102
255
204
102
255
204
102
255
174
76
255
204
102
255
204
102
255
174
76
255
174
76
255
204
102
255
192
84
255
192
84
255
204
102
255
204
102
255
174
76
255
204
102
255
204
102
255
204
51
255
192
84
255
192
84
255
204
153
255
204
102
255
204
102
255
174
76
255
192
84
255
192
84
255
192
84
255
174
76
255
204
153
255
204
102
255
192
84
255
204
102
255
255
102
255
255
153
255
153
51
119
119
119
102
51
0
204
102
51
255
174
76
255
204
102
255
204
51
255
204
102
255
204
102
255
174
76
255
192
84
255
192
84
255
153
51
255
204
102
255
204
102
255
174
76
255
204
102
255
204
102
255
204
153
255
204
51
255
204
102
255
204
102
255
204
102
255
204
102
255
174
76
255
192
84
255
174
76
255
204
102
255
204
102
255
204
102
255
174
76
255
204
102
255
204
102
255
174
76
255
204
102
255
204
102
255
174
76
255
204
102
255
174
76
255
204
102
255
192
84
255
192
84
255
204
102
255
204
102
255
174
76
255
204
102
255
204
102
255
204
51
255
192
84
255
192
84
255
204
153
255
204
102
255
204
102
255
174
76
255
192
84
255
192
84
255
192
84
255
174
76
255
204
153
255
204
102
255
192
84
255
204
102
255
255
102
255
255
153
255
153
51
119
119
119
